<?xml version="1.0" encoding="utf-8"?>
<!-- Generator: Adobe Illustrator 24.3.0, SVG Export Plug-In . SVG Version: 6.00 Build 0)  -->
<svg version="1.1" id="Layer_1" xmlns="http://www.w3.org/2000/svg" xmlns:xlink="http://www.w3.org/1999/xlink" x="0px" y="0px"
	 viewBox="0 0 1920 640.97" style="enable-background:new 0 0 1920 640.97;" xml:space="preserve">
<style type="text/css">
	.st0{fill:#E8EAEE;}
	.st1{fill:#3BB8AD;}
</style>
<g>
	<path class="st0" d="M1874.47,89.38c-0.42,0.3-0.83,0.62-1.25,0.93C1873.63,89.99,1874.05,89.68,1874.47,89.38z"/>
	<path class="st0" d="M67.39,150.99c-0.01-0.27-0.02-0.54-0.03-0.81C67.37,150.46,67.38,150.73,67.39,150.99z"/>
	<path class="st0" d="M67.24,148.12c-0.02-0.25-0.03-0.51-0.05-0.76C67.2,147.61,67.22,147.87,67.24,148.12z"/>
	<path class="st0" d="M66.93,144.68c-0.02-0.15-0.04-0.3-0.06-0.46C66.89,144.37,66.91,144.52,66.93,144.68z"/>
	<path class="st0" d="M66.57,141.99c-0.04-0.29-0.09-0.58-0.14-0.88C66.48,141.41,66.53,141.7,66.57,141.99z"/>
	<path class="st0" d="M1845.67,128.25c-0.1,0.29-0.2,0.59-0.29,0.88C1845.48,128.84,1845.57,128.55,1845.67,128.25z"/>
	<path class="st0" d="M1846.95,124.78c-0.09,0.23-0.18,0.45-0.27,0.68C1846.76,125.22,1846.86,125,1846.95,124.78z"/>
	<path class="st0" d="M1848.26,121.62c-0.14,0.31-0.27,0.63-0.41,0.94C1847.99,122.24,1848.12,121.93,1848.26,121.62z"/>
	<path class="st0" d="M1844.6,131.66c-0.05,0.17-0.1,0.34-0.15,0.51C1844.5,132,1844.55,131.83,1844.6,131.66z"/>
	<path class="st0" d="M1855.11,109.3c-0.23,0.35-0.46,0.69-0.69,1.04C1854.65,109.99,1854.87,109.64,1855.11,109.3z"/>
	<path class="st0" d="M1853.38,111.96c-0.2,0.32-0.4,0.63-0.59,0.95C1852.98,112.59,1853.18,112.28,1853.38,111.96z"/>
	<path class="st0" d="M1849.88,118.2c-0.14,0.28-0.28,0.55-0.42,0.83C1849.6,118.75,1849.75,118.47,1849.88,118.2z"/>
	<path class="st0" d="M1843.67,135.15c-0.07,0.28-0.13,0.56-0.2,0.84C1843.54,135.71,1843.61,135.43,1843.67,135.15z"/>
	<path class="st0" d="M1851.42,115.29c-0.18,0.33-0.36,0.66-0.54,0.99C1851.06,115.95,1851.24,115.62,1851.42,115.29z"/>
	<path class="st0" d="M1842.88,138.81c-0.02,0.11-0.05,0.23-0.07,0.34C1842.84,139.03,1842.86,138.92,1842.88,138.81z"/>
	<path class="st0" d="M39.2,93.09c2.16,1.82,4.21,3.75,6.16,5.78C43.41,96.83,41.36,94.9,39.2,93.09z"/>
	<path class="st0" d="M1857.39,106.11c-0.26,0.34-0.52,0.68-0.77,1.03C1856.87,106.79,1857.13,106.45,1857.39,106.11z"/>
	<path class="st0" d="M163.01,242.88c0,1.89-0.05,3.78-0.14,5.65c11.55,6.68,22.48,14.33,32.67,22.82
		c15.57-5.66,32.92-8.82,51.22-8.82c53.6,0,99.1,27.12,115.31,64.76c20.69-14.6,45.92-23.2,73.17-23.2
		c46.96,0,87.95,25.48,109.95,63.36c12.1-2.33,24.6-3.56,37.38-3.56c36.41,0,70.5,9.9,99.75,27.14
		c18.65-10.76,40.27-16.92,63.35-16.92c52.34,0,97.27,31.65,116.74,76.85c35.63,1.48,67.68,16.8,90.92,40.73
		c24.15-26.7,58.85-43.67,97.54-44.34c20.95-41.37,63.86-69.73,113.41-69.73c20.61,0,40.06,4.92,57.28,13.63
		c30.56-19.54,66.87-30.87,105.82-30.87c15.85,0,31.26,1.88,46.02,5.42c20.84-41.68,63.93-70.3,113.7-70.3
		c37.57,0,71.32,16.32,94.58,42.25c18.42,4.44,35.22,13.06,49.33,24.8c6.55-4.74,13.44-9.03,20.63-12.84
		c19.3-41.91,50.65-77.13,89.61-101.21c-0.05-1.33-0.08-2.66-0.08-4c0-49.88,32.92-92.08,78.22-106.04
		c4.03-16.89,11.92-32.27,22.69-45.17c-55.88,12.52-100.92,53.73-118.84,107.36c-15.56-16.69-37.73-27.13-62.34-27.13
		c-32.68,0-61.06,18.4-75.36,45.4c0,0-0.87,4.08-2.35,11.19c-1.3,0.43-2.38,1.88-3.2,4.52c-9.41-2.33-19.24-3.58-29.37-3.58
		c-34.3,0-65.27,14.21-87.36,37.06c-11.68-35.34-44.97-60.85-84.22-60.85c-46.34,0-84.37,35.54-88.34,80.86
		c-4.85-1.13-9.89-1.75-15.08-1.75c-9.39,0-18.3,1.97-26.39,5.5c-30.47,3.78-56.07,23.22-68.52,50.01
		c-8.28-3.42-17.35-5.32-26.87-5.32c-35.83,0-65.38,26.78-69.77,61.42c-10.4-4.45-21.85-6.92-33.87-6.92
		c-31.99,0-59.88,17.43-74.76,43.3c-6.94-3.78-14.89-5.93-23.35-5.93c-10.17,0-19.61,3.11-27.43,8.43
		c-1.19-67.43-56.21-121.73-123.92-121.73c-35.5,0-67.52,14.93-90.12,38.85c-4.92-58.21-53.69-103.92-113.17-103.92
		c-28.03,0-53.67,10.17-73.49,27c-21.2-48.48-69.56-82.37-125.85-82.37c-30.78,0-59.2,10.13-82.1,27.24
		c-14.3-27-42.68-45.4-75.36-45.4c-24.61,0-46.78,10.44-62.34,27.12c-17.08-51.1-58.79-90.91-111.03-105.38
		c8.17,11.43,14.23,24.47,17.59,38.57C130.09,150.8,163.01,192.99,163.01,242.88z"/>
	<path class="st0" d="M1841.83,146.19c-0.01,0.06-0.01,0.11-0.02,0.17C1841.82,146.3,1841.83,146.24,1841.83,146.19z"/>
	<path class="st0" d="M1842.3,142.29c-0.04,0.27-0.08,0.55-0.11,0.82C1842.23,142.83,1842.26,142.56,1842.3,142.29z"/>
	<path class="st0" d="M1841.59,149.62c-0.01,0.27-0.03,0.54-0.04,0.82C1841.56,150.16,1841.57,149.89,1841.59,149.62z"/>
	<path class="st0" d="M1862.93,99.53c0.33-0.36,0.67-0.71,1.01-1.06C1863.6,98.81,1863.26,99.17,1862.93,99.53z"/>
	<path class="st0" d="M50.86,105.24c-0.41-0.52-0.82-1.04-1.24-1.56C50.04,104.2,50.46,104.72,50.86,105.24z"/>
	<path class="st0" d="M61.13,122.73c-0.28-0.66-0.57-1.32-0.87-1.97C60.55,121.4,60.85,122.06,61.13,122.73z"/>
	<path class="st0" d="M59.73,119.62c-0.21-0.44-0.43-0.88-0.65-1.31C59.3,118.74,59.52,119.18,59.73,119.62z"/>
	<path class="st0" d="M57.56,115.42c-0.52-0.94-1.06-1.87-1.61-2.78C56.5,113.55,57.04,114.48,57.56,115.42z"/>
	<path class="st0" d="M58.63,117.41c-0.23-0.45-0.47-0.91-0.71-1.36C58.16,116.5,58.39,116.95,58.63,117.41z"/>
	<path class="st0" d="M62.11,125.14c-0.15-0.39-0.3-0.78-0.46-1.17C61.81,124.36,61.96,124.75,62.11,125.14z"/>
	<path class="st0" d="M64.79,133.36c-0.09-0.34-0.18-0.67-0.27-1.01C64.6,132.69,64.7,133.02,64.79,133.36z"/>
	<path class="st0" d="M65.42,135.92c-0.06-0.26-0.13-0.53-0.19-0.79C65.3,135.39,65.36,135.65,65.42,135.92z"/>
	<path class="st0" d="M64.03,130.7c-0.09-0.3-0.18-0.6-0.27-0.89C63.85,130.11,63.94,130.41,64.03,130.7z"/>
	<path class="st0" d="M63,127.55c-0.13-0.36-0.26-0.72-0.39-1.08C62.74,126.83,62.88,127.19,63,127.55z"/>
	<path class="st0" d="M55.67,112.17c-0.31-0.5-0.62-0.99-0.94-1.48C55.05,111.18,55.36,111.67,55.67,112.17z"/>
	<path class="st0" d="M1872.1,91.16c-0.41,0.32-0.82,0.64-1.23,0.97C1871.28,91.8,1871.69,91.48,1872.1,91.16z"/>
	<path class="st0" d="M1866.8,95.68c-0.37,0.34-0.74,0.69-1.11,1.04C1866.05,96.37,1866.43,96.02,1866.8,95.68z"/>
	<path class="st0" d="M1869.01,93.69c-0.39,0.33-0.77,0.68-1.15,1.02C1868.24,94.36,1868.62,94.02,1869.01,93.69z"/>
	<path class="st0" d="M1859.29,103.68c-0.29,0.35-0.57,0.71-0.85,1.07C1858.72,104.39,1859,104.03,1859.29,103.68z"/>
	<path class="st0" d="M1861.87,100.68c-0.32,0.35-0.63,0.7-0.94,1.06C1861.24,101.37,1861.56,101.03,1861.87,100.68z"/>
	<path class="st0" d="M54.4,110.19c-1.08-1.64-2.22-3.24-3.42-4.79C52.18,106.95,53.32,108.55,54.4,110.19z"/>
	<path class="st0" d="M66.1,139.2c-0.05-0.26-0.09-0.52-0.14-0.78C66.01,138.68,66.05,138.94,66.1,139.2z"/>
	<path class="st0" d="M49.49,103.52c-1.31-1.6-2.68-3.15-4.11-4.64C46.81,100.38,48.18,101.92,49.49,103.52z"/>
</g>
<g>
	<path class="st1" d="M67.44,153.76c0,0.59-0.03,1.18-0.04,1.77c41.26,8.29,72.34,44.73,72.34,88.43c0,23.03-8.63,44.04-22.84,59.98
		c33.12,19.88,58.63,51.16,71.08,88.42c15.6-16.74,37.84-27.2,62.52-27.2c32.78,0,61.24,18.45,75.58,45.53
		c0.83-0.62,1.66-1.22,2.5-1.82c0.24-0.38,0.49-0.75,0.73-1.13c0.06,0.16,0.12,0.33,0.18,0.49c22.35-15.66,49.56-24.86,78.93-24.86
		c26.59,0,51.41,7.55,72.46,20.61c14.68-10.7,32.76-17.01,52.31-17.01c46.48,0,84.62,35.65,88.6,81.09
		c4.86-1.14,9.92-1.75,15.13-1.75c8.9,0,17.38,1.76,25.13,4.94c8.01,1.91,15.7,4.64,22.97,8.11c8.49-22.15,29.93-37.88,55.07-37.88
		c29.49,0,53.92,21.65,58.27,49.91c0.23,0,0.46-0.02,0.69-0.02c57.13,0,104.61,41.16,114.5,95.43c10.46-16.47,28.84-27.4,49.79-27.4
		c18.55,0,35.09,8.57,45.9,21.97c19.93-35.56,57.95-59.61,101.61-59.61c34.07,0,64.72,14.64,86.02,37.97
		c-0.33-3.59-0.53-7.23-0.53-10.91c0-64.3,52.12-116.42,116.42-116.42c29.93,0,57.21,11.3,77.84,29.85
		c20.72-49.84,69.86-84.9,127.2-84.9c30.87,0,59.37,10.16,82.34,27.31c14.34-27.08,42.81-45.53,75.58-45.53
		c24.68,0,46.92,10.47,62.52,27.2c10.63-31.79,30.75-59.22,57-78.94c-16.13-16.3-26.09-38.71-26.09-63.44
		c0-43.7,31.08-80.14,72.34-88.43c-0.01-0.59-0.05-1.18-0.05-1.78c0-40.15,29.82-73.31,68.52-78.6c0.99-7.45,3.02-14.57,5.93-21.21
		c-47.27,4.81-85.77,39.28-96.56,84.51c-45.3,13.97-78.22,56.16-78.22,106.04c0,1.34,0.03,2.67,0.08,4
		c-38.96,24.08-70.3,59.3-89.61,101.21c-7.19,3.8-14.08,8.1-20.63,12.84c-14.11-11.74-30.9-20.36-49.33-24.8
		c-23.26-25.92-57-42.25-94.58-42.25c-49.77,0-92.86,28.62-113.7,70.3c-14.77-3.54-30.17-5.42-46.02-5.42
		c-38.96,0-75.27,11.33-105.82,30.87c-17.21-8.71-36.67-13.63-57.28-13.63c-49.54,0-92.45,28.36-113.41,69.73
		c-38.68,0.66-73.38,17.63-97.54,44.34c-23.24-23.93-55.29-39.25-90.92-40.73c-19.47-45.2-64.4-76.85-116.74-76.85
		c-23.08,0-44.7,6.17-63.35,16.92c-29.25-17.24-63.34-27.14-99.75-27.14c-12.78,0-25.28,1.23-37.38,3.56
		c-21.99-37.88-62.99-63.36-109.95-63.36c-27.25,0-52.48,8.6-73.17,23.2c-16.21-37.65-61.71-64.76-115.31-64.76
		c-18.3,0-35.65,3.16-51.22,8.82c-10.19-8.5-21.12-16.14-32.67-22.82c0.09-1.87,0.14-3.75,0.14-5.65
		c0-49.89-32.92-92.08-78.22-106.04C75.61,98.36,46.39,67.68,8.77,56.4c4.43,7.32,7.73,15.4,9.62,24.01
		C47.18,92.32,67.44,120.67,67.44,153.76z"/>
</g>
</svg>
