<?xml version="1.0" encoding="utf-8"?>
<!-- Generator: Adobe Illustrator 25.0.1, SVG Export Plug-In . SVG Version: 6.00 Build 0)  -->
<svg version="1.1" xmlns="http://www.w3.org/2000/svg" xmlns:xlink="http://www.w3.org/1999/xlink" x="0px" y="0px"
	 viewBox="0 0 1400 980" style="enable-background:new 0 0 1400 980;" xml:space="preserve">
<style type="text/css">
	.st0{display:none;}
	.st1{display:inline;fill:#FFFFFF;}
	.st2{filter:url(#Adobe_OpacityMaskFilter);}
	.st3{fill:#FFFFFF;}
	.st4{mask:url(#SVGID_1_);}
	.st5{fill:#04B49E;}
	.st6{fill:#014042;}
</style>
<g id="_x31_">
	<g class="st0">
		<polygon class="st1" points="686.2,379 695.4,379 695.4,933.2 677.2,933.2 		"/>
		<polygon class="st1" points="704.9,378.9 699.8,378.9 699.8,933 709.9,933 		"/>
		<path class="st1" d="M670.5,600h2.6v334.2c0,0-152.3-75.2-91.3-75.2C678.4,859,670.5,600,670.5,600z"/>
		<path class="st1" d="M717.9,547h-2.6v387.2c0,0,168.2,11,97.6-53C715.3,881.2,717.9,547,717.9,547z"/>
	</g>
	<defs>
		<filter id="Adobe_OpacityMaskFilter" filterUnits="userSpaceOnUse" x="-117.3" y="480.5" width="1662.4" height="593.2">
			<feColorMatrix  type="matrix" values="1 0 0 0 0  0 1 0 0 0  0 0 1 0 0  0 0 0 1 0"/>
		</filter>
	</defs>
	<mask maskUnits="userSpaceOnUse" x="-117.3" y="480.5" width="1662.4" height="593.2" id="SVGID_1_">
		<g class="st2">
			<rect x="0" class="st3" width="1400" height="980"/>
		</g>
	</mask>
	<g class="st4">
		<path class="st5" d="M1398.8,542.1c-7.6-1.5-15.5-2.3-23.6-2.3c-52.4,0-96.9,34-112.6,81.1c-11.3-12.2-27.5-19.8-45.4-19.8
			c-23.8,0-44.5,13.4-54.9,33.1c0,0-0.6,3-1.7,8.1c-0.9,0.3-1.7,1.4-2.3,3.3c-6.9-1.7-14-2.6-21.4-2.6c-25,0-47.5,10.3-63.6,27
			c-8.5-25.7-32.7-44.3-61.3-44.3c-33.7,0-61.4,25.9-64.3,58.9c-3.5-0.8-7.2-1.3-11-1.3c-6.8,0-13.3,1.4-19.2,4
			c-22.2,2.8-40.8,16.9-49.9,36.4c-6-2.5-12.6-3.9-19.6-3.9c-26.1,0-47.6,19.5-50.8,44.7c-7.6-3.2-15.9-5-24.7-5
			c-23.3,0-43.6,12.7-54.4,31.5c-5.1-2.8-10.8-4.3-17-4.3c-7.4,0-14.3,2.3-20,6.1c-0.9-49.1-40.9-88.6-90.2-88.6
			c-25.9,0-49.2,10.9-65.6,28.3c-3.6-42.4-39.1-75.7-82.4-75.7c-20.4,0-39.1,7.4-53.5,19.7c-15.4-35.3-50.7-60-91.7-60
			c-22.4,0-43.1,7.4-59.8,19.8c-10.4-19.7-31.1-33.1-54.9-33.1c-17.9,0-34.1,7.6-45.4,19.8c-15.7-47.1-60.2-81.1-112.6-81.1
			c-8.1,0-15.9,0.8-23.6,2.3v287.3h489.7l0.2-25c3.3-2.4,6.5-5.1,9.4-8c2.2,47.9,41.7,86.1,90.2,86.1c33.8,0,63.2-18.5,78.7-46
			c5.9,11.4,17.8,19.1,31.5,19.1c6.2,0,12-1.6,17-4.3c10.8,18.8,31.2,31.5,54.4,31.5c34.7,0,62.8-28.1,62.8-62.8c0-0.5,0-1.1,0-1.6
			c4.1,1,8.3,1.6,12.7,1.6c16.5,0,31.1-7.8,40.5-19.8c6.4,4.5,13.6,7.9,21.4,9.9l-0.2,21.4H1234c0,0-0.5-1.6-1.3-4.4h166.1V542.1z"
			/>
		<path class="st3" d="M-95.9,620.3c0-44.5,36.1-80.6,80.6-80.6c38,0,69.9,26.4,78.4,61.8c32.9,10.1,56.8,40.8,56.8,77
			c0,44.5-36.1,80.6-80.6,80.6c-38,0-69.9-26.4-78.4-61.8C-72,687.2-95.9,656.5-95.9,620.3z"/>
		<path class="st3" d="M949.7,1016.5c-19-2.5-38-5-56.9-7.6c-8.4-1.2-16.9-2.4-25.3-3.7c-15.2-2.4-25.1-6.6-40.1-13.6
			c-18.4-8.6-31.8-24.9-43-41.2c-6.9-10.1-10.9-22.2-14.7-33.8c-2.7-8.5-5.3-16.9-8.3-25.3c-1.5-3.1-3.1-6.1-4.8-9.2
			c-4.2,3.1-8.5,6.1-12.9,8.8c-44.2,27.1-104.3,9.9-130-34.1c-10.5-18-14.8-39.2-12.2-59.8c-16.6-13.1-37.7-21-60.5-21
			c-32.3,0-61,15.7-78.8,39.9c-10.7-6.8-23.3-10.7-36.9-10.7c-5.4,0-10.6,0.6-15.7,1.8c-4.1-47.1-43.7-84.1-91.9-84.1
			c-19.8,0-38.1,6.2-53.1,16.8c-11.8-27.3-44.8-47-83.7-47c-35.3,0-65.8,16.2-79.9,39.7c-19.1-37.7-56.4-64.6-100.4-68.9v356.7
			h975.1C966.8,1019,958.3,1017.7,949.7,1016.5z"/>
		<path class="st3" d="M1095.3,746.1c-18.2,15.3-32,35.6-39.3,58.8c-9.8-2.4-20-3.7-30.6-3.7c-35.7,0-67.9,14.8-90.9,38.6
			c-12.1-36.8-46.8-63.3-87.6-63.3c-48.2,0-87.8,37-91.9,84.1c-5-1.2-10.3-1.8-15.7-1.8c-13.6,0-26.2,4-36.9,10.7
			c-17.8-24.2-46.5-39.9-78.8-39.9c-25.7,0-49.1,9.9-66.6,26.2c-21.2-52.4-72.5-89.3-132.5-89.3c-32,0-61.6,10.5-85.4,28.3
			c-14.9-28.1-44.4-47.2-78.4-47.2c-25.6,0-48.7,10.9-64.9,28.2c-22.5-67.3-86-115.8-160.9-115.8c-11.5,0-22.8,1.2-33.6,3.3v410.4
			h1162.9v-261C1131.6,803.7,1105.3,778.2,1095.3,746.1z"/>
		<path class="st3" d="M1481.6,621.5c0-44.5-36.1-80.6-80.6-80.6c-38,0-69.9,26.4-78.4,61.8c-32.9,10.1-56.8,40.8-56.8,77
			c0,44.5,36.1,80.6,80.6,80.6c38,0,69.9-26.4,78.4-61.8C1457.6,688.3,1481.6,657.7,1481.6,621.5z"/>
		<path class="st3" d="M1290.4,745.2c-9.8-2.4-20-3.7-30.6-3.7c-35.7,0-67.9,14.8-90.9,38.6c-12.1-36.8-46.8-63.3-87.6-63.3
			c-48.2,0-87.8,37-91.9,84.1c-5-1.2-10.3-1.8-15.7-1.8c-13.6,0-26.2,4-36.9,10.7c-5.4-7.4-11.9-13.9-19.1-19.5
			c0.3,3.1,0.5,6.2,0.5,9.4c0,51.8-43.2,95.1-95.1,95.1c-26.5,0-50.8-11.3-68.2-29.4c-16.2,12.9-36.7,20.7-58.7,20.7
			c-1.6,0-3.2,0-4.7-0.1c1.5,20.6,3,41.2,2.7,61.9c-0.3,21.1-2.9,42.2-6.6,62.9c-0.2,1.1-0.4,2.2-0.6,3.3h711.5V657.4
			C1347.5,662.4,1305.3,697.8,1290.4,745.2z"/>
		<path class="st3" d="M1354.9,657.4c-74.9,0-138.4,48.5-160.9,115.8c-16.2-17.4-39.3-28.2-64.9-28.2c-34,0-63.5,19.1-78.4,47.2
			c-23.8-17.8-53.4-28.3-85.4-28.3c-60,0-111.3,36.9-132.5,89.3C815.4,836.9,792,827,766.3,827c-32.3,0-61,15.7-78.8,39.9
			c-10.7-6.8-23.3-10.7-36.9-10.7c-5.4,0-10.7,0.6-15.7,1.8c-4.1-47.1-43.7-84.1-91.9-84.1c-35.1,0-65.7,19.7-81.3,48.6
			c1.9,20.5-2.6,41.5-13.1,59.4c-8.8,14.9-20.6,26.7-35.5,35.5c-7.9,3.3-15.8,6.7-23.7,10c-12.5,4.9-27.5,5.7-40.1,7
			c-4.9,0.5-9.9,0.6-14.8,0.1c-13-1.4-26.6-2.4-39.4-5.9c-12.4-3.3-24.4-9.1-36-14.2c-11.9-5.2-23.1-13.8-33.4-22.3v179h1162.9
			V660.7C1377.7,658.5,1366.4,657.4,1354.9,657.4z"/>
		<g>
			<path class="st6" d="M908.7,995.7h253.2c-0.2-1.5-0.4-2.9-0.6-4.4h238.7V795.7l138.9-64.3l6.3-211l-42,43
				c-0.6-31.4-26.1-56.6-57.6-56.6c-29.2,0-53.4,21.8-57.1,50c-28.1,3.8-49.8,27.9-49.8,57.1c0,0.4,0,0.9,0,1.3
				c-30,6-52.5,32.5-52.5,64.2c0,18,7.2,34.2,18.9,46.1c-19.1,14.3-33.7,34.2-41.4,57.3c-11.3-12.2-27.5-19.8-45.4-19.8
				c-23.8,0-44.5,13.4-54.9,33.1c-16.7-12.5-37.4-19.8-59.8-19.8c-42,0-77.9,25.9-92.7,62.5c-12.2-11.4-28.6-18.3-46.6-18.3
				c-22.6,0-42.7,11-55.2,27.9"/>
		</g>
		<path class="st6" d="M489.8,848.3c-7.5-4.8-16.3-7.5-25.8-7.5c-3.8,0-7.5,0.4-11,1.3c-2.9-33-30.6-58.9-64.3-58.9
			c-14.2,0-27.3,4.6-38,12.4c-15.3-9.5-33.3-15-52.6-15c-21.3,0-41.1,6.7-57.3,18c0-0.1-0.1-0.2-0.1-0.4c-0.2,0.3-0.4,0.5-0.5,0.8
			c-0.6,0.4-1.2,0.9-1.8,1.3c-10.4-19.7-31.1-33.1-54.9-33.1c-17.9,0-34.1,7.6-45.4,19.8c-9-27.1-27.6-49.8-51.6-64.2
			c10.3-11.6,16.6-26.8,16.6-43.6c0-31.7-22.6-58.2-52.5-64.2c0-0.4,0-0.9,0-1.3c0-24-14.7-44.6-35.6-53.3
			c-5.7-25.9-28.7-45.2-56.3-45.2c-16.6,0-31.5,7-42,18.2l-33.8-53.1l10.5,264.4l99.6,86.9l-7.8-13.7v177.7h504.4"/>
		<path class="st6" d="M954.8,816.2c-46.7,0-84.5,37.9-84.5,84.5c0,2.7,0.1,5.3,0.4,7.9c-15.5-16.9-37.7-27.6-62.5-27.6
			c-31.7,0-59.3,17.5-73.8,43.3c-7.8-9.7-19.9-16-33.3-16c-15.2,0-28.6,7.9-36.2,19.9c-7.2-39.4-41.7-69.3-83.1-69.3
			c-0.2,0-0.3,0-0.5,0c-3.2-20.5-20.9-36.2-42.3-36.2c-18.3,0-33.8,11.4-40,27.5c-11-5.3-23.3-8.2-36.4-8.2
			c-46.7,0-84.5,37.9-84.5,84.5c0,46.7,37.9,84.5,84.5,84.5c19.3,0,37-6.5,51.2-17.3c15.4,20.8,40.1,34.2,67.9,34.2
			c37.7,0,102.1-34,119.3-34c9.4,0,67.4,56.1,107.1,56.1c46.7,0,121.9-64.9,146.6-64.9c46.7,0,84.5-37.9,84.5-84.5
			C1039.3,854,1001.5,816.2,954.8,816.2z"/>
	</g>
</g>
<g id="Designed_by_Vecteezy">
</g>
</svg>
