<?xml version="1.0" encoding="utf-8"?>
<!-- Generator: Adobe Illustrator 25.0.1, SVG Export Plug-In . SVG Version: 6.00 Build 0)  -->
<svg version="1.1" id="Layer_1" xmlns="http://www.w3.org/2000/svg" xmlns:xlink="http://www.w3.org/1999/xlink" x="0px" y="0px"
	 viewBox="0 0 327.5 200" style="enable-background:new 0 0 327.5 200;" xml:space="preserve">
<style type="text/css">
	.st0{fill:#2D526B;}
	.st1{fill:#35BDAF;}
	.st2{opacity:0.4;}
</style>
<g>
	<path class="st0" d="M323.4,79.5c-1.4-1.4-2.9-2.9-4.3-4.3l-3.6-3.6c-0.8-0.8-1.5-1.5-2.3-2.3c0.8,0.1,1.6,0.1,2.4,0.2
		c0.9,0.1,1.7,0.2,2.6,0.2l0.5,0c0.4,0,0.7,0.1,0.9,0.1c0.2,0,0.9,0,1.3-0.5c0.5-0.5,0.5-1.1,0.4-1.7c0-0.2,0-0.4,0-0.7
		c0-1.7,0-3.4,0-5c0-1.8,0-3.6,0-5.4c0-1-0.3-1.8-1-2.5c-3.2-3.2-6.4-6.3-9.5-9.5c2.2,0.2,4.4,0.4,6.6,0.6c1,0.1,2.1,0.2,3.1,0.3
		l2,0.2c0.8,0.1,1.2-0.2,1.5-0.5c0.3-0.3,0.5-0.8,0.5-1.4c0-0.7,0-1.5,0-2.2l0-1l0-2.2c0-2,0-4,0-6c0-1-0.3-1.9-1-2.6
		c-3-2.9-6-5.9-8.9-8.9c-1.4-1.4-2.8-2.8-4.2-4.3c-1-1-2.1-2.1-3.1-3.1c-0.6-0.7-1.3-1.3-1.9-1.9c-1-1-2.1-2.1-3.1-3.1
		c-0.8-0.8-1.8-1.3-3.1-1.4c-1.4-0.1-2.9-0.3-4.3-0.5c-0.8-0.1-1.6-0.2-2.3-0.3c-1.2-0.1-2.4-0.2-3.6-0.4l-2-0.2
		c-1.7-0.2-3.3-0.3-5-0.5c-1.4-0.1-2.7-0.2-4.1-0.3L272,4.6c0,0-0.1,0-0.1,0c-0.2,0-0.4,0-0.6,0c-1.7,0-1.7,1.6-1.7,2.1
		c0,1.5,0,3.1,0,4.6v0.4c-1-1-2.1-2.1-3.1-3.1c-2.6-2.7-5.9-4.3-9.9-4.9c-1.6-0.2-3.3-0.3-4.8-0.4l-2.1-0.1
		c-3.5-0.2-7.2-0.3-10.8-0.4c-0.1,0-0.2,0-0.3-0.1c-0.2,0-0.5-0.1-0.8-0.1c-0.7,0-1.2,0.3-1.5,0.6c-0.6,0.7-0.5,1.5-0.5,2.1
		c0,0.1,0,0.2,0,0.4c0,1.4,0,2.7,0,4.1v0.2c-1.1-1.2-2.3-2.3-3.4-3.5c-2.2-2.3-5-3.7-8.4-4.5c-0.4-0.1-0.7-0.1-1.1-0.1
		c-0.4,0-0.8-0.1-1.1-0.2c-0.2-0.1-0.4-0.1-0.5-0.1H218c-0.2,0-0.4,0.1-0.6,0.2C217.2,2,216.9,2,216.5,2c-0.3,0-0.6,0-0.9,0.1
		c-5.6,1.1-9.6,4.2-11.8,9.4l-1.2-1.2c-1.2-1.2-2.3-2.3-3.5-3.5c-2.6-2.6-5.8-4.1-9.9-4.5c-2.9-0.3-5.7,0-8.2,0.8
		c-5.4,1.6-9,5.4-10.7,11.1c-0.7,2.3-1.1,4.7-1.1,7.4c0,1.2,0,2.4,0,3.5v0.3c-0.1-0.1-0.2-0.2-0.3-0.3l-1.4-1.4
		c-1.4-1.4-2.8-2.8-4.2-4.3c-0.5-0.5-1.2-1.1-2.6-0.9c-0.8,0.1-1.6,0.2-2.4,0.2c-0.5,0-0.9,0.1-1.4,0.1c-0.7,0.1-1.5,0.1-2.2,0.2
		c-1.2,0.1-2.4,0.2-3.6,0.3c-1.2,0.1-2,0.8-2.2,2c-0.2,1.1-0.5,2.3-0.8,3.4l0,0c-1.2-1.1-2.3-2.3-3.5-3.5c-0.5-0.5-1.3-1.2-2.7-1
		c-1.7,0.2-3.4,0.4-5.1,0.6c-0.7,0.1-1.5,0.1-2.2,0.2l-1.3,0.1c-1.7,0.2-3.3,0.3-5,0.5c-1.9,0.2-3.9,0.5-5.8,0.7l-1.3,0.2
		c-0.3,0-0.5,0.1-0.8,0.1c-0.4,0.1-0.9,0.1-1.3,0.2c-1.2,0.1-1.9,0.6-2,1.7l0,0.2c-0.1,0.8-0.2,1.6-0.3,2.4c0,0.2-0.1,0.4-0.1,0.7
		c-0.3-0.3-0.7-0.7-1-1l-1.1-1.1c-0.1-0.1-0.2-0.2-0.3-0.3c-0.2-0.2-0.4-0.3-0.5-0.5c-0.7-0.8-1.6-1.1-2.7-0.9
		c-2.9,0.4-5.8,0.9-8.7,1.3c-0.3,0-0.6,0.1-0.9,0.1c-0.4,0.1-0.9,0.1-1.3,0.2c0,0,0,0-0.1-0.1c-1.7-1.8-3.5-3.5-5.3-5.3L92.6,18
		c-1.5-1.5-2.9-2.9-4.4-4.4c-0.6-0.6-1.4-0.8-2.4-0.7c-1.2,0.2-2.4,0.4-3.6,0.6c-0.9,0.1-1.7,0.3-2.6,0.5c-1.8,0.3-3.6,0.6-5.4,0.9
		c-0.9,0.1-2.1,0.5-2.5,2.3c-0.4,1.7-0.9,3.4-1.4,5.1c-0.1,0.5-0.3,0.9-0.4,1.4c-1.1-1.1-2.2-2.2-3.3-3.3l-0.9-0.9
		c-0.5-0.5-1-1-1.5-1.5c-0.4-0.5-0.9-0.7-1.5-0.7c-0.2,0-0.4,0-0.6,0.1c-4.2,0.8-8.5,1.7-12.7,2.6l-0.3,0.1
		c-0.3,0.1-0.5,0.2-0.8,0.2c-0.2,0.1-0.4,0.2-0.6,0.2c0,0,0,0,0,0c-0.6,0-1.2,0.1-1.6,0.2c-0.2,0-0.3,0.1-0.5,0.1L34.8,23
		c-9.1,2.1-18.3,4.4-27.4,6.8c-0.6,0.2-1.3,0.3-1.9,0.5l-0.9,0.2c-0.5,0.1-0.9,0.6-0.9,1.2v72.4c0,0.6,0.4,1.1,1,1.2
		c0,0,0.1,0.1,0.1,0.1c0.7,0.7,1.4,1.4,2,2.1c0.7,0.7,1.3,1.4,2,2c0.7,0.7,1.4,1.4,2.1,2.1c0.7,0.7,1.4,1.4,2.1,2.1
		c1,0.9,1.9,1.9,2.8,2.9l1.6,1.6c0.4,0.4,0.8,0.8,1.2,1.2c0.1,0.1,0.3,0.3,0.3,0.7l0.5,3.7c0.2,1.8,0.5,3.7,0.8,5.5
		c0.2,1.7,0.5,3.4,0.7,5.1c0.2,1.4,0.4,2.7,0.6,4.1c0.2,1.4,0.4,2.7,0.6,4.1c0.2,1.2,0.3,2.4,0.5,3.7c0.2,1.4,0.4,2.9,0.6,4.3
		l2.7,19.2c0,0.2,0.1,0.4,0.1,0.6c0.1,0.4,0.1,0.8,0.1,1.1c0,1.3,0.7,2.1,1.2,2.7c3,3,6,6,9,9L41,188c2.6,2.6,5.3,5.3,7.9,7.9
		c0.5,0.5,1.1,0.8,1.8,0.8c0.3,0,0.6,0,0.9-0.1c3.9-1.2,7.9-2.4,11.8-3.5l4.2-1.2c1.5-0.4,1.8-1,1.9-2.3c0.2-1.9,0.5-3.8,0.8-5.7
		l0.3-2.3c0,0,0.1,0.1,0.1,0.1c0.5,0.5,1,1,1.5,1.4l0.6,0.6c1.5,1.5,3,3,4.5,4.5c0.4,0.4,0.9,0.6,1.4,0.6c0.3,0,0.6-0.1,0.7-0.1
		l0.1,0c1-0.3,1.9-0.5,2.9-0.8c0.7-0.2,1.4-0.4,2.1-0.6c1.3-0.3,2.6-0.7,3.9-1l3.4-0.9c1.5-0.4,1.9-0.9,1.9-2.4l0-4.1
		c0-1.7,0-3.5,0-5.2c1.5,1.4,2.9,2.9,4.4,4.4c2.4,2.4,5.3,3.7,8.7,3.7l0.3,0c5.8,0,10.9-2,15.1-5.8c1-0.9,2-2.1,2.8-3.4
		c0.7,0.7,1.3,1.3,1.9,1.9c0.2,0.2,0.5,0.5,0.7,0.7c0.2,0.2,0.4,0.4,0.6,0.6c0.6,0.7,1.4,0.9,2.3,0.7c1.5-0.3,3-0.6,4.5-0.9l2.5-0.5
		c4.6-0.9,9.2-1.8,13.7-2.5l3.1-0.5c3.5-0.6,7-1.2,10.4-1.8c1.2-0.2,2.5-0.4,3.7-0.6c0.7-0.1,1.4-0.2,2.1-0.3
		c1.6-0.3,2.1-0.7,2.3-2.3c0.3-2.1,0.5-4.1,0.8-6.2l0.1-0.6l0.1,0.1c2.1,2.1,4.2,4.2,6.2,6.3c0.8,0.8,1.6,1.1,2.7,0.9
		c2.2-0.3,4.4-0.6,6.7-0.9c1.3-0.2,2.6-0.3,3.9-0.5l1.5-0.2c0,0,0.1,0,0.1,0c0.1,0,0.3,0,0.4,0c0.7-0.1,1-0.5,1.2-0.7
		c0.1-0.2,0.3-0.4,0.3-0.8c0.1,0.1,0.1,0.2,0.2,0.2c0.4,0.4,1,1,2.2,0.8c2.2-0.3,4.5-0.5,6.6-0.7l1.6-0.2c0.6-0.1,1.3-0.1,1.9-0.2
		c0.7-0.1,1.5-0.1,2.2-0.2c1.4-0.2,2-0.8,2-2.2l0-3.8c0-1.2,0-2.4,0-3.6c1.7,1.7,3.4,3.3,5,5l2.3,2.3c0.1,0.1,0.2,0.2,0.3,0.3
		c0.1,0.1,0.2,0.1,0.2,0.2c0.5,0.6,1.2,0.9,2.1,0.8c0.7-0.1,1.3-0.1,2-0.1c0.7,0,1.3-0.1,2-0.1c0.6,0,1.1-0.1,1.7-0.2
		c0.7-0.1,1.3-0.1,2-0.2c0.6,0,1.2-0.1,1.8-0.1c0.8,0,1.6-0.1,2.4-0.2c1.4-0.1,2.7-0.2,2.6-2.3c0-0.1,0-0.3,0-0.5c0-1.5,0-3,0-4.5
		c0-0.6,0-1.2,0-1.7c0.8,0.8,1.6,1.6,2.4,2.4l1.7,1.8c2,2,4.5,3.4,7.4,4c4.3,0.9,8.6,0.6,12.6-1c2.3-0.9,4.3-2.3,6-4.2
		c0.8,0.8,1.5,1.5,2.3,2.3c0.1,0.1,0.3,0.3,0.4,0.5c0.4,0.5,0.9,1,1.6,1.4c0.6,0.3,1.4,0.4,2.3,0.3c0.2,0,0.4,0,0.6,0
		c2.5,0,4.9,0,7.4,0l2.4,0c0.2,0,0.4,0,0.6,0c0.9,0,1.5-0.7,1.6-1.6c0-0.2,0-0.5,0-0.7v-3l0.1,0.1c1.4,1.4,2.9,2.9,4.3,4.3
		c0.6,0.6,1.3,0.9,2.2,0.9c3.4,0,6.8,0,10.1,0.1c0.6,0,1.1,0,1.7,0.1l0.3,0c0.8,0.1,1.2-0.3,1.5-0.5c0.2-0.2,0.5-0.7,0.4-1.4
		c0-0.1,0-0.2,0-0.4l0-9.6c0-17.2,0-34.3,0-51.5c0-0.8-0.1-1.9-1.1-2.8c2.5,0.1,5,0.3,7.4,0.5c1.4,0.1,2.8,0.2,4.3,0.3
		c0.8,0.1,1.6,0.1,2.4,0.2c0.3,0,0.6,0.1,0.9,0.1l0.5,0.1c0.7,0.1,1.2-0.2,1.4-0.5c0.2-0.2,0.5-0.6,0.5-1.2c0-0.1,0-0.2,0-0.3l0-0.3
		l0-2.9c0-2.8,0-5.5,0-8.3C324.5,81,324.1,80.2,323.4,79.5z M304.4,93.5l0.5-0.5c0,0,0.1,0,0.1,0L304.4,93.5z"/>
	<g>
		<path class="st1" d="M51.6,79.5c-3.9,1-7.8,2-11.7,3.1c0-6.1,0-12.1,0-18.2c5-1.3,10-2.5,14.9-3.7c0-3.8,0-7.6,0-11.4
			c-8.6,2-17.1,4.2-25.7,6.5c0,23,0,46,0,69c3.6-1.1,7.1-2.1,10.7-3.2c0-9.2,0-18.4,0-27.5c3.9-1.1,7.8-2.1,11.7-3.1
			C51.6,87.1,51.6,83.3,51.6,79.5z"/>
		<path class="st1" d="M69.1,46c-3.6,0.8-7.2,1.6-10.8,2.4c0,22.7,0,45.4,0,68c3.6-0.9,7.2-1.9,10.8-2.7
			C69.1,91.1,69.1,68.6,69.1,46z"/>
		<path class="st1" d="M82.8,110.4c2.3-8.4,4.6-16.9,6.9-25.3c2.3,7.4,4.6,14.8,6.9,22.2c3.8-0.8,7.6-1.6,11.4-2.3
			c-3.5-10.8-7-21.5-10.5-32.2c3.3-11.4,6.5-22.8,9.8-34.2c-3.4,0.6-6.8,1.2-10.2,1.8c-2.1,7.7-4.3,15.4-6.4,23.1
			c-2.1-6.9-4.2-13.8-6.3-20.7c-3.7,0.7-7.5,1.5-11.2,2.3c3.3,10.2,6.5,20.4,9.8,30.7c-3.5,12.3-7,24.7-10.5,37
			C76,112,79.4,111.2,82.8,110.4z"/>
		<path class="st1" d="M130,73.8c1.4,8.8,2.7,17.7,4.1,26.5c2.6-0.4,5.2-0.8,7.8-1.2c1.2-9.1,2.5-18.2,3.7-27.2c0,8.9,0,17.8,0,26.7
			c2.7-0.4,5.3-0.8,8-1.1c0-16.8,0-33.6,0-50.5c-3.7,0.4-7.4,0.9-11.1,1.3c-1.4,10.6-2.9,21.2-4.3,31.8c-1.6-10.2-3.1-20.4-4.7-30.6
			c-3.7,0.5-7.4,1.1-11.1,1.6c0,17.1,0,34.2,0,51.2c2.5-0.4,5-0.9,7.5-1.3C130,91.9,130,82.9,130,73.8z"/>
		<path class="st1" d="M164.8,95.9c2.8-0.3,5.6-0.7,8.4-1c0-5.6,0-11.1,0-16.7c3.1-11.4,6.1-22.7,9.2-34c-2.7,0.2-5.4,0.4-8.1,0.7
			c-1.6,6.9-3.3,13.7-4.9,20.6c-1.6-6.6-3.3-13.1-4.9-19.7c-2.9,0.3-5.9,0.6-8.8,0.9c3.1,10.8,6.1,21.6,9.2,32.5
			C164.8,84.7,164.8,90.3,164.8,95.9z"/>
		<path class="st1" d="M209.2,92.4c9.3-0.6,14.5-6.6,14.5-17.1c0-3,0-6,0-9c-3.4,0.1-6.9,0.3-10.3,0.4c0,3.2,0,6.4,0,9.6
			c0,4.5-2,5.2-3.9,5.3c-1.9,0.1-3.9-0.4-3.9-4.9c0-11.1,0-22.2,0-33.3c0-4.6,2.1-5.3,3.9-5.4c1.8-0.1,3.9,0.4,3.9,5
			c0,2.5,0,5,0,7.5c3.4-0.1,6.9-0.3,10.3-0.4c0-2.3,0-4.5,0-6.8c0-10.5-5.1-16.2-14.5-15.9c-9.3,0.3-14.5,6.5-14.5,17.1
			c0,10.7,0,21.5,0,32.2C194.7,87.7,199.9,93,209.2,92.4z"/>
		<path class="st1" d="M242.3,90.9c9.3-0.2,14.7-6,14.7-16.2c0-10.4,0-20.8,0-31.2c0-10.1-5.4-16.1-14.7-16.2
			c-9.3-0.1-14.7,5.9-14.7,16.2c0,10.6,0,21.1,0,31.7C227.6,85.5,233,91.1,242.3,90.9z M246.2,75.3c0,4.5-2.1,5.1-3.9,5.2
			c-1.8,0-3.9-0.5-3.9-5c0-10.9,0-21.8,0-32.7c0-4.5,2.1-5.1,3.9-5.1c1.8,0,3.9,0.6,3.9,5.1C246.2,53.6,246.2,64.5,246.2,75.3z"/>
		<path class="st1" d="M276.5,29c-5.1-0.3-10.2-0.5-15.2-0.6c0,20.5,0,41.1,0,61.6c5.1,0,10.2,0.1,15.2,0.2
			c9.4,0.2,14.4-4.9,14.4-15c0-9.9,0-19.9,0-29.8C290.9,35.2,285.9,29.5,276.5,29z M272,39c1.4,0.1,2.9,0.1,4.3,0.2
			c1.9,0.1,3.8,0.8,3.8,5.1c0,10.3,0,20.6,0,30.8c0,4.3-1.9,4.9-3.8,4.8c-1.4,0-2.9-0.1-4.3-0.1C272,66.2,272,52.6,272,39z"/>
		<path class="st1" d="M321.4,42.6c0-3.3,0-6.6,0-9.9c-8.8-1-17.6-1.8-26.4-2.5c0,20.2,0,40.4,0,60.5c8.8,0.4,17.6,0.9,26.4,1.6
			c0-3.3,0-6.6,0-9.9c-5.2-0.4-10.4-0.8-15.7-1.2c0-5.2,0-10.3,0-15.5c4.2,0.3,8.3,0.6,12.5,1c0-3.3,0-6.6,0-10
			c-4.1-0.4-8.3-0.7-12.5-1.1c0-4.9,0-9.8,0-14.6C311,41.5,316.2,42,321.4,42.6z"/>
		<path class="st1" d="M59.4,171.3c-2.1-15.6-4.2-31.1-6.2-46.7c-3.6,1-7.2,2-10.8,3c3.1,21.9,6.1,43.8,9.2,65.7c5-1.5,10-3,15-4.4
			c3.1-23.4,6.1-46.7,9.2-70.1c-3.3,0.8-6.7,1.6-10,2.5C63.6,138,61.5,154.7,59.4,171.3z"/>
		<path class="st1" d="M79.8,185.2c3.6-1,7.2-1.9,10.8-2.8c0-22.3,0-44.7,0-67c-3.6,0.8-7.2,1.6-10.8,2.5
			C79.8,140.3,79.8,162.8,79.8,185.2z"/>
		<path class="st1" d="M111.1,110.3c-9.3,1.8-14.7,9.3-14.7,20.3c0,11.3,0,22.5,0,33.8c0,11,5.3,15.9,14.7,13.8
			c9.3-2.1,14.7-9.4,14.7-20.2c0-11.1,0-22.2,0-33.3C125.8,113.8,120.5,108.5,111.1,110.3z M107.2,127.6c0-4.8,2.1-5.9,3.9-6.2
			c1.8-0.4,3.9-0.2,3.9,4.7c0,11.6,0,23.2,0,34.8c0,4.8-2.1,5.9-3.9,6.3c-1.8,0.4-3.9,0.3-3.9-4.6
			C107.2,150.9,107.2,139.3,107.2,127.6z"/>
		<path class="st1" d="M141.7,105.7c-3.6,0.6-7.2,1.2-10.8,1.8c0,21.9,0,43.8,0,65.7c8.6-1.7,17.2-3.3,25.9-4.8c0-3.6,0-7.2,0-10.8
			c-5,0.8-10,1.7-15.1,2.6C141.7,142,141.7,123.8,141.7,105.7z"/>
		<path class="st1" d="M169.4,101.8c-3.2,22-6.4,44-9.6,66c3.4-0.6,6.7-1.1,10.1-1.6c0.5-3.9,1.1-7.7,1.6-11.6
			c3.3-0.5,6.5-0.9,9.8-1.4c0.5,3.7,1.1,7.4,1.6,11.1c3.6-0.5,7.3-1,10.9-1.4c-3.2-21-6.4-41.9-9.6-62.8
			C179.3,100.7,174.4,101.2,169.4,101.8z M179.8,143.2c-2.3,0.3-4.6,0.6-6.9,0.9c1.1-8.4,2.3-16.8,3.4-25.2
			C177.5,127.1,178.7,135.2,179.8,143.2z"/>
		<path class="st1" d="M190.4,110.2c3.2-0.3,6.4-0.6,9.6-0.9c0,17.7,0,35.3,0,53c3.6-0.4,7.2-0.8,10.8-1.2c0-17.6,0-35.1,0-52.7
			c3.2-0.2,6.4-0.4,9.6-0.6c0-3.5,0-7,0-10.5c-10,0.6-20,1.3-29.9,2.2C190.4,103.1,190.4,106.6,190.4,110.2z"/>
		<path class="st1" d="M224.3,159.9c3.6-0.3,7.2-0.6,10.8-0.8c0-20.8,0-41.6,0-62.4c-3.6,0.1-7.2,0.3-10.8,0.5
			C224.3,118,224.3,139,224.3,159.9z"/>
		<path class="st1" d="M254.9,95.5c-9.3,0.1-14.7,6.2-14.7,16.4c0,10.5,0,21,0,31.5c0,10.2,5.4,15.7,14.7,15.3
			c9.3-0.4,14.7-6.3,14.7-16.3c0-10.3,0-20.7,0-31C269.6,101.2,264.2,95.4,254.9,95.5z M251,110.9c0-4.5,2.1-5.1,3.9-5.1
			c1.8,0,3.9,0.5,3.9,5c0,10.8,0,21.6,0,32.4c0,4.5-2.1,5.1-3.9,5.2c-1.8,0.1-3.9-0.4-3.9-4.9C251,132.6,251,121.8,251,110.9z"/>
		<path class="st1" d="M295.3,126.5c-2.6-10-5.3-20-7.9-30c-4.3-0.1-8.6-0.2-12.9-0.3c0,20.4,0,40.8,0,61.2c3.3-0.1,6.6-0.1,9.9-0.1
			c0-12.4,0-24.9,0-37.3c3.3,12.4,6.6,24.9,9.9,37.4c3.6,0,7.2,0.1,10.8,0.2c0-20.1,0-40.1,0-60.2c-3.2-0.2-6.5-0.3-9.7-0.5
			C295.3,106.7,295.3,116.6,295.3,126.5z"/>
	</g>
	<g>
		<path class="st0" d="M54.8,49.2c0,3.8,0,7.6,0,11.4c-5,1.2-10,2.4-14.9,3.7c0,6.1,0,12.1,0,18.2c3.9-1.1,7.8-2.1,11.7-3.1
			c0,3.8,0,7.6,0,11.4c-3.9,1-7.8,2.1-11.7,3.1c0,9.2,0,18.4,0,27.5c-3.6,1-7.1,2.1-10.7,3.2c0-23,0-46,0-69
			C37.7,53.4,46.3,51.2,54.8,49.2 M56.5,47.1l-2,0.5c-8.5,2-17.2,4.2-25.7,6.5l-1.2,0.3v1.3v69v2.2l2.1-0.6
			c3.6-1.1,7.2-2.1,10.7-3.1l1.2-0.3v-1.2V95.2c3.5-0.9,7-1.9,10.5-2.8l1.2-0.3v-1.3V79.5v-2.1l-2.1,0.5c-3.2,0.8-6.4,1.7-9.7,2.5
			V65.6c4.5-1.2,9.1-2.3,13.7-3.4l1.3-0.3v-1.3V49.2V47.1L56.5,47.1z"/>
		<path class="st0" d="M69.1,46c0,22.6,0,45.1,0,67.7c-3.6,0.9-7.2,1.8-10.8,2.7c0-22.7,0-45.4,0-68C62,47.6,65.6,46.8,69.1,46
			 M70.8,43.9l-2,0.4c-3.5,0.8-7.2,1.6-10.8,2.4l-1.3,0.3v1.3v68v2.1l2.1-0.5c3.5-0.9,7.1-1.8,10.7-2.7l1.3-0.3v-1.3V46V43.9
			L70.8,43.9z"/>
		<path class="st0" d="M107.4,38.7c-3.3,11.4-6.6,22.8-9.8,34.2c3.5,10.7,7,21.4,10.5,32.2c-3.8,0.7-7.6,1.5-11.4,2.3
			c-2.3-7.4-4.6-14.8-6.9-22.2c-2.3,8.4-4.6,16.8-6.9,25.3c-3.4,0.8-6.9,1.6-10.3,2.4c3.5-12.4,7-24.7,10.5-37
			c-3.3-10.2-6.5-20.5-9.8-30.7c3.7-0.8,7.5-1.5,11.2-2.3c2.1,6.9,4.2,13.8,6.3,20.7c2.1-7.7,4.3-15.4,6.4-23.1
			C100.5,39.8,103.9,39.3,107.4,38.7 M109.7,36.6l-2.6,0.4c-3.4,0.6-6.9,1.2-10.2,1.8l-1,0.2l-0.3,1c-1.6,5.9-3.3,11.7-4.9,17.6
			c-1.5-5.1-3.1-10.2-4.6-15.3l-0.4-1.4l-1.5,0.3c-3.7,0.7-7.5,1.5-11.2,2.3l-1.8,0.4l0.6,1.7c3.2,10,6.4,20.1,9.7,30.2
			c-3.4,12.2-6.9,24.4-10.3,36.6l-0.8,2.7l2.8-0.7c3.4-0.8,6.9-1.7,10.3-2.4l1-0.2l0.3-1c1.8-6.6,3.6-13.2,5.4-19.8
			c1.7,5.6,3.5,11.2,5.2,16.8l0.4,1.4L97,109c3.8-0.8,7.6-1.6,11.4-2.3l1.8-0.4l-0.6-1.8c-3.4-10.6-6.9-21.2-10.3-31.7
			c3.2-11.2,6.5-22.5,9.7-33.7L109.7,36.6L109.7,36.6z"/>
		<path class="st0" d="M153.7,46.9c0,16.8,0,33.6,0,50.5c-2.7,0.4-5.3,0.8-8,1.1c0-8.9,0-17.8,0-26.7c-1.2,9.1-2.5,18.2-3.7,27.2
			c-2.6,0.4-5.2,0.8-7.8,1.2c-1.4-8.8-2.7-17.7-4.1-26.5c0,9.1,0,18.1,0,27.2c-2.5,0.4-5,0.9-7.5,1.3c0-17.1,0-34.2,0-51.2
			c3.7-0.6,7.4-1.1,11.1-1.6c1.6,10.2,3.1,20.4,4.7,30.6c1.4-10.6,2.9-21.2,4.3-31.8C146.3,47.8,150,47.3,153.7,46.9 M155.3,45
			l-1.8,0.2c-3.7,0.4-7.4,0.9-11.1,1.3l-1.3,0.2l-0.2,1.3c-0.9,6.8-1.8,13.6-2.8,20.4l-2.9-19.2l-0.2-1.6l-1.6,0.2
			c-3.7,0.5-7.4,1.1-11.1,1.6l-1.4,0.2v1.4v51.2v2l2-0.3c2.4-0.4,4.9-0.9,7.5-1.3l1.4-0.2V101v-5.6l0.7,4.4l0.1,0.8l0.3,1.7l1.7-0.3
			c2.6-0.4,5.2-0.8,7.8-1.2l1.2-0.2l0.2-1.2l0.4-3v2.2v1.9l1.9-0.3c2.7-0.4,5.4-0.8,8-1.1l1.4-0.2v-1.4V46.9V45L155.3,45z"/>
		<path class="st0" d="M182.4,44.2c-3.1,11.3-6.1,22.7-9.2,34c0,5.6,0,11.1,0,16.7c-2.8,0.3-5.6,0.6-8.4,1c0-5.6,0-11.2,0-16.8
			c-3.1-10.8-6.1-21.7-9.2-32.5c2.9-0.3,5.9-0.6,8.8-0.9c1.6,6.6,3.3,13.1,4.9,19.7c1.6-6.9,3.3-13.7,4.9-20.6
			C177,44.6,179.7,44.4,182.4,44.2 M184.6,42.3l-2.3,0.2c-2.6,0.2-5.4,0.4-8.2,0.7l-1.2,0.1l-0.3,1.2c-1.1,4.7-2.2,9.3-3.4,14
			c-1.1-4.4-2.2-8.7-3.3-13.1l-0.3-1.4l-1.4,0.1c-2.9,0.3-5.9,0.6-8.8,0.9l-1.9,0.2l0.5,1.9c3,10.7,6.1,21.5,9.1,32.2v16.5v1.9
			l1.9-0.2c2.7-0.3,5.6-0.7,8.4-1l1.5-0.2v-1.5V78.4c3-11.3,6.1-22.6,9.1-33.8L184.6,42.3L184.6,42.3z"/>
		<path class="st0" d="M209.9,27.7c8.9,0,13.7,5.7,13.7,15.9c0,2.3,0,4.5,0,6.8c-3.4,0.1-6.9,0.2-10.3,0.4c0-2.5,0-5,0-7.5
			c0-4.3-1.9-5-3.6-5c-0.1,0-0.2,0-0.3,0c-1.8,0.1-3.9,0.8-3.9,5.4c0,11.1,0,22.2,0,33.3c0,4.1,1.7,4.9,3.4,4.9c0.2,0,0.3,0,0.5,0
			c1.9-0.1,3.9-0.8,3.9-5.3c0-3.2,0-6.4,0-9.6c3.4-0.2,6.9-0.3,10.3-0.4c0,3,0,6,0,9c0,10.5-5.1,16.4-14.5,17.1
			c-0.5,0-1,0.1-1.4,0.1c-8.4,0-13-5.3-13-15.4c0-10.7,0-21.5,0-32.2c0-10.6,5.1-16.8,14.5-17.1C209.4,27.7,209.7,27.7,209.9,27.7
			 M209.9,26.1c-0.3,0-0.5,0-0.8,0c-10.2,0.4-16.1,7.2-16.1,18.8V77c0,10.8,5.3,17.1,14.7,17.1c0.5,0,1,0,1.6-0.1
			c10.2-0.7,16-7.5,16-18.7v-9v-1.7l-1.7,0.1c-3.3,0.1-6.8,0.3-10.3,0.4l-1.6,0.1v1.6v9.6c0,3.5-1.2,3.6-2.4,3.7c-0.1,0-0.2,0-0.4,0
			c-0.8,0-1.8,0-1.8-3.2V65.8c0-7.4,0-14.8,0-22.2c0-3.6,1.3-3.7,2.3-3.7c0.1,0,0.2,0,0.2,0c0.8,0,2,0,2,3.4v7.5v1.7l1.7-0.1
			c3.5-0.1,6.9-0.3,10.3-0.4l1.6,0v-1.6v-6.8C225.3,32.4,219.7,26.1,209.9,26.1L209.9,26.1z"/>
		<path class="st0" d="M242.2,27.3c0.1,0,0.1,0,0.2,0c9.3,0.1,14.7,6.1,14.7,16.2c0,10.4,0,20.8,0,31.2c0,10.1-5.4,16-14.7,16.2
			c-0.2,0-0.4,0-0.6,0c-9,0-14.1-5.6-14.1-15.7c0-10.6,0-21.1,0-31.7C227.6,33.3,232.9,27.3,242.2,27.3 M242.2,80.5
			c0.1,0,0.1,0,0.2,0c1.8,0,3.9-0.6,3.9-5.2c0-10.9,0-21.7,0-32.6c0-4.5-2.1-5.1-3.9-5.1c0,0,0,0,0,0c-1.8,0-3.9,0.6-3.9,5.1
			c0,10.9,0,21.8,0,32.7C238.4,79.9,240.4,80.5,242.2,80.5 M242.2,25.6c-5,0-9.2,1.7-12,4.8c-2.8,3.1-4.2,7.6-4.2,13v31.7
			c0,5.4,1.4,9.7,4.1,12.7c2.7,3,6.8,4.6,11.7,4.6c0.2,0,0.4,0,0.6,0c10.2-0.2,16.3-6.9,16.3-17.8V43.5c0-11.1-6.1-17.8-16.3-17.9
			L242.2,25.6L242.2,25.6z M242.2,78.8c-0.9,0-2.1,0-2.1-3.4V42.8c0-3.4,1.2-3.4,2.2-3.4c1.1,0,2.3,0,2.3,3.4v32.6
			c0,3.5-1.2,3.5-2.3,3.5L242.2,78.8L242.2,78.8z"/>
		<path class="st0" d="M261.2,28.3c5.1,0.2,10.2,0.4,15.2,0.6c9.4,0.5,14.4,6.2,14.4,16.3c0,9.9,0,19.9,0,29.8c0,9.9-4.8,15-13.9,15
			c-0.2,0-0.3,0-0.5,0c-5.1-0.1-10.2-0.2-15.2-0.2C261.2,69.4,261.2,48.9,261.2,28.3 M276.5,79.9c1.8,0,3.6-0.6,3.6-4.8
			c0-10.3,0-20.6,0-30.8c0-4.3-1.9-5-3.8-5.1c-1.4-0.1-2.9-0.1-4.3-0.2c0,13.6,0,27.2,0,40.8c1.4,0,2.9,0.1,4.3,0.1
			C276.4,79.9,276.5,79.9,276.5,79.9 M259.6,26.6v1.7V90v1.7l1.7,0c5.1,0,10.2,0.1,15.2,0.2c0.2,0,0.4,0,0.6,0
			c10,0,15.5-5.9,15.5-16.7V45.3c0-11-5.7-17.4-16-18c-5.1-0.3-10.2-0.5-15.3-0.6L259.6,26.6L259.6,26.6z M273.7,78.2V40.7
			c0.9,0,1.7,0.1,2.6,0.1c1.1,0,2.2,0.1,2.2,3.4v30.8c0,3.2-1,3.2-1.9,3.2l-0.2,0C275.5,78.2,274.6,78.2,273.7,78.2L273.7,78.2z"/>
		<path class="st0" d="M295,30.2c8.8,0.7,17.6,1.5,26.4,2.5c0,3.3,0,6.6,0,9.9c-5.2-0.5-10.4-1-15.7-1.5c0,4.9,0,9.8,0,14.6
			c4.2,0.3,8.3,0.7,12.5,1.1c0,3.3,0,6.6,0,10c-4.1-0.4-8.3-0.7-12.5-1c0,5.2,0,10.3,0,15.5c5.2,0.3,10.4,0.7,15.7,1.2
			c0,3.3,0,6.6,0,9.9c-8.8-0.7-17.6-1.2-26.4-1.6C295,70.5,295,50.3,295,30.2 M293.4,28.4v1.8v60.5v1.6l1.6,0.1
			c8.7,0.4,17.6,0.9,26.3,1.6l1.8,0.1v-1.8v-9.9v-1.5l-1.5-0.1c-4.7-0.4-9.4-0.7-14.1-1.1V67.5c3.5,0.3,7.1,0.5,10.7,0.9l1.8,0.2
			v-1.8v-10v-1.5l-1.5-0.1c-3.6-0.3-7.3-0.7-10.9-0.9V42.9c4.6,0.4,9.2,0.8,13.8,1.3l1.8,0.2v-1.8v-9.9v-1.5l-1.5-0.2
			c-8.8-1-17.7-1.8-26.5-2.5L293.4,28.4L293.4,28.4z"/>
		<path class="st0" d="M75.7,118.8c-3.1,23.3-6.1,46.7-9.2,70.1c-5,1.4-10,2.9-15,4.4c-3.1-21.9-6.1-43.8-9.2-65.7
			c3.6-1,7.2-2,10.8-3c2.1,15.6,4.2,31.1,6.2,46.7c2.1-16.7,4.2-33.3,6.2-50C69,120.5,72.3,119.7,75.7,118.8 M77.6,116.7l-2.4,0.6
			c-3.3,0.8-6.7,1.6-10.1,2.5l-1.1,0.3l-0.1,1.1c-1.5,12.4-3.1,24.8-4.6,37.2l-4.5-34l-0.3-1.9l-1.8,0.5c-3.6,1-7.3,2-10.9,3
			l-1.4,0.4l0.2,1.4c3.1,21.9,6.1,43.8,9.2,65.7l0.3,1.9l1.9-0.6c5-1.5,10-3,14.9-4.4l1-0.3l0.1-1.1c3.1-23.4,6.1-46.7,9.2-70.1
			L77.6,116.7L77.6,116.7z"/>
		<path class="st0" d="M90.5,115.4c0,22.3,0,44.7,0,67c-3.6,0.9-7.2,1.9-10.8,2.8c0-22.5,0-44.9,0-67.4
			C83.4,117,86.9,116.2,90.5,115.4 M92.2,113.3l-2,0.5c-3.5,0.8-7.2,1.6-10.8,2.5l-1.3,0.3v1.3v67.4v2.2l2.1-0.6
			c3.5-1,7.1-1.9,10.8-2.8l1.2-0.3v-1.3v-67V113.3L92.2,113.3z"/>
		<path class="st0" d="M114.6,110c7.2,0,11.3,5.2,11.3,14.6c0,11.1,0,22.2,0,33.3c0,10.8-5.4,18.1-14.7,20.2c-1.4,0.3-2.8,0.5-4,0.5
			c-6.8,0-10.7-5-10.7-14.3c0-11.3,0-22.5,0-33.8c0-11,5.3-18.4,14.7-20.3C112.3,110.1,113.5,110,114.6,110 M110,167.2
			c0.4,0,0.8-0.1,1.1-0.1c1.8-0.4,3.9-1.5,3.9-6.3c0-11.6,0-23.2,0-34.8c0-3.9-1.4-4.8-2.8-4.8c-0.4,0-0.7,0-1.1,0.1
			c-1.8,0.4-3.9,1.4-3.9,6.2c0,11.6,0,23.3,0,34.9C107.2,166.4,108.5,167.2,110,167.2 M114.6,108.3c-1.2,0-2.4,0.1-3.8,0.4
			c-10,2-16,10.2-16,21.9v33.8c0,10.1,4.5,15.9,12.3,15.9c1.4,0,2.8-0.2,4.4-0.5c10.2-2.3,16-10.3,16-21.9v-33.3c0-5-1.1-9-3.3-11.9
			C122,109.8,118.6,108.3,114.6,108.3L114.6,108.3z M110,165.6c-0.4,0-0.5-0.1-0.6-0.2c-0.2-0.2-0.5-0.9-0.5-2.8v-34.9
			c0-4.1,1.6-4.4,2.6-4.6c0.3-0.1,0.5-0.1,0.7-0.1c0.4,0,0.5,0.1,0.7,0.3c0.2,0.2,0.5,0.9,0.5,2.9v34.8c0,4.1-1.6,4.5-2.6,4.7
			C110.4,165.5,110.2,165.6,110,165.6L110,165.6z"/>
		<path class="st0" d="M141.7,105.7c0,18.2,0,36.3,0,54.5c5-0.9,10-1.8,15.1-2.6c0,3.6,0,7.2,0,10.8c-8.6,1.5-17.2,3.1-25.9,4.8
			c0-21.9,0-43.8,0-65.7C134.5,106.8,138.1,106.2,141.7,105.7 M143.3,103.7l-1.9,0.3c-3.6,0.6-7.3,1.2-10.8,1.8l-1.4,0.2v1.4v65.7v2
			l2-0.4c8.6-1.7,17.2-3.3,25.8-4.8l1.4-0.2v-1.4v-10.8v-2l-1.9,0.3c-4.3,0.7-8.7,1.5-13.1,2.3v-52.5V103.7L143.3,103.7z"/>
		<path class="st0" d="M184.2,100.2c3.2,20.9,6.4,41.9,9.6,62.8c-3.6,0.4-7.3,0.9-10.9,1.4c-0.5-3.7-1.1-7.4-1.6-11.1
			c-3.3,0.4-6.5,0.9-9.8,1.4c-0.5,3.9-1.1,7.7-1.6,11.6c-3.4,0.5-6.7,1-10.1,1.6c3.2-22,6.4-44,9.6-66
			C174.4,101.2,179.3,100.7,184.2,100.2 M172.9,144.2c2.3-0.3,4.6-0.6,6.9-0.9c-1.1-8.1-2.3-16.2-3.4-24.2
			C175.2,127.4,174.1,135.8,172.9,144.2 M185.6,98.4l-1.6,0.2c-4.9,0.5-9.9,1.1-14.8,1.7l-1.3,0.2l-0.2,1.3c-3.2,22-6.4,44-9.6,66
			l-0.3,2.2l2.2-0.4c3.3-0.5,6.7-1.1,10.1-1.6l1.2-0.2l0.2-1.2l1.4-10.4c2.3-0.3,4.6-0.6,6.9-1l1.1,7.9l0.2,1.6l0.2,1.6l1.6-0.2
			c3.5-0.5,7.2-1,10.9-1.4l1.7-0.2l-0.3-1.7c-3.2-21-6.4-41.9-9.6-62.8L185.6,98.4L185.6,98.4z M174.9,142.2l1.5-11.2l1.5,10.8
			C176.9,141.9,175.9,142.1,174.9,142.2L174.9,142.2z"/>
		<path class="st0" d="M220.4,97.3c0,3.5,0,7,0,10.5c-3.2,0.2-6.4,0.4-9.6,0.6c0,17.6,0,35.1,0,52.7c-3.6,0.4-7.2,0.7-10.8,1.2
			c0-17.7,0-35.3,0-53c-3.2,0.3-6.4,0.6-9.6,0.9c0-3.5,0-7.1,0-10.6C200.4,98.6,210.4,97.9,220.4,97.3 M222,95.6l-1.8,0.1
			c-10,0.6-20.1,1.3-30,2.2l-1.5,0.1v1.5v10.6v1.8l1.8-0.2c2.5-0.2,5.1-0.5,7.7-0.7v51.1v1.9l1.8-0.2c3.6-0.4,7.2-0.8,10.8-1.1
			l1.5-0.1v-1.5V110c2.7-0.2,5.4-0.4,8-0.5l1.6-0.1v-1.6V97.3V95.6L222,95.6z"/>
		<path class="st0" d="M235.1,96.6c0,20.8,0,41.6,0,62.4c-3.6,0.2-7.2,0.5-10.8,0.8c0-20.9,0-41.9,0-62.8
			C227.9,96.9,231.5,96.8,235.1,96.6 M236.8,94.9l-1.7,0.1c-3.5,0.1-7.2,0.3-10.8,0.5l-1.6,0.1v1.6v62.8v1.8l1.8-0.1
			c3.6-0.3,7.2-0.6,10.8-0.8l1.5-0.1v-1.5V96.6V94.9L236.8,94.9z"/>
		<path class="st0" d="M255.1,95.5c9.2,0,14.4,5.8,14.5,15.8c0,10.3,0,20.7,0,31c0,10.1-5.3,15.9-14.7,16.3c-0.3,0-0.6,0-1,0
			c-8.7,0-13.7-5.5-13.7-15.3c0-10.5,0-21,0-31.5c0-10.2,5.4-16.3,14.7-16.4C255,95.5,255,95.5,255.1,95.5 M254.6,148.4
			c0.1,0,0.2,0,0.3,0c1.8-0.1,3.9-0.7,3.9-5.2c0-10.8,0-21.6,0-32.4c0-4.4-2-5-3.8-5c0,0-0.1,0-0.1,0c-1.8,0-3.9,0.6-3.9,5.1
			c0,10.8,0,21.7,0,32.5C251,147.7,252.9,148.4,254.6,148.4 M255.1,93.8l-0.2,0c-10.2,0.1-16.3,6.9-16.3,18v31.5
			c0,10.8,5.6,17,15.4,17c0.3,0,0.7,0,1,0c10.3-0.4,16.3-7,16.3-18v-31C271.2,100.4,265.2,93.8,255.1,93.8L255.1,93.8z M254.6,146.7
			c-0.8,0-1.1-0.2-1.3-0.4c-0.3-0.3-0.7-1-0.7-2.9v-32.5c0-3.5,1.3-3.5,2.3-3.5l0.1,0c0.9,0,1.2,0.2,1.4,0.4c0.5,0.5,0.7,1.5,0.7,3
			v32.4c0,3.4-1.2,3.5-2.3,3.5C254.8,146.7,254.7,146.7,254.6,146.7L254.6,146.7z"/>
		<path class="st0" d="M274.5,96.2c4.3,0.1,8.6,0.2,12.9,0.3c2.6,10,5.3,20,7.9,30c0-9.9,0-19.8,0-29.7c3.2,0.1,6.5,0.3,9.7,0.5
			c0,20.1,0,40.1,0,60.2c-3.6-0.1-7.2-0.1-10.8-0.2c-3.3-12.5-6.6-24.9-9.9-37.4c0,12.4,0,24.9,0,37.3c-3.3,0-6.6,0.1-9.9,0.1
			C274.5,137,274.5,116.6,274.5,96.2 M272.9,94.5v1.7v61.2v1.7l1.7,0c3.2-0.1,6.5-0.1,9.8-0.1l1.7,0v-1.7v-24.6
			c2.2,8.3,4.4,16.7,6.6,25l0.3,1.2l1.3,0c3.6,0,7.2,0.1,10.8,0.2l1.7,0v-1.7V97.2v-1.6l-1.6-0.1c-3.3-0.2-6.6-0.3-9.8-0.5l-1.7-0.1
			v1.7v16.9c-1.5-5.9-3.1-11.7-4.6-17.6l-0.3-1.2l-1.2,0c-4.2-0.1-8.6-0.2-12.9-0.3L272.9,94.5L272.9,94.5z"/>
	</g>
	<g>
		<g class="st2">
			<path class="st1" d="M172.6,46.3l20.3,20.6c0,0,0,7.1,0,13.4c0,6.4,8.1,12.5,8.1,12.5l-28.4-28.9V46.3z"/>
			<polygon class="st1" points="172.6,35.6 192.9,56.2 192.9,63.5 172.6,43.1 			"/>
			<polygon class="st1" points="172.6,32.1 192.9,52.7 192.9,54.3 172.6,33.8 			"/>
		</g>
		<g class="st2">
			<polygon class="st1" points="99.5,57.3 119.8,77.9 119.8,103.3 99.5,82.9 			"/>
			<polygon class="st1" points="99.5,46.6 119.8,67.2 119.8,74.5 99.5,54.1 			"/>
			<polygon class="st1" points="99.5,43.2 119.8,63.7 119.8,65.3 99.5,44.8 			"/>
		</g>
		<g class="st2">
			<polygon class="st1" points="6,76.3 26.3,96.9 26.3,122.3 6,101.9 			"/>
			<polygon class="st1" points="6,65.6 26.3,86.2 26.3,93.6 6,73.1 			"/>
			<polygon class="st1" points="6,62.2 26.3,82.8 26.3,84.3 6,63.8 			"/>
		</g>
		<g class="st2">
			<polygon class="st1" points="25,144.8 45.3,165.4 48.7,190.8 28.4,170.3 			"/>
		</g>
		<g class="st2">
			<polygon class="st1" points="23.1,129 43.4,149.6 44.1,154.7 23.8,134.2 			"/>
		</g>
		<g class="st2">
			<polygon class="st1" points="24.4,136.4 44.7,157 45,159.1 24.7,138.7 			"/>
			<polyline class="st1" points="45,160 45.4,162.1 25.1,141.7 24.7,139.4 			"/>
		</g>
	</g>
</g>
</svg>
