<?xml version="1.0" encoding="utf-8"?>
<!-- Generator: Adobe Illustrator 25.0.1, SVG Export Plug-In . SVG Version: 6.00 Build 0)  -->
<svg version="1.1" id="Layer_1" xmlns="http://www.w3.org/2000/svg" xmlns:xlink="http://www.w3.org/1999/xlink" x="0px" y="0px"
	 viewBox="0 0 505 512" style="enable-background:new 0 0 505 512;" xml:space="preserve">
<style type="text/css">
	.st0{fill:#06957D;}
	.st1{fill:#004042;}
	.st2{fill:#06B59F;}
	.st3{fill:url(#SVGID_1_);}
	.st4{fill:#F9B233;}
	.st5{fill:#F39200;}
	.st6{fill:url(#SVGID_2_);}
	.st7{fill:url(#SVGID_3_);}
	.st8{fill:url(#SVGID_4_);}
	.st9{fill:url(#SVGID_5_);}
	.st10{fill:#34BCAF;}
</style>
<g>
	<g>
		<path class="st0" d="M280.5,65.9c0,0-4.9-18.2-30.1-9.1c-25.2,9.1-33.7,37.8-70.1,34.2c-36.4-3.6-99.4,7.5-113,83.4
			c0,0,19.1-58.1,70.2-28.8c5.7,3.3,47,8.3,43.3,31.2c-3.3,20.1,40,18.6,47,36.8c4,10.6,5,22,11.1,18.9c2.7-1.4,14.4-2.5,25.3-4.9
			c25.9-5.6,24.5,8.4,24.5,8.4s91.5-131.7,80-158.8C357.6,50.6,345.7,52,333,56.9C320.4,61.8,290.3,64.5,280.5,65.9z"/>
		<path class="st1" d="M292.3,220.9c-3.3-3.1-8,0.7-14.4,0.7c-3.5,0-8.6,1.1-13,2.1c-7.7,1.7-12.9,4.1-17.1,4.1
			c-2.9,0-8.2,2.9-10.9,1.4c-2.8-1.5-3.8-8.2-6.2-14.4c-4-10.5-12.4-16-23.9-20.5c-12.6-4.9-23.6-6.7-22.6-13
			c3.5-21.5-20-30-34.2-34.2c-3.1-0.9-13-0.7-10.9-2.7c-11.6-6.2-19-9.6-28.7-9.6c-12.4,0-22.3,10.6-30.8,15
			c13.8-36.4,54.4-47.2,81.4-47.2c3.7,0,14.4,3.4,29.4,1.4c15-2.1,27.3-8.9,36.2-16.4c7-6,11.2-17.4,19.8-20.5
			c4.1-1.5,14.6,2.7,17.8,2.7c9.7,0,11.1-3.3,11.4-2.5l1.2,4.4l4.5-0.7c1.9-0.3,4.7-0.6,7.9-1c14-1.7,35.1-4.2,45.7-8.3
			c4.5-1.7,7.5-2.5,10.3-2.5c4.5,0,13.4,0.8,20.9,18.8c1.8,4.4,2.6,21.2-34.9,84.8C316,188.5,300.1,209.2,292.3,220.9z"/>
		<g>
			<path d="M315,51.4c-2-0.5-3.7-1-4.6-1.2l0,0C311.1,50.5,312.9,50.9,315,51.4z"/>
			<path d="M315,51.4c-2-0.5-3.7-1-4.6-1.2l0,0C311.1,50.5,312.9,50.9,315,51.4z"/>
			<path d="M367,114.3c0-0.1-1.3-6-1.2-10.2c0-1.7-0.2-4.3-0.4-7.3c-0.3-4.6-0.7-10.2-0.5-14.4c0.3-6.7-7.3-18.2-11.3-22
				c-2.2-2.1-6.2-3-14.1-4.4c-6.6-1.2-13.3-1.5-17.7-2.8c-2-0.6-4.5-1.2-6.7-1.7c2.3,0.6,5,1.4,6.9,2.2c0.3,0.1,0.6,0.2,1,0.3
				c-0.8-0.1-1.7-0.2-2.5-0.3c-4.5-0.6-10.5-3.2-10.5-3.2l-0.4-0.8l0.4,0.5c0,0,0.3,0.1,0.6,0.2l-2.5-5.4c0.8-0.5,2.2-1.6,2.2-1.6
				l0.2-0.1l0-0.2c0-0.1,0.3-10.4,0.7-13.6c0.3-3-0.6-5-0.9-5.6l0.9-3.3l-0.3-3.6c0-0.1-1.1-5.2-1.1-6.4c0-1.4,0-3.5-2.1-4.9
				c-0.4-0.3-1.2-0.5-2.2-0.5c-3.3,0-5,0-5.7,0.2c-0.2,0-3.3,0.3-4,0.4c-2.3,0.3-5.4,2.6-6.2,3.4c-1.8,1.8-2.9,2.2-4.1,4.4
				c-0.9,1.6-0.6,4.4-0.4,7.3c0.1,0.9,0.4,2.7,0.5,3.8c-0.1,0-0.3,0.1-0.4,0.1c-0.1-0.1-0.3-0.1-0.3-0.1c-2.1,1.4-1.9,2.3-1.9,5
				c0,3.1,1.4,4.3,2.4,5.2c-0.3,6.4-0.7,10.9-1.1,12.6c-0.7,2.9-9.4,9.1-12.8,11.4c-0.7,0.3-7.7,2.9-14,6.7
				c-0.2,0.1-0.3,0.2-0.5,0.3c-4.2,1.8-17.5,8.8-18.6,23.2c-0.4,5.7,0.4,13.3,1.1,19.3c0.4,3.5,0.7,6.4,0.7,8.3c0,2,0.4,3.6,0.7,5
				c0.5,2.1,0.9,3.8,0,6.5c-1.6,4.6-3.3,14-1.3,20c1.5,4.5,4.2,21.1,5.3,28.1c-0.6,4.2-1.7,14.4,0.6,18.6c0.1,0.1,0.6,1.1,3.1,3.4
				c1.4,1.3,3.1,2,4.7,2c1.5,0,2.8-0.6,3.4-1.8c1.1-1.8,2-1.8,2.2-1.8l0.1,0l0.1,0c0.1,0,2.3-0.7,3.8-2.3c1.5-1.6,2.6-5.4,2.6-5.6
				l0.1-0.2l-3.5-4.1l-2.6-1.6c0.3-1.4,1.3-6.7-2.2-9.4c1.6-9.7,4.1-26.3,3.9-30.4c-0.3-5.6-0.3-7.9,0-9.6
				c0.3-1.7,0.7-17.9,0.7-19.1c0-0.1,0.2-0.8,0.4-1.7c3.1,7.4,6.5,14.7,7.7,17c2.1,3.8,2.1,10.4,2.1,10.4l0,9.3
				c-2.5,2.4-1.5,6.6-1,8.9c0,0.3,0.1,1.3,0.8,2c0,0.1,0,0.2,0,0.3c0.2,0,0.3,0,0.5,0c0,0.1,0,0.3,0,0.4c-0.2,0-0.3,0-0.5,0
				c-0.3,9.1-0.4,19.6,0.4,21.9c-5.2,28.4,1,74.3,1.5,77.4c-1.8,4.7,0.2,17.3,0.3,17.8c0,0.2,0,19.7,0.6,29.2
				c0.9,12.7,0.7,25.5-6.2,33.2c-4.8,5.3-14.4,12-19.7,12.7c-1.8,0.2-3,1-3.6,2.2c-1,1.9,0,4.3,0.1,4.4l0.1,0.3h0.3
				c1.6,0,39.7-0.1,42-0.9c0.4-0.1,0.7-0.4,1-0.9c1-2.1-0.3-7.4-0.6-8.3c0-0.5,0.1-3.2,1.3-6.8c0.7-2.2,0.3-5.7-0.2-9.7
				c-0.4-3.7-0.9-7.9-0.6-11.8c0.6-7,4.4-15.2,7.2-21.3c0.4-0.9,0.8-1.7,1.2-2.5c2.9-6.4,0.1-21.5-1.2-26.2c-1.2-4.2,0-10.7,0-10.8
				c3.3-21.6,4.1-39.5,4.3-46.6l1.8,6.5c4.5,14,12.6,33.4,13.4,35.2c-0.2,2.8,2.8,11.3,3.3,12.7c0,1-0.3,8.2,0.3,14.7
				c0.7,7.4,8.7,23.1,13.7,31.2c5.2,8.6,2.6,19.6,2.6,19.8l-0.8,8l0,6.6c-0.3,0.9-2.5,9-2.6,12.6c0,3.3,10.5,4.2,16,4.2
				c4.8,0,8.6-0.5,10.3-1.4c0.4-0.2,0.7-0.6,0.8-1.1c1.1-3.5-4-14.9-4.9-16.8c0.3-2.1-1.2-6.4-3-11c-0.5-1.4-1.1-3-1.1-3.3
				c0-0.3-0.2-1.2-1-4c-1.5-5.6-4.4-16-3.7-19.5c1.4-7.8-0.5-27-1.6-30.9c-0.9-3.5-4.8-10.7-5.5-11.9c0.5-2.9-1.5-12.1-1.9-13.7
				c1.8-6.3-4.5-47.6-6.8-53c-2.1-4.8-3.3-18.7-3.4-20c0.9-3.7-0.5-13.6-2-22c-0.2,0-0.3,0-0.5,0c0,0,0,0,0,0c0.2,0,0.3,0,0.5,0
				c-0.1-0.6-0.2-1.1-0.3-1.6c0.1-1.3,0.3-3.1,0.3-4c0-1.6-1.4-5-1.5-5.2l0-0.1l-0.1-0.1c0,0-0.2-0.2-0.7-0.4
				c-0.7-5.8-1-15.3-0.7-17.7c0.4-3.5,2.9-7.5,7.5-12c4.2-4.2,7.6-12.4,9-16c1.7,9.3,8.9,21.7,10.1,23.7c-4.3,6.5-0.7,24.3,1.3,33.9
				c0.3,1.4,0.5,2.6,0.7,3.5c0.9,4.9,1.3,9.8,1.5,12.6c-2.2,0.5-4.9,1.5-6.2,3.4c-0.6,0.9-1.4,2-2.2,3c-2.4,3-3.8,5-3.5,6.2
				c0.1,0.3,0.2,0.6,0.5,0.8c1,0.6,2,4.2,2.3,6.4c0,0.1,0.9,3.1,3.5,3.1c0.2,0,0.4,0,0.7-0.1c0.5,0.2,1.9,0.8,3.3,0.8
				c0.8,0,1.4-0.2,2-0.5c0.8,0,3.7-0.1,4.6-1.1c0.4-0.4,0.9-0.6,1.5-0.8c0.7-0.3,1.4-0.6,1.8-1.2c0.6-1,3.4-13.6,3.9-16.2l0-0.1
				l-0.1-0.2c0.8-4.9,7.1-42.4,7.7-46.4C371.1,125.7,367.1,114.7,367,114.3z M273,162.3c0,0.2,0,0.4,0,0.6c-0.2,0-0.3,0.1-0.5,0.1
				c0-0.2,0-0.4,0-0.6C272.7,162.3,272.9,162.3,273,162.3z M322.8,157.1c-9.6-0.3-29.4,2.5-42.2,4.5c0-0.2,0.1-0.3,0.1-0.4
				C293.5,159.3,313.2,156.8,322.8,157.1C322.8,157.1,322.8,157.1,322.8,157.1z M306.8,44.7L306.8,44.7L306.8,44.7L306.8,44.7z"/>
			<path d="M347.5,364.3c-8,0-15.1-1.5-15.1-3.2c0-3.4,2.3-11.5,2.5-12.4l0-0.1l0-6.7l0.8-7.8c0.3-1.4,2.4-12-2.7-20.4
				c-4.9-8.1-12.9-23.5-13.5-30.8c-0.6-6.3-0.3-13.3-0.3-14.6l0-0.2l-0.1-0.2c-1.3-3.6-3.4-10.2-3.3-12.3l0-0.2l-0.1-0.2
				c-0.9-2.1-8.9-21.3-13.4-35.1l-1.8-6.5l-1.9,0.2c-0.2,6.7-1,24.8-4.3,46.5c0,0-1.3,6.7,0,11.2c1.3,4.5,4.1,19.4,1.3,25.6
				c-0.3,0.7-0.7,1.4-1,2.2l-0.1,0.3c-2.8,6.1-6.7,14.4-7.3,21.6c-0.3,4,0.2,8.2,0.6,12c0.4,3.9,0.8,7.3,0.2,9.3
				c-1.2,3.7-1.3,6.5-1.3,7l0,0.1l0,0.1c0.8,2.8,1.3,6.4,0.7,7.7c-0.2,0.3-0.3,0.4-0.4,0.4c-1.6,0.5-21.9,0.8-41.3,0.8
				c-0.2-0.6-0.6-2.1,0-3.4c0.5-0.9,1.4-1.5,2.9-1.7c5.5-0.8,15.3-7.5,20.3-13c7.2-7.9,7.4-21,6.5-33.9c-0.6-9.2-0.6-28.3-0.6-29.1
				v-0.1l0-0.1c-0.4-2-2-13.2-0.4-17.3l0.1-0.2l0-0.2c-0.3-2-6.7-48.6-1.5-77.1l0-0.2l-0.1-0.2c-0.3-0.9-0.8-4.6-0.5-18.3l1.4-0.2
				l0.1-2.5l-1,0.1l0.1-2.2l-0.8,0.1c-0.4-0.5-0.5-1.3-0.5-1.4l0-0.1l0-0.1c-0.5-2.1-1.4-6,0.7-8l0.3-0.3l0-9.7
				c0-0.1,0-6.8-2.3-10.9c-1.1-2.1-4.5-9.3-7.7-16.9l-1.1-2.7l-0.7,2.9c-0.3,1.4-0.4,1.7-0.4,1.9c0,1.8-0.4,17.4-0.7,19
				c-0.3,1.7-0.3,4.1,0,9.8c0.2,3-1.2,13.7-3.9,30.2l-0.1,0.6l0.5,0.3c3,2.3,2.1,7,1.8,8.4l-0.2,0.7l3,1.8l3.1,3.6
				c-0.4,1.4-1.4,3.9-2.3,5c-1.2,1.3-2.9,1.9-3.3,2h0c-0.4,0-1.7,0.2-3,2.3c-0.5,0.8-1.5,1.3-2.6,1.3c-1.4,0-2.8-0.6-4-1.7
				c-2.4-2.2-2.9-3.1-2.9-3.1c-2.3-4.2-1-14.9-0.5-18.1l0-0.1l0-0.1c-1.1-7-3.8-23.7-5.3-28.2c-1.9-5.7-0.2-14.9,1.3-19.4
				c1-2.9,0.5-4.9,0.1-7c-0.3-1.3-0.7-2.9-0.7-4.8c0-1.9-0.3-4.9-0.7-8.4c-0.7-6-1.6-13.5-1.1-19.1c1.1-13.9,14.1-20.7,18.1-22.4
				l0.1,0l0.1-0.1c0.1-0.1,0.3-0.2,0.4-0.3c6.2-3.7,13.1-6.3,13.8-6.6l0.1,0l0.1-0.1c0.5-0.3,12.2-8.1,13.2-11.9
				c0.6-2.3,0.9-8.2,1.1-12.8l0-0.5l-0.3-0.3c-0.9-0.8-2.1-1.8-2.1-4.5l0-0.7c0-1.9,0-2.4,1.1-3.2l0.1,0l0.4-0.1
				c0.1,0,0.2-0.1,0.3-0.1l0.8-0.2l-0.1-0.8c0-0.6-0.2-1.4-0.3-2.2c-0.1-0.6-0.2-1.2-0.2-1.6c-0.2-2.6-0.5-5.4,0.3-6.7
				c0.7-1.3,1.4-1.9,2.3-2.6c0.5-0.4,1-0.9,1.7-1.5c0.7-0.7,3.6-2.9,5.6-3.1c0.8-0.1,3.6-0.4,3.9-0.4l0.1,0l0.1,0
				c0.7-0.2,2.7-0.2,5.5-0.2c1.1,0,1.5,0.2,1.7,0.3c1.7,1.2,1.7,2.8,1.7,4.2c0,0.8,0.3,2.9,1,6.4l0.1,0.3l0.3,3.4l-0.9,3.5l0.2,0.3
				c0.3,0.5,1.1,2.4,0.8,5.1c-0.3,2.9-0.6,11.4-0.6,13.5c-0.4,0.3-1.2,0.9-1.8,1.3l-0.1-0.2l-0.7,0l-0.9,0l0,1.2l0.1,0.2l0.9-0.4
				l2.3,4.9l-0.6,0.4l0.6,1.1l0.3,0.1c0.2,0.1,6.2,2.7,10.7,3.3c0.9,0.1,1.7,0.2,2.5,0.3l0.1-0.5c2.5,0.6,5.5,1,8.7,1.4
				c2.5,0.3,5.2,0.7,7.8,1.1c8.1,1.4,11.8,2.3,13.6,4.1c3.9,3.8,11.3,15.1,11,21.3c-0.2,4.1,0.2,9.5,0.5,14.2l0,0.3
				c0.2,3,0.4,5.5,0.4,7.2c0,4.1,1.1,9.8,1.3,10.4l0,0.1l0,0.1c0.8,2.2,4,11.7,3.4,15.4c-0.5,3.7-6,36.4-7.7,46.4l0,0.2l0.1,0.2
				c-1.8,8.5-3.3,15-3.7,15.7c-0.2,0.4-0.7,0.6-1.3,0.8c-0.6,0.2-1.3,0.5-1.8,1.1c-0.4,0.5-2.1,0.8-4,0.8l-0.3,0l-0.2,0.1
				c-0.4,0.2-0.9,0.4-1.5,0.4c-1.3,0-2.5-0.6-2.9-0.7l-0.3-0.1l-0.3,0.1c-0.2,0-0.3,0-0.5,0c-1.8,0-2.5-2-2.6-2.4
				c-0.2-1.1-1.1-6-2.7-7c0,0-0.1-0.1-0.1-0.1c-0.2-0.9,1.8-3.4,3.4-5.5c0.8-1,1.6-2.1,2.3-3.1c1.2-1.7,3.7-2.6,5.6-3l0.8-0.2
				l-0.1-0.8c-0.2-2.6-0.6-7.7-1.5-12.7c-0.2-0.9-0.4-2-0.6-3.3l0-0.2c-1.9-9.5-5.4-27.1-1.4-33.2l0.3-0.5l-0.3-0.5
				c-0.8-1.4-8.3-14.1-9.9-23.4l-0.6-3.4l-1.2,3.2c-1.3,3.4-4.6,11.6-8.8,15.7c-4.8,4.7-7.4,8.9-7.8,12.6c-0.3,2.4,0,12,0.7,17.9
				l0.1,0.5l0.4,0.2c0.2,0.1,0.3,0.2,0.4,0.3c0.5,1.2,1.3,3.6,1.3,4.7c0,0.7-0.1,2-0.3,3.9l0,0.1l0.3,1.2c-0.4,0-0.8,0-1.3,0
				c-9.9,0-27.6,2.2-40.8,4.1l-0.6,0.1l-0.6,2.5l1.4-0.2c13.1-2.1,30.8-4.5,40.6-4.5c0.5,0,1,0,1.4,0l0.2,0
				c2.3,13.3,2.3,18.3,1.8,20.2l0,0.2l0,0.2c0.1,1.6,1.4,15.4,3.5,20.3c2.2,5.1,8.5,46.4,6.8,52.4l-0.1,0.2l0.1,0.2
				c1.1,4.9,2.2,11.3,1.9,13.4l-0.1,0.3l0.2,0.3c2.1,3.8,4.7,9.2,5.4,11.7c1,3.9,3,22.8,1.5,30.5c-0.7,3.5,1.6,12.1,3.8,20
				c0.5,1.9,0.9,3.4,1,3.7c0,0.4,0.3,1.2,1.2,3.6c1.3,3.4,3.2,8.6,2.9,10.6l0,0.3l0.1,0.3c2.9,6.4,5.6,13.8,4.9,16.1
				c-0.1,0.4-0.3,0.5-0.3,0.5C355.8,363.8,352.1,364.3,347.5,364.3z"/>
		</g>
		<path d="M272.9,159.2c-0.5,18.8-1.3,23.2-1.3,23.2c-5.4,29.5,1.5,77.4,1.5,77.4c-1.9,4.4,0.3,17.7,0.3,17.7s-0.1,19.6,0.6,29.1
			c0.9,13.8,0.4,26-6.4,33.5c-4.8,5.3-14.6,12.1-20,12.9s-3.2,5.9-3.2,5.9s39.6-0.1,41.8-0.9c2.2-0.7,0-8.7,0-8.7s0-3,1.3-7
			c1.3-4.1-1.4-13.3-0.8-21.4c0.6-8.1,5.6-17.7,8.4-23.9c2.9-6.3,0-21.4-1.2-25.8c-1.3-4.4,0-11.1,0-11.1
			c4.3-28.2,4.3-49.7,4.3-49.7l2.7,9.6c4.7,14.8,13.4,35.2,13.4,35.2c-0.3,2.6,3.3,12.7,3.3,12.7s-0.3,7.7,0.3,14.7
			c0.6,7,8.2,22.1,13.6,31c5.4,8.9,2.7,20.1,2.7,20.1l-0.8,7.9l0,6.6c0,0-2.5,8.8-2.6,12.5c0,3.7,20.8,4.8,25.7,2.2
			c2.9-1.5-4.4-17.3-4.4-17.3c0.6-3-4.1-13.3-4.1-14.4c0-1.1-5.7-18.5-4.7-23.6c1.4-7.7-0.6-26.9-1.5-30.6c-0.9-3.7-5.5-12-5.5-12
			c0.6-2.6-1.9-13.8-1.9-13.8c1.9-5.5-4.5-47.6-6.7-52.7c-2.2-5.2-3.5-20.3-3.5-20.3c0.9-3.5-0.5-13.5-1.9-21.3
			C310.4,156.6,282.9,157.5,272.9,159.2z"/>
		<path d="M365.6,114.4c0,0-1.3-6-1.3-10.3c0-4.3-1.2-15-0.9-21.7c0.3-6.7-5.7-16.4-9.5-20.1c-3.8-3.7-13-5.9-34.7-9.8
			c-7.4-1.3-9.4-2.6-9.4-2.6l-3.9-5.1c1-0.6,3-1.8,3-1.8s0.3-10.3,0.7-13.7c0.3-3.3-0.9-5.5-0.9-5.5l0.6-3.5c0,0-1.1-8.6-1.1-10
			c0-1.3,0-3.2-1.9-4.5C304.4,4.3,294.9,7,294.9,7s-4.4,0.3-5.8,1.6c-1.9,1.9-3.3,2.8-4.4,4.8c-1.2,2.1-0.1,6.7,0,10.8
			c-2.3,0.5-2.3,2-2.3,6.1c0,3.1,1.4,3.3,2.3,4c-0.2,4.3-0.5,10.6-1.1,12.9c-1,3.7-13,11.7-13,11.7s-7.3,2.7-14,6.7
			c-0.2,0.1-0.3,0.2-0.5,0.3c-3.5,1.5-17.3,8.4-18.4,22.8c-0.7,9,1.9,22.5,1.9,27.5c0,5,2.2,7,0.6,11.7c-1.6,4.7-3.2,14-1.3,19.7
			c1.5,4.6,4.3,21.7,5.3,28.2c-0.6,4.1-1.7,14.2,0.6,18.4c0,0,0.4,0.9,3,3.3c2.5,2.3,6.1,2.5,7.4,0.3c1.3-2.2,2.6-2.1,2.6-2.1
			s2.2-0.6,3.6-2.2c1.4-1.5,2.5-5.4,2.5-5.4l-3.4-3.9l-2.8-1.6c0,0,1.9-6.6-2.1-9.4c1.4-8.8,4.2-26.4,4-30.6c-0.3-5.7-0.3-8,0-9.7
			c0.3-1.7,0.7-17.7,0.7-19c0-0.2,0.3-1.4,0.7-3.3c3.3,8.1,7,16.1,8.3,18.3c2.2,4,2.2,10.7,2.2,10.7l0,9.5c-2.5,2.2-1.5,6.3-1,8.6
			c0,0,0,1.3,0.8,1.9c0,1-0.1,1.9-0.1,2.7c10-1.5,39.3-5.8,51.2-5.3c-0.1-0.8-0.3-1.5-0.4-2.2c0.1-1.3,0.3-3.1,0.3-4
			c0-1.5-1.4-5-1.4-5s-0.3-0.2-0.8-0.5c-0.7-5.8-1-15.5-0.7-18c0.3-3,2.2-7,7.6-12.3c5.4-5.3,9.5-17.7,9.5-17.7
			c0.9,10,10.4,25.7,10.4,25.7c-5.1,7,0.6,30.4,1.9,37.4c0.9,5.2,1.3,10.6,1.5,13c-2.1,0.4-5,1.3-6.3,3.3c-2.2,3.3-7,8.3-5.4,9.3
			c1.6,1,2.5,6.7,2.5,6.7s0.9,3.3,3.8,2.7c0,0,3.2,1.7,5.1,0.3c0,0,3.5,0,4.4-1c1-1,2.5-1,3.2-2c0.6-1,3.8-16,3.8-16s0-0.1-0.1-0.2
			c1.3-7.7,7.2-42.7,7.7-46.5C369.7,125.7,365.6,114.4,365.6,114.4z"/>
		<path class="st0" d="M346.7,177.5c4.5-3.3,8.3-0.7,8.3-0.7s-7-37.1-7.3-45.5c-0.2-8.3,7.1-9.9,7.1-9.9s-4-0.8-6.1-2.4
			c-2.1-1.7-6.1-8.1-6.3-9.5c-0.2-1.4-3.2-12.7-3.2-12.7l4.7-1.3c0,0-2.1-1.9-5.5-4.8s-7,7.2-9.4,11.4c-2.4,4.3-14.1,3.3-14.1,3.3
			c11.4,1.4,10.9,1.9,13.8-0.5c0.3-0.3,5.6-5.5,5.9-5.6c0.6-1.4,1.7-3.4,1.7-3.4l0.5,1.9c0.9,9.7,10.7,24.6,10.8,24.7l0.3,0.5
			l-0.4,0.5c-4.2,5.7-0.5,24.2,1.3,33.1c0.3,1.4,0.5,2.6,0.7,3.6c0.9,5.2,1.3,10.5,1.5,13.1l0.1,0.8l-0.8,0.2
			c-2,0.4-4.5,1.2-5.7,2.9c-0.6,1-1.5,2-2.3,3.1c-1.2,1.5-3.1,4-3.3,4.9C340.6,182.6,343.4,179.9,346.7,177.5z"/>
		<path class="st0" d="M265.3,353.2c7.6-3.8,11.7-12.6,12.9-19.5c1.2-6.9,1.3-54.7,1.7-56.8c0.5-2.1,3.6-4,3.6-4s0.7,0.5-2.6-1.9
			c-3.3-2.4-1.1-19.3-1.6-21.2c-0.2-0.7-1.2-18.5-1.9-29.5c-0.7-10.5,0.4-27,0.4-31.3c0-4.3,4.4,0.9,4.4,0.9s-2.1-8.1-4.3-10.5
			c-2.1-2.4,3.2-18.8,3.2-18.8l6.6-3.5c0,0-6.2-1.3-8.5-3.4c-2.4-2.1-0.7-5.8-0.7-5.8s-0.8-9.5-1-12.8c-0.2-3.3-3.6-14.3-5.2-18.4
			c-1.7-4,5.7-7.3,5.7-7.3s-7.6,3.5-10.5,0.6c-2.8-2.9-9-14.9-9-14.9s0,1.9,0.2,6.2c0.1,1.8,1.2,4.1,1.9,7.1l0-1.1l1.1,2.7
			c3.4,8.3,7.1,16.2,8.2,18.2c2.3,4.2,2.3,10.9,2.3,11.1l0,10l-0.3,0.3c-2.1,1.8-1.2,5.5-0.7,7.7l0,0.1l0,0.1c0,0.3,0.1,0.9,0.4,1.1
			l0.4,0.3l0,0.5c-0.5,15.2,0,18.8,0.2,19.6l0.3,0.2l-0.1,0.7c-5.3,26.2,1.4,69.3,1.5,69.7l0,0.3l1.2,2.7c1.2,4.6-1.6,9.6-1,13
			l0,0.1v0.1c0,0.2,0,17.8,0.6,26.3c0.9,11.8,3,36.4-3.4,45c-4.2,5.6-11.2,13.1-16.9,15.4c-1.2,0.5-6.1,1.1-6.5,1.8
			c-0.4,0.7-1,2-0.9,2.6c1.5,0,5.3-0.1,6.9-0.1C253.1,354,259,356.4,265.3,353.2z"/>
		<path class="st2" d="M254.6,353.3c4-2,9.4-6.5,13.8-11.1c11.4-11.9,8.1-39.7,7.1-52c-0.6-8.4-1.2-16.9-1.2-16.9
			c-1.7-4.5,0.5-12.1,0.5-12.1c-0.1-0.4-7-49.6-1.7-79.4l1.6-3.4l-0.8-0.4c-0.2-1.6-1.3-5.7-0.8-17.8l0.8-1.9l-0.8-0.7l0-0.2
			l-0.7-0.1c-0.4-1.7-1.7-4.9-0.5-5.9l1-2.6l-0.2-9.3c0-0.8,0.1-7.1-2.4-11.7c-1.1-2-4.2-9.1-7.6-17.4l-1.9-7.4
			c-0.1-0.8-0.2-1.3-0.2-1.7c2.2,3,4.6,9.1,6.2,10.7c1.6,1.6,3.2,0,6.3-0.3c-1.7,1-2.1,1.7-2.9,3.2c-0.5,1.1-0.3,4.1,0.2,5.3
			c4.2,10.3,5,13.9,5.1,15.1c0.2,2.8-0.4,10.8-0.5,12.9c-0.9,1.6-1.5,5.5,1.1,7.8c1,0.9,7.1,1.1,8.2,1.7l-6.2,1.6l-0.1,0.6
			c-2,8-3.8,18.1-1.5,20.7c0.4,0.5,3.3,5,3.4,5.6c-0.1,0-3.1-2.9-3.2-2.9c-0.8,0-3-0.8-3,3.2c0,0.5,0,1.2,0,2
			c-0.1,7.1-1,23.7-0.3,33.2c0.5,6.4,2,14.7,2.1,20c0.1,4,1.3,20.2,1.6,21.2c0,0.4-1.3,1.2-1.4,2.9c-0.2,1.9-1.3,4.5,1.9,6.8
			c0.8,0.6,2.6,0.6,3.1,1c-1,0.8-2.5,3.3-2.9,4.7c-0.2,1-0.1,2.7,0,12.6c0.1,11.3,0.8,17.2,0.1,21.3c-1.1,6.4,4.1,23-10.9,34.4
			C265,348.1,256.9,353.1,254.6,353.3z"/>
		<path class="st0" d="M341,346.8c0-1.1,0-19.4-0.4-24c-0.5-4.6-9-18-12.3-25.6c-3.3-7.6-4.2-29.6-4.2-29.6
			c-0.9-1.1-1.9-0.4-3.5-8.4c-1.6-8,0.4-11.6-1.7-17.1c-2.1-5.5-13.3-35.5-14.2-37.6c-0.9-2.2-3.8-5.7-3.8-5.7s-1.8,4.7-2.4,7.4
			l0.9-0.2l2.7,9.9c4.7,15.1,13.3,36.2,13.4,36.5l0.1,0.3l0,0.3c-0.2,1.7,1.9,8.7,3.3,12.6l0.1,0.2l0,0.2c0,0.1-0.3,8,0.3,15.1
			c0.6,7,8.2,22.7,13.4,31.7c5.4,9.2,3.1,20.5,2.8,21.7l-0.8,8.1l0,7l0,0.2c0,0.1-2.5,9.1-2.5,12.6c0.1,0.4,3.8,1.5,5.2,1.9
			C337,356.3,341,347.7,341,346.8z"/>
		<path class="st2" d="M335.4,361.5c-0.5-0.1-1.8-0.9-2.2-1c0.4-3.2,1.1-7.9,1.7-9.8l0.5-1.1l0.2-7.1l1.2-7.6
			c0.3-1.5,0.9-12.5-1.4-20.4c1.1,2.3,3.2,7.6,3.3,8.7c0.4,4.2,0.4,20.6,0.4,23.5c-0.1,0.3-0.3,0.9-0.5,1.4
			C337.7,350.7,335.8,356,335.4,361.5z M330.6,306.8c-2.2-5.2-5.5-3-10.2-24.5c-1.8-8.4,0.2-7.6,0.2-10.3
			C321.6,278.2,322.1,286,330.6,306.8z M318.8,261.8c-0.7-2.6-2.4-5.1-2.4-5.7l0.2-1.4l-0.2-1.1c-1.9-4.4-8.7-21.7-13.3-36.5
			l-3.1-10.6c0.2-0.5,1.1-3,1.3-3.5c0.6,0.9,2,8.5,2.3,9.2c0.5,1.1,1.9,6.5,5.2,15.3c2.9,7.8,5.7,16.1,6.6,18.5
			c1.9,4.8,2.9,7.8,2.9,7.9l0,0.2l0,0.2C318.3,255.8,318.7,260.6,318.8,261.8z"/>
		<path class="st0" d="M296.2,41.2l-0.4-9.7l-0.8,2.7l-0.7-9l-0.6-2.3l1.2-2.9c0,0-0.5-3.3-1.7-5.9c-0.6-1.4-0.5-4-0.1-6.2
			c-2.1,0-3.3,0.4-3.6,0.7c-1.7,1.7-2.8,3.2-4,5.3c-0.7,1.2-0.4,3.9-0.2,6.5c0.1,1.3,0.2,2.6,0.3,3.8l0,1.6l-0.5,0.9
			c-0.4-0.2-1.8-0.5-1.9-0.5c-0.1,0.1,0,0.2,0,3.6c0,2.7,1.2,3.1,2.1,3.8l0.4,0.3l0,0.5c-0.2,4.7-0.6,10.8-1.2,13.1
			c-1,3.9-12.1,11.4-13.4,12.2l-0.1,0.1l-0.1,0c-0.1,0-7.3,2.7-13.8,6.6c-0.1,0.1-0.3,0.2-0.4,0.3l-0.1,0.1l-0.1,0
			c-3.9,1.7-16.8,8.3-17.8,22c-0.4,5.6,0.4,13,1.1,19c0.4,3.5,0.8,6.5,0.8,8.4c0,1.9,0.3,3.3,0.6,4.7c0.5,2.2,1,4.2-0.1,7.3
			c-1.6,4.7-3.1,13.8-1.3,19.1c1.5,4.6,4.2,21.4,5.3,28.4l0,0.1l0,0.1c-0.5,3.2-1.8,13.8,0.5,17.9c0,0,1.9,1.8,2.7,2.7
			c-3.1-4.3-2.7-10.8-2.7-10.8c0.9,8.1,9,6.7,9,6.7s-1.7-4.8-3.8-6.2c-2.1-1.4-1.4-10.5-1.4-10.5l-1.9-17.6l2.1-19.1l-5.1,5.6
			c0,0,1.1,0,0.2-5.5c-0.9-5.5,3.6-14.4,3.6-14.4s-0.6-21.2-0.9-32.1c-0.2-10.9,6.8-13.5,6.8-13.5l1.7,7c0.6-7.2,3.9-15.7,15.3-20
			c1.2-0.4,2.1-0.2,4-1.2c1.7-0.9,44.6-6.4,46.2-7.3c1-0.6-38.4,2.4-37.6,1.9c1.2-0.7,2-1.3,2.4-1.7c1.4-1.4,3.3-7.6,3.3-7.6
			l7.6,4.3l-3.5-11.2c5.4,3.6,8.3,0.2,12.9,1.2l-0.3-1l0.6-0.4c0.5-0.3,0.9-0.6,1.1-0.8c0-0.3,0-0.8,0-1.3
			C304.9,38.2,296.2,41.2,296.2,41.2z"/>
		<path class="st2" d="M295.6,40.9c0,0,0.6,0,4.1-0.9c3.7-1,6.5-0.6,7.6,0.5c1.1,1.1,2.3,0.6,0.7,2c-1.6,1.4-1.5,2.1-2.4,1.5
			c-3.3-2.1-7.1,0.9-9.3-0.5c-2.2-1.4-1.9-0.5-1.6-1C295,42,295.6,40.9,295.6,40.9z"/>
		<path class="st2" d="M251.8,190.4c-2.5-0.5-4.5,0.3-4.8-2.5l-0.7-2.5c0-3-0.7-5.9-0.3-8.8l1.2-0.9l-1.1-0.3
			c-1.1-7.2-2.8-17.6-4.2-24l1-1.3l2.7-3.4l0.3,11.5l1.9,17.5c-0.3,3.8-0.4,10.3,2.3,12C250.5,188.1,251.2,189.2,251.8,190.4z
			 M241.2,144.8c-1.9-4.1-1.2-10.8,0.1-14.6c1.2-3.6,1.8-7.1,1.3-9.4c-0.3-1.3-0.3-1.8-0.5-3.6c-0.2-2-1-6.5-1.4-10.1
			c-0.7-5.9-1.8-13.2-1.3-18.6C241,73.7,257,67,257,67s13.5-6.6,13.6-6.6l1-0.7c0,0,12.4-7.1,13.5-11.4c0.5-2,1.6-4.5,1.9-11.4
			L287,33l-2.1-0.1c-0.7-0.5-1.2-1.1-1.2-2.9c0-0.4-1-1.3-0.3-3.1c0.6-1.6,2.7,0,2.7,0l0.4-3.8c0-1.3-0.4-2-0.5-3.3
			c-0.2-1.7,0.1-4.5,0.5-5.2c1-1.9,2.5-3.1,4-4.7c0,0,0.5,1.2,0.5,0.8c-0.1,1.7,0.8,2.8,1.4,4.2c0.8,1.8,0.5,5,0.7,5.9l-1.7,2.9
			l1.5,1.6l-0.3,4.1l1.4,8.5l1.1-3.4l2.1,7.4c-1.7,0.2-2,1.2-2,1.2l-6.2-5.2l5.1,11.9l-5.8-5.3c-1.6,5.4-4.3,10.1-5,11.1
			c-1,1-10.4,6.5-14.7,8.6c-2.4,1.2-11.4,6.3-13.4,10.7l-1.5-3.2l-3.1,2.1c-4.2,1.6-8.5,7.2-9.4,14.3c-1.3,9.9,3.6,32.7,3.9,36.4
			c-1,2.2-4.7,10.5-3.8,15.9C241.8,142.1,241.6,143.6,241.2,144.8z"/>
		<g>
			<path class="st2" d="M302.3,28.3c-0.5-0.6,3.4-0.9,3.4-0.9s-0.1,1.2-0.5,1.2C303.7,28.5,302.8,28.9,302.3,28.3z"/>
			<path class="st2" d="M303.3,22.6l0.9,5l-1.8,0.6l-0.2-3.7C302.2,24.6,302.6,20,303.3,22.6z"/>
		</g>
		<path class="st2" d="M272.9,61c0,0,11.7,0.3,42.2-2.8c0,0-46,7.9-45.9,5C269.3,60.5,272.9,61,272.9,61z"/>
		<g>
			<path d="M271.5,149.6l-0.2-0.9c2.2-0.5,2.7-2.4,20.4-2.9C291.6,145.8,271.8,149.5,271.5,149.6z"/>
		</g>
		<g>
			<path d="M271.7,159.5l-0.2-0.9c0.1,0-9.7-1.2,26.5-2.4C298,156.2,271.9,159.5,271.7,159.5z"/>
		</g>
		<g>
			<g>
				<path class="st0" d="M277.4,122c2.2-1.6,4.6-2.7,7.1-3.6c1.2-0.5,2.5-0.8,3.7-1.2c1.3-0.3,2.5-0.5,3.8-0.7
					c1.3-0.2,2.6-0.3,3.8-0.3c1.3,0,2.6,0,3.8,0.2c2.5,0.3,5.1,1.1,7.4,2.3c-2.5-0.5-5-0.8-7.5-0.8c-1.2,0-2.5,0-3.7,0.1
					c-1.2,0.1-2.5,0.2-3.7,0.4c-1.2,0.1-2.5,0.4-3.7,0.6c-1.2,0.2-2.5,0.5-3.7,0.8C282.3,120.5,279.9,121.2,277.4,122z"/>
			</g>
		</g>
		<path d="M288,16.2l1.4-1.7l4.7-3.8l0.4,2.1l-2.6,1.8l-2.3,2.1l0.2,2.4l-1.2,4.8l0.1,11.1c0,0-1.3-8.9-1.1-10.6l0.5-5.4L288,16.2z"
			/>
		<path d="M314.1,51.4c-1.9-0.5-3.7-1-4.5-1.2v0C310.1,50.5,311.9,50.9,314.1,51.4z"/>
		<path d="M366,114.3c0-0.1-1.3-6-1.2-10.2c0-1.7-0.2-4.3-0.4-7.3c-0.3-4.6-0.7-10.2-0.5-14.4c0.3-6.7-7.3-18.2-11.3-22
			c-2.2-2.1-6.2-3-14.1-4.4c-6.6-1.2-13.3-1.5-17.7-2.8c-2-0.6-4.5-1.2-6.7-1.7c2.3,0.6,5,1.4,6.9,2.2c4.7,1.8,10.8,2.1,17.4,3.3
			c7.5,1.3,12.4,3.5,14.3,5.3c3.8,3.7,10.6,13.6,10.3,20.1c-0.2,4.1,0.2,9.9,0.5,14.5c0.2,3,0.4,5.6,0.4,7.2
			c0,4.3,1.2,10.2,1.3,10.5c0,0.1,4.1,11.3,3.4,15.5c-0.6,4-7,42.2-7.7,46.5l0,0.1l0.1,0.2c-1.2,5.8-3.3,15-3.7,15.7
			c-0.3,0.4-0.8,0.6-1.3,0.9c-0.6,0.2-1.3,0.5-1.8,1.1c-0.6,0.6-2.8,0.8-4.1,0.8h-0.2l-0.1,0.1c-0.4,0.3-0.9,0.4-1.6,0.4
			c-1.5,0-3-0.8-3-0.8l-0.2-0.1l-0.2,0c-0.2,0-0.4,0.1-0.6,0.1c-1.9,0-2.6-2.4-2.6-2.4c-0.1-0.6-1-5.9-2.7-7c0,0-0.1-0.1-0.1-0.1
			c-0.2-0.9,1.8-3.4,3.4-5.5c0.8-1,1.6-2.1,2.3-3.1c1.2-1.8,3.9-2.7,6-3.1l0.4-0.1l0-0.4c-0.2-2.7-0.6-7.9-1.5-13.1
			c-0.2-0.9-0.4-2.1-0.7-3.5c-1.8-8.9-5.5-27.5-1.2-33.5l0.2-0.3l-0.2-0.3c-0.1-0.2-9.4-15.7-10.4-25.5l-0.2-2.2l-0.7,2.1
			c0,0.1-4.2,12.3-9.4,17.5c-4.8,4.7-7.4,8.9-7.8,12.6c-0.3,2.5,0,12.2,0.7,18.2l0,0.3l0.2,0.1c0.3,0.2,0.5,0.3,0.6,0.4
			c0.4,1,1.3,3.6,1.3,4.7c0,0.9-0.2,2.7-0.3,4l0,0.1l0,0.1c0.1,0.5,0.2,1,0.3,1.5c0.3,0,0.7,0,1,0c-0.1-0.6-0.2-1.1-0.3-1.6
			c0.1-1.3,0.3-3.1,0.3-4c0-1.6-1.4-5-1.5-5.2l0-0.1l-0.1-0.1c0,0-0.2-0.2-0.7-0.4c-0.7-5.8-1-15.3-0.7-17.7c0.4-3.5,2.9-7.5,7.5-12
			c4.2-4.2,7.6-12.4,9-16c1.7,9.3,8.9,21.7,10.1,23.7c-4.3,6.5-0.7,24.3,1.3,33.9c0.3,1.4,0.5,2.6,0.7,3.5c0.9,4.9,1.3,9.8,1.5,12.6
			c-2.2,0.5-4.9,1.5-6.2,3.4c-0.6,0.9-1.4,2-2.2,3c-2.4,3-3.8,5-3.5,6.2c0.1,0.3,0.2,0.6,0.5,0.8c1,0.6,2,4.2,2.3,6.4
			c0,0.1,0.9,3.1,3.5,3.1c0.2,0,0.4,0,0.7-0.1c0.5,0.2,1.9,0.8,3.3,0.8c0.8,0,1.4-0.2,2-0.5c0.8,0,3.7-0.1,4.6-1.1
			c0.4-0.4,0.9-0.6,1.5-0.8c0.7-0.3,1.4-0.6,1.8-1.2c0.6-1,3.4-13.6,3.9-16.2l0-0.1l-0.1-0.2c0.8-4.9,7.1-42.4,7.7-46.4
			C370.1,125.7,366.2,114.7,366,114.3z"/>
		<path d="M323.8,178.3L323.8,178.3l0,0.2c0.1,0.6,1.3,15.3,3.5,20.5c2.2,5.2,8.6,47,6.7,52.4l-0.1,0.2l0,0.2
			c0.7,3.1,2.4,11.6,1.9,13.6l-0.1,0.2l0.1,0.2c0,0.1,4.6,8.3,5.5,11.9c1,3.7,2.9,22.9,1.5,30.4c-0.7,3.8,2.1,14,3.8,20.1
			c0.5,1.7,0.9,3.4,0.9,3.7c0,0.4,0.3,1.3,1.2,3.7c1.2,3.3,3.3,8.8,2.9,10.6l0,0.2l0.1,0.2c1.7,3.6,5.8,13.4,5,16.2
			c-0.1,0.2-0.2,0.4-0.3,0.5c-1.6,0.8-5.3,1.4-9.9,1.3c-8.6,0-15.1-1.7-15.1-3.1c0-3.6,2.5-12.3,2.5-12.4l0-0.1l0-6.7l0.8-7.9
			c0.1-0.5,2.7-11.6-2.7-20.5c-5.2-8.6-12.9-23.9-13.5-30.8c-0.6-6.9-0.3-14.6-0.3-14.7l0-0.1l0-0.1c-1-2.8-3.5-10.5-3.3-12.5l0-0.2
			l-0.1-0.1c-0.1-0.2-8.7-20.6-13.4-35.2l-3.6-12.9l-3-2.3c0,0,3,6.9,3,8.8c-0.2,6.9-0.9,24.9-4.3,46.7c-0.1,0.3-1.3,6.8,0,11.3
			c1.3,4.4,4,19.3,1.3,25.4c-0.4,0.8-0.7,1.6-1.2,2.5c-2.8,6.1-6.7,14.5-7.3,21.7c-0.3,4,0.2,8.3,0.6,12c0.4,3.9,0.8,7.3,0.2,9.2
			c-1.3,4.1-1.3,7.1-1.3,7.2l0,0.2c0.4,1.6,1.4,6.1,0.7,7.6c-0.1,0.3-0.3,0.4-0.4,0.4c-1.7,0.6-30.1,0.8-41.4,0.8
			c-0.2-0.6-0.6-2,0-3.2c0.5-0.9,1.4-1.5,2.9-1.7c5.4-0.7,15.4-7.6,20.3-13c7.2-8,7.4-21,6.5-34c-0.6-9.4-0.6-28.9-0.6-29.2
			c0-0.1-2.1-13.2-0.3-17.4l0.1-0.1l0-0.2c-0.1-0.5-6.8-48.2-1.5-77.3l0.1-0.4l-0.2-0.1c-0.2-0.5-0.3-5.4,0.3-23.2
			c-0.3,0-1.4,0.7-1.5,1.7c-0.3,9.1-0.4,19.6,0.4,21.9c-5.2,28.4,1.1,74.3,1.5,77.4c-1.8,4.7,0.2,17.3,0.3,17.8
			c0,0.2,0,19.7,0.6,29.2c0.9,12.7,0.7,25.5-6.2,33.2c-4.8,5.3-14.4,12-19.7,12.7c-1.8,0.2-3,1-3.6,2.2c-1,2,0,4.3,0.1,4.4l0.1,0.3
			h0.3c1.6,0,39.7-0.1,42-0.9c0.4-0.1,0.7-0.4,1-0.9c1-2.1-0.3-7.4-0.6-8.3c0-0.5,0.1-3.2,1.3-6.8c0.7-2.2,0.3-5.7-0.2-9.7
			c-0.4-3.7-0.9-7.9-0.6-11.8c0.6-7,4.4-15.2,7.2-21.3c0.4-0.9,0.8-1.7,1.2-2.5c2.9-6.4,0.1-21.5-1.2-26.2c-1.2-4.2,0-10.7,0-10.8
			c3.3-21.6,4.1-39.5,4.3-46.6l1.8,6.5c4.5,14,12.6,33.4,13.4,35.2c-0.2,2.8,2.8,11.3,3.3,12.7c0,1-0.3,8.2,0.3,14.7
			c0.7,7.5,8.7,23.1,13.7,31.2c5.2,8.6,2.6,19.6,2.6,19.8l-0.8,8l0,6.6c-0.3,0.9-2.5,9-2.6,12.6c0,3.3,10.5,4.2,16,4.2
			c4.8,0,8.6-0.5,10.3-1.4c0.4-0.2,0.7-0.6,0.8-1.1c1.1-3.5-4-14.9-4.9-16.8c0.3-2.1-1.2-6.4-3-11c-0.5-1.4-1.1-3-1.1-3.3
			c0-0.3-0.2-1.3-1-4c-1.5-5.6-4.4-16-3.7-19.5c1.4-7.8-0.5-27-1.6-30.9c-0.9-3.5-4.8-10.7-5.5-11.9c0.5-2.9-1.5-12.1-1.9-13.7
			c1.8-6.3-4.5-47.6-6.8-53c-2.1-4.8-3.3-18.7-3.4-20c0.9-3.7-0.5-13.6-2-22c-0.3,0-0.6,0-1,0C323.8,167.9,324.5,175.6,323.8,178.3z
			"/>
		<path d="M271.7,159.7l0-0.2l-0.2-0.2c-0.5-0.4-0.6-1.2-0.6-1.5l0-0.2c-0.5-2.3-1.5-6.2,0.8-8.1l0.2-0.1l0-9.8
			c0-0.3,0-6.8-2.3-10.9c-1.1-2-4.8-9.9-8.2-18.2l-0.6-1.4l-0.5,2c-0.5,2.1-0.6,2.6-0.6,2.8c0,1.7-0.4,17.4-0.7,18.9
			c-0.3,1.7-0.3,4.1,0,9.8c0.2,4.2-2.7,22.8-4,30.5l0,0.3l0.2,0.2c3.7,2.5,2,8.8,1.9,8.9l-0.1,0.4l3,1.8l3.1,3.7
			c-0.3,0.9-1.2,3.7-2.3,5c-1.2,1.3-2.9,1.9-3.3,2c-0.4,0-1.7,0.2-3,2.3c-0.5,0.9-1.4,1.3-2.6,1.3c-1.4,0-2.8-0.6-4-1.7
			c-2.4-2.2-2.9-3.1-2.9-3.2c-2.2-4.1-1.1-14-0.5-18.1l0-0.1l0-0.1c-1.1-7-3.8-23.7-5.3-28.3c-1.8-5.4-0.3-14.6,1.3-19.4
			c1-2.9,0.5-4.9,0.1-7c-0.3-1.4-0.7-2.9-0.7-4.8c0-1.9-0.3-4.9-0.7-8.4c-0.7-6-1.6-13.5-1.1-19.1c1.1-14,14.1-20.7,18.1-22.4
			l0.1-0.1c0.1-0.1,0.3-0.2,0.4-0.3c6.5-3.9,13.8-6.6,13.9-6.6l0.1-0.1c0.5-0.3,12.2-8.1,13.2-11.9c0.6-2.3,1-8.3,1.2-13l0-0.2
			l-0.2-0.1c-0.9-0.7-2.4-2.3-2.4-5.2c0-3,0.1-3.7,0.8-3.7c0.2,0,1.1-0.4,1.4-0.2l0.3,0.2l0-0.8c0-1.2-0.2-2.5-0.3-3.8
			c-0.3-2.8-0.5-5.4,0.3-6.7c1.2-2.1,2.9-2.2,4.7-3.9c0.6-0.6,1.3-1.7,3.3-1.7c0.9,0,1.7,0.3,1.7,0.3l0.1-0.8l0.1,0
			c0.1,0,6-1.6,9.3-1.6c1.1,0,1.5,0.2,1.7,0.3c1.7,1.2,1.7,2.8,1.7,4.2c0,1.3,1,9.1,1.1,10l-0.7,3.6l0.1,0.2c0,0,1.2,2.1,0.9,5.2
			c-0.3,3-0.6,12-0.6,13.5c-0.2,0.2-1.3,0.6-1.9,1l-1,0.2l1.4,4.1l1.9,2.2c0,0,0.3,0.1,0.6,0.2l-2.5-5.4c0.8-0.5,2.2-1.6,2.2-1.6
			l0.2-0.1l0-0.2c0-0.1,0.3-10.4,0.7-13.6c0.3-3-0.6-5-0.9-5.6l0.9-3.3l-0.3-3.6c0-0.1-1.1-5.2-1.1-6.4c0-1.4,0-3.5-2.1-4.9
			c-0.4-0.3-1.2-0.5-2.2-0.5c-3.3,0-5,0-5.7,0.2c-0.2,0-3.3,0.3-4,0.4c-2.3,0.3-5.4,2.6-6.2,3.4c-1.8,1.8-2.9,2.2-4.1,4.4
			c-0.9,1.6-0.6,4.4-0.4,7.3c0.1,1,0.4,3.1,0.5,4.1c-0.2,0-0.6-0.3-0.7-0.2c-2.1,1.4-1.9,2.3-1.9,5c0,3.1,1.4,4.3,2.4,5.2
			c-0.3,6.4-0.7,10.9-1.1,12.6c-0.7,2.8-9.4,9.1-12.8,11.4c-0.7,0.3-7.7,2.9-14,6.7c-0.2,0.1-0.3,0.2-0.5,0.3
			c-4.2,1.8-17.5,8.8-18.6,23.2c-0.4,5.7,0.4,13.3,1.1,19.3c0.4,3.5,0.7,6.4,0.7,8.3c0,2,0.4,3.6,0.7,5c0.5,2.1,0.9,3.8,0,6.5
			c-1.6,4.6-3.3,14-1.3,20c1.5,4.5,4.2,21.1,5.2,28.1c-0.6,4.2-1.7,14.4,0.6,18.6c0,0.1,0.6,1.1,3.1,3.4c1.4,1.3,3.1,2,4.7,2
			c1.5,0,2.8-0.6,3.4-1.8c1.1-1.8,2-1.8,2.2-1.8l0.1,0l0.1,0c0.1,0,2.3-0.7,3.8-2.3c1.5-1.6,2.6-5.4,2.6-5.6l0.1-0.2l-3.5-4.1
			l-2.6-1.6c0.3-1.4,1.3-6.7-2.2-9.4c1.6-9.7,4.1-26.3,3.9-30.5c-0.3-5.6-0.3-7.9,0-9.6c0.3-1.7,0.7-17.9,0.7-19.1
			c0-0.1,0.6,2,0.8,1.1c3.1,7.4,6.1,11.9,7.3,14.1c2.1,3.8,2.1,10.4,2.1,10.4l0,9.3c-2.5,2.4-1.5,6.6-1,8.9c0,0.3,0.1,1.3,0.8,2
			c0,0.1,0,0.2,0,0.3c0.3,0,0.6-0.1,1-0.1C271.7,159.9,271.7,159.8,271.7,159.7z"/>
		<path d="M347.6,362.1c-2.7,0-5.5-0.2-7.8-0.5c0.5-4.5,2.1-9,2.9-11.3c0.6-1.6,0.8-2.2,0.8-2.9c0-2,0-19.6-0.5-24.3
			c-0.3-3.2-3-8.3-7.2-16.2c-2-3.7-4.1-7.6-5.3-10.4c-2.5-5.8-3.7-22.6-4-28.5l0-1.1l-0.7-0.8c-0.4-0.4-0.7-0.7-0.9-0.9
			c-0.5-0.4-1.2-2.5-1.9-6.1c-0.7-3.4-0.6-5.9-0.6-8.3c0-3,0.1-5.8-1.3-9.3c-1-2.4-3.7-9.8-6.6-17.5c-4.3-11.4-7.1-19-7.6-20.2
			c-1.1-2.5-3.9-6-4.2-6.4l-3.3-4.2l-1.9,5c-0.2,0.5-1.9,5-2.5,7.9l-0.9,4.4l2.5-0.4l0.3,1l-0.4,0.1c0,0.2-0.1,21.7-4.3,49.2
			c-0.2,1-1.3,7.6,0.1,12.4c1.6,5.7,3.6,18.9,1.4,23.7c-0.4,0.8-0.7,1.6-1.1,2.5c-2.9,6.3-6.9,14.9-7.5,22.5
			c-0.3,4.2,0.2,8.6,0.6,12.5c0.4,3.3,0.8,6.7,0.3,8.2c-1.4,4.5-1.4,7.8-1.4,7.9l0,0.4l0.1,0.4c0.5,1.7,0.8,3.8,0.9,5
			c-2.9,0.2-9.5,0.3-17,0.4c7.3-4.8,11.1-13.5,12.4-20.5c0.7-4.1,1-19.5,1.3-39.1c0.1-7.9,0.3-16.1,0.4-17.6c0.1-0.4,0.8-1,1.5-1.6
			l2.1-2.1c0.7-2.1-0.1-2.8-3.6-5.3c-1.1-2-0.7-10.6-0.5-14c0.2-3.2,0.2-4.5,0-5.4c-0.1-1.3-0.7-10.4-1.1-17.7
			c-0.2-4-0.5-8-0.7-11.4c-0.5-7.4,0-17.9,0.2-24.9c0.1-1.5,0.1-2.8,0.1-3.9l4.3-2.3c-0.4-1.4-2.3-8.4-4.7-11.4
			c-0.3-1.8,1.1-8.5,3.2-14.9l12.4-7.9l-7.8-0.7c-2.2-0.5-5.9-1.6-7.1-2.7c-0.5-0.5,0-2,0-2.2l0.3-0.7l-0.1-0.8c0,0-0.8-9.4-1-12.7
			c-0.3-3.9-3.8-15.3-5.5-19.3c0-0.6,7.1-9.5,7.1-9.5c-1.1,0.5-9.4,2-11.3,2c-0.8,0-1.2-0.2-1.2-0.2c-1.8-1.8-7.5-13.5-9.7-18
			c0,0-3.3,6.7-3.1,11c0.1,1.4-0.7,3.3-0.2,4.9c0.3,1,0.7,2.1,0.9,3.2l0-0.4l2.3,1.8c-0.2,0.9,0.3,4.5,0.3,4.9
			c0,2.8-0.4,13-0.8,15.4c-0.4,1.9-0.1,5.8,0.3,11.8c0.2,2.8-3,13.2-5.6,29.2l-0.3,1.9l1.6,1.1c2.1,1.4,0.9,6,0.9,6l-0.7,2.3
			l4.4,2.6l1.9,2.2c-0.4,1.1-1,2.2-1.3,2.6c-0.3,0.4-0.8,0.7-1.2,0.9l-0.8-2.3c-0.4-1.3-2.1-5.5-4.7-7.5c-0.5-1.1-0.6-4.7-0.4-7.9
			l0-0.3l-1.9-17.5l3.1-28.1l-6.1,6.7c0.3-3.7,2.5-8.7,3.3-10.4l0.4-0.7l0-0.8c0-0.2-0.6-21.3-0.9-32.1c-0.1-3.8,0.9-6.3,1.9-7.9
			l3.4,7.5c0,0,3.6-22.3,16.5-23.1c0.2,0,0.4-0.1,0.8-0.2c0.8-0.1,1.9-0.3,3.3-1.1c1.9-0.5,12.7-2,21.4-3.3
			c21.8-3.2,24-3.6,25.1-4.2l2-1.2l-0.4-1.5c15.9,2.9,24.7,5.1,27.6,8c3.6,3.5,8.8,12.5,8.6,17.8c-0.2,4.3,0.2,9.9,0.5,14.8
			c0.2,2.8,0.4,5.5,0.4,7c0,4.6,1.3,10.7,1.3,11l0,0.2l0.1,0.2c1.6,4.4,3.7,11.7,3.3,14.2c-0.3,1.7-1.8,11.1-7.7,46l-0.2,1.3l0,0.1
			c-0.1,0.3-0.1,0.5-0.2,0.8l-0.5-2.8c-0.1-0.4-7-37-7.2-45c-0.2-5.7,4.5-6.8,4.7-6.8l-0.1-6c-1.3-0.2-3.7-1-4.8-1.8
			c-1.4-1.1-4.7-6.3-5.2-7.7c-0.2-1.3-1.5-6.4-2.4-9.9l7.2-2l-4.2-3.8c0,0-2.2-1.9-5.5-4.8c-0.9-0.8-2.1-1.2-3.2-1.2
			c-4.2,0-6.8,5.4-9.4,10.5c-0.5,1.1-1.1,2.2-1.5,3c-0.3,0.5-2.2,3.1-8.4,3.1c-1.5,0-7.2,1-7.2,1c0,0,7.2,3.9,8.5,4.1
			c2.8,0.4,4.5,0.9,5.8,0.9c1.9,0,3.1-0.5,4.2-1.2c-1.2,2.2-2.6,4.2-3.9,5.5c-5.3,5.2-8.1,9.8-8.5,14.2c-0.3,2.9,0,12.9,0.7,18.8
			l0.2,1.7l1.2,0.6c0.4,1.2,0.8,2.5,0.8,2.9c0,0.3,0,1.2-0.3,3.7l-0.1,0.5l0.1,0.5c0.1,0.7,0.3,1.4,0.4,2.2l0,0
			c2.7,15.2,2.2,19.1,2,19.9l-0.1,0.5l0,0.5c0.1,1.6,1.4,15.8,3.7,21.2c2.3,5.3,8.1,45.8,6.7,50.5l-0.2,0.8l0.2,0.9
			c1.1,4.9,2.1,11.1,1.9,12.5l-0.3,1.2l0.6,1c1.2,2.2,4.5,8.6,5.2,11.3c0.9,3.5,2.8,22.3,1.5,29.3c-0.8,4.1,1.5,12.7,3.8,21.2
			c0.4,1.3,0.8,2.8,0.9,3.3c0.1,0.8,0.4,1.8,1.4,4.3c0.8,2.1,2.9,7.8,2.8,9.2l-0.2,1l0.4,0.9c2.5,5.4,4.5,11.2,4.8,13.6
			C354,361.7,351.5,362.1,347.6,362.1z M253.1,196.9c-0.6,0-1.4-0.3-2.3-1c-0.3-0.3-0.6-0.5-0.8-0.8l0.7-0.6c1,0.3,2.1,0.4,3.1,0.4
			c0.6,0,1,0,1.4-0.1c-0.5,0.5-1.1,1.2-1.6,2C253.5,196.9,253.3,196.9,253.1,196.9z M349.1,193.9c-0.6,0-1.6-0.4-1.8-0.5l-1-0.5
			l-1,0.2c-0.1-0.1-0.2-0.3-0.2-0.4c-0.4-2.3-1.1-5.1-2.4-7c0.2-0.3,0.5-0.7,0.9-1.3c1.3-1.7,3.2-3.4,5.4-5c1-0.7,2-1.1,2.9-1.1
			c1.1,0,1.9,0.5,1.9,0.5l4.5,3.1c-0.9,4.3-1.9,8.1-2.3,9.7c-0.1,0-0.1,0-0.1,0.1c-0.6,0.3-1.6,0.7-2.4,1.4
			c-0.5,0.2-1.6,0.3-2.5,0.3l-1,0l-0.7,0.5C349.2,193.9,349.2,193.9,349.1,193.9z M291.1,55.7c0.2-0.5,0.4-1,0.6-1.5l2.3,1.3
			C293,55.6,292,55.6,291.1,55.7z M298.8,47.6c0.1,0,0.3,0,0.5,0c1.3,0,2.5-0.2,3.5-0.4c0.5-0.1,1-0.2,1.5-0.2l4.5,5.9l0.5,0.3
			c0.3,0.2,1.1,0.7,3,1.2c-3.1,0.2-6.6,0.4-10.2,0.6c-0.3,0-0.6,0-0.9,0.1L298.8,47.6z M299.3,30.8l-1-0.1l-0.5-6.6l-1.7-1.4l1-2.6
			v-1.5c0-0.2-0.2-2.9-1.5-5.9c-0.1-0.1,0.7-1.1,0.7-2l0.1,0l0.3-0.1c1.6-0.4,6.2-1.6,8.6-1.6c0.2,0,0.3,0,0.4,0
			c0.3,0.3,2.1,0.7,2.1,1.8c0,1.3,0.5,6,0.8,8.5l-0.8,4.4l1,2.8c0,0,0.5,0.3,0.3,2.6c-0.1,1.5-0.7,5.8-0.8,8.5c-0.9-0.2-2.7,0-3.8,0
			c-1.6,0-4.8,0.2-6.2,0.5L299.3,30.8z"/>
		<g>
			<g>
				<path class="st0" d="M277.4,122c2.2-1.6,4.6-2.7,7.1-3.6c1.2-0.5,2.5-0.8,3.7-1.2c1.3-0.3,2.5-0.5,3.8-0.7
					c1.3-0.2,2.6-0.3,3.8-0.3c1.3,0,2.6,0,3.8,0.2c2.5,0.3,5.1,1.1,7.4,2.3c-2.5-0.5-5-0.8-7.5-0.8c-1.2,0-2.5,0-3.7,0.1
					c-1.2,0.1-2.5,0.2-3.7,0.4c-1.2,0.1-2.5,0.4-3.7,0.6c-1.2,0.2-2.5,0.5-3.7,0.8C282.3,120.5,279.9,121.2,277.4,122z"/>
			</g>
		</g>
		<path class="st2" d="M303.5,24.2c0,0-1.1,5.2-0.3,5.2c0.8,0,1.9-0.9,1.9-0.9L303.5,24.2z"/>
	</g>
	<g>
		<linearGradient id="SVGID_1_" gradientUnits="userSpaceOnUse" x1="217.4313" y1="429.8326" x2="394.6145" y2="407.8227">
			<stop  offset="0" style="stop-color:#DE6E21"/>
			<stop  offset="3.424460e-02" style="stop-color:#D35B1B"/>
			<stop  offset="7.423536e-02" style="stop-color:#CA4D17"/>
			<stop  offset="0.1234" style="stop-color:#C54415"/>
			<stop  offset="0.2078" style="stop-color:#C44214"/>
			<stop  offset="0.3265" style="stop-color:#BA3F12"/>
			<stop  offset="0.5291" style="stop-color:#9F380D"/>
			<stop  offset="0.7895" style="stop-color:#732C06"/>
			<stop  offset="0.9518" style="stop-color:#542400"/>
		</linearGradient>
		<path class="st3" d="M279.4,514.4h-6.2V331.1c0,0,1.3-0.8,3.1-0.8c1.8,0,3.1,0.8,3.1,0.8V514.4z"/>
		<polygon class="st4" points="28.5,430.4 231.8,411.7 233.8,514.4 28.5,514.4 		"/>
		<polygon class="st5" points="28.5,423.6 231.8,411.7 236.2,474.4 28.5,482.3 		"/>
		<radialGradient id="SVGID_2_" cx="442.8677" cy="640.7687" r="368.6519" gradientUnits="userSpaceOnUse">
			<stop  offset="0" style="stop-color:#06957D"/>
			<stop  offset="6.513160e-02" style="stop-color:#069C85"/>
			<stop  offset="0.2719" style="stop-color:#06AE98"/>
			<stop  offset="0.4141" style="stop-color:#06B59F"/>
			<stop  offset="0.5665" style="stop-color:#048B7D"/>
			<stop  offset="0.7361" style="stop-color:#02625D"/>
			<stop  offset="0.8704" style="stop-color:#004949"/>
			<stop  offset="0.9518" style="stop-color:#004042"/>
		</radialGradient>
		<polygon class="st6" points="278.2,358.2 491.4,387.4 490.7,514.4 279.4,514.4 		"/>
		<radialGradient id="SVGID_3_" cx="-145.4763" cy="475.8678" r="535.3453" gradientUnits="userSpaceOnUse">
			<stop  offset="0" style="stop-color:#06B59F"/>
			<stop  offset="0.2787" style="stop-color:#06957D"/>
			<stop  offset="0.4058" style="stop-color:#058C77"/>
			<stop  offset="0.6093" style="stop-color:#047567"/>
			<stop  offset="0.8627" style="stop-color:#014F4C"/>
			<stop  offset="0.9518" style="stop-color:#004042"/>
		</radialGradient>
		<polygon class="st7" points="-56.5,367.2 283.1,351.8 280.9,514.4 225.1,514.4 225.1,426.7 155.4,430.4 154.7,514.4 90.1,514.4
			89.4,435.5 28.5,438.4 28.5,517.7 -56.5,510.4 		"/>
		<polygon class="st1" points="255.9,369 256.9,514.4 279.3,514.4 279.4,368 		"/>
		<polygon class="st1" points="304.1,361.9 303.8,393.1 297.9,392.6 297.9,415.1 303.4,416.8 304.1,452.1 296.8,451.2 296.5,473.6
			279.3,472.6 276.6,358.7 		"/>
		<polygon points="491.4,398.8 279.8,372.7 -56.5,402.5 -56.5,383.7 283.1,340.8 491.1,383.8 		"/>
		<radialGradient id="SVGID_4_" cx="-139.8759" cy="407.4523" r="533.4857" gradientUnits="userSpaceOnUse">
			<stop  offset="0" style="stop-color:#06957D"/>
			<stop  offset="6.526938e-02" style="stop-color:#06A790"/>
			<stop  offset="0.1335" style="stop-color:#06B19B"/>
			<stop  offset="0.2047" style="stop-color:#06B59F"/>
			<stop  offset="0.3176" style="stop-color:#06AF9A"/>
			<stop  offset="0.4729" style="stop-color:#059D8C"/>
			<stop  offset="0.6528" style="stop-color:#038075"/>
			<stop  offset="0.8497" style="stop-color:#015855"/>
			<stop  offset="0.9518" style="stop-color:#004042"/>
		</radialGradient>
		<polygon class="st8" points="-56.5,361.7 284.3,324.8 280.9,362.6 -56.5,393.7 		"/>
		<radialGradient id="SVGID_5_" cx="376.6109" cy="439.6943" r="164.0052" gradientUnits="userSpaceOnUse">
			<stop  offset="3.172589e-04" style="stop-color:#06957D"/>
			<stop  offset="4.385684e-02" style="stop-color:#069C85"/>
			<stop  offset="0.1821" style="stop-color:#06AE98"/>
			<stop  offset="0.2771" style="stop-color:#06B59F"/>
			<stop  offset="0.8928" style="stop-color:#014A4A"/>
			<stop  offset="0.9518" style="stop-color:#004042"/>
		</radialGradient>
		<polygon class="st9" points="280.9,362.8 499.9,394.8 500.2,370.9 280.9,324.7 		"/>
		<path class="st1" d="M423.3,433.8c-0.2,0.3-0.5,0.5-0.9,0.7c-0.4,0.2-0.8,0.4-1.2,0.5c-0.5,0.1-1,0.1-1.5,0.1c0,0,0,0-0.1,0
			c0,0,0,0-0.1,0c0,0,0,0-0.1,0c0,0,0,0-0.1,0l-37.2-3.5c-0.4,0-0.7-0.2-1-0.4c-0.3-0.2-0.5-0.4-0.7-0.7c-0.2-0.3-0.3-0.7-0.4-1
			c-0.1-0.4-0.1-0.8,0-1.2l1.2-8.9c0.1-0.4,0.2-0.7,0.3-1.1c0.2-0.3,0.4-0.6,0.6-0.8c0.2-0.2,0.5-0.4,0.8-0.5c0.3-0.1,0.6-0.2,1-0.1
			c0,0,0,0,0,0c0,0,0,0,0,0c0,0,0,0,0,0c0,0,0,0,0,0l36.6,5.7c0.5,0.1,1,0.2,1.5,0.4c0.5,0.2,0.9,0.4,1.2,0.7
			c0.3,0.3,0.6,0.6,0.8,0.9c0.2,0.3,0.3,0.6,0.2,1l-0.7,7.3C423.6,433.2,423.5,433.5,423.3,433.8z"/>
		<path class="st1" d="M396.4,453.1c-0.3-0.2-0.6-0.4-0.8-0.7c-0.2-0.3-0.4-0.6-0.5-1c-0.1-0.4-0.2-0.8-0.2-1.2l0.4-9.1
			c0-0.4,0.1-0.8,0.2-1.1c0.1-0.3,0.3-0.6,0.5-0.9c0.2-0.3,0.5-0.5,0.8-0.6c0.3-0.1,0.6-0.2,1-0.2c0,0,0,0,0,0s0,0,0,0c0,0,0,0,0,0
			c0,0,0,0,0,0l36.3,3.5c0.5,0.1,1,0.2,1.5,0.4c0.5,0.2,0.9,0.4,1.3,0.7c0.4,0.3,0.7,0.6,0.9,0.9c0.2,0.3,0.3,0.7,0.4,1l0.4,7.5
			c0,0.3-0.1,0.7-0.3,0.9c-0.2,0.3-0.4,0.5-0.8,0.7c-0.3,0.2-0.7,0.4-1.2,0.5c-0.4,0.1-0.9,0.2-1.4,0.2c0,0,0,0-0.1,0c0,0,0,0-0.1,0
			c0,0,0,0-0.1,0c0,0,0,0-0.1,0l-37.3-1.3C397.1,453.3,396.7,453.2,396.4,453.1z"/>
		<path class="st1" d="M356.7,469.3c0.1-0.3,0.3-0.6,0.5-0.9c0.2-0.3,0.5-0.5,0.8-0.6c0.3-0.1,0.6-0.2,1-0.2c0,0,0,0,0,0s0,0,0,0
			c0,0,0,0,0,0c0,0,0,0,0,0l36.3,3.5c0.5,0.1,1,0.2,1.5,0.4c0.5,0.2,0.9,0.4,1.3,0.7c0.4,0.3,0.7,0.6,0.9,0.9c0.2,0.3,0.3,0.7,0.4,1
			l0.4,7.5c0,0.3-0.1,0.7-0.3,0.9c-0.2,0.3-0.4,0.5-0.8,0.7c-0.3,0.2-0.7,0.4-1.2,0.5c-0.4,0.1-0.9,0.2-1.4,0.2c0,0,0,0-0.1,0
			c0,0,0,0-0.1,0c0,0,0,0-0.1,0c0,0,0,0-0.1,0l-37.3-1.3c-0.4,0-0.7-0.1-1-0.3c-0.3-0.2-0.6-0.4-0.8-0.7c-0.2-0.3-0.4-0.6-0.5-1
			c-0.1-0.4-0.2-0.8-0.2-1.2l0.4-9.1C356.5,470.1,356.6,469.7,356.7,469.3z"/>
		<polygon points="499.9,394.8 489.7,397.3 485.9,392.9 		"/>
		<g>
			<polygon points="500.5,373.4 501.5,370.4 281.4,324.9 -56.5,360.4 -56.5,364.3 280.9,327.9 			"/>
			<polygon points="281.1,360.6 -56.5,392.2 -56.5,396.1 281.4,364.1 500,395.4 500,392 			"/>
			<polygon points="491.4,393 491.4,392.7 491.4,408.4 			"/>
			<rect x="28.5" y="398.1" width="0" height="15.8"/>
		</g>
		<polygon points="276.2,371.1 277.2,514.4 279,514.4 279.7,372.2 		"/>
		<path d="M296.3,417.1c0.2,0.1,0.6-1.2,0.7-1.1l0.3-21.9c-0.6,0.1-1.3,0.1-1.7-0.2c0,0,0,0-0.1,0l-0.4,22.1
			C295.6,415.9,295.7,416.9,296.3,417.1z"/>
		<path d="M297.8,451c-0.6-0.1-1.1-0.3-1.5-0.5c-0.2,0-0.4,0-0.7-0.1c0,0-0.1,0-0.1,0l0.1,23.5h2.2L297.8,451
			C297.8,451,297.8,451,297.8,451z"/>
		<polygon points="304.7,369 305,394.4 277.3,393.3 277.3,391.8 303.1,392.9 302.8,369 		"/>
		<polygon points="278.8,414.2 303.8,416.2 303.4,452 277.9,450.5 277.9,448.3 301.3,449.9 301.3,417.8 278.4,416.8 		"/>
		<polygon points="498.5,372.4 497.1,393.4 500,395.4 501.5,370.4 		"/>
		<polygon points="257.4,514.4 254.8,514.4 254.7,370.9 258.1,370.9 		"/>
		<polygon points="491.4,514.4 489.2,514.4 489.5,394.1 492.1,394.1 		"/>
		<polygon class="st1" points="279.2,474.5 302,475.6 304,509.2 297,508.2 298.5,514.4 279,514.4 		"/>
		<path d="M298.5,508.7c-0.6-0.1-1.1-0.3-1.5-0.5c-0.2,0-0.4,0-0.7-0.1c0,0-0.1,0-0.1,0l-0.3,6.3h2.6L298.5,508.7
			C298.5,508.7,298.5,508.7,298.5,508.7z"/>
		<polygon points="279.5,471.9 304.1,473.4 304,509.2 278.7,508.3 278.7,506 301.8,506.7 302,475.6 279.2,474.5 		"/>
	</g>
</g>
<g>
	<g>
		<g>
			<polygon class="st10" points="278.8,74.1 278.8,79.2 289.2,84.8 278.8,92.3 278.8,97.4 298.1,83.9 			"/>
		</g>
		<g>
			<polygon class="st10" points="317.4,68.6 317.4,74.5 307,83.1 317.4,89.7 317.4,95.6 298.1,83.9 			"/>
		</g>
		<g>
			<path class="st10" d="M295.2,70.5l7.6-1.1v2.2l-4.8,0.7v2.7l4.5-0.6v2.2l-4.5,0.5v4.4l-2.8-1.4V70.5z"/>
		</g>
		<g>
			<path class="st10" d="M293.5,89.8c1-0.2,2.4-0.4,3.8-0.5c2.4-0.2,3.9,0.1,5.1,0.9c1.3,0.8,2.1,2.2,2.1,4.3c0,2.3-0.9,3.9-2.1,4.9
				c-1.3,1.1-3.3,1.6-5.8,1.7c-1.5,0-2.5,0-3.2-0.1V89.8z M296.3,99c0.2,0,0.6,0,1,0c2.6-0.1,4.2-1.5,4.2-4.3c0-2.4-1.5-3.6-3.9-3.5
				c-0.6,0-1,0.1-1.3,0.2V99z"/>
		</g>
	</g>
</g>
</svg>
