<?xml version="1.0" encoding="utf-8"?>
<!-- Generator: Adobe Illustrator 25.0.1, SVG Export Plug-In . SVG Version: 6.00 Build 0)  -->
<svg version="1.1" id="Layer_1" xmlns="http://www.w3.org/2000/svg" xmlns:xlink="http://www.w3.org/1999/xlink" x="0px" y="0px"
	 viewBox="0 0 180 485" style="enable-background:new 0 0 180 485;" xml:space="preserve">
<style type="text/css">
	.st0{fill-rule:evenodd;clip-rule:evenodd;}
	.st1{fill-rule:evenodd;clip-rule:evenodd;fill:#EF4E4C;}
	.st2{fill-rule:evenodd;clip-rule:evenodd;fill:#79000E;}
	.st3{fill-rule:evenodd;clip-rule:evenodd;fill:#220000;}
	.st4{fill-rule:evenodd;clip-rule:evenodd;fill:#402E2E;}
	.st5{fill-rule:evenodd;clip-rule:evenodd;fill:#886F6F;}
	.st6{fill-rule:evenodd;clip-rule:evenodd;fill:#05B39E;}
	.st7{fill-rule:evenodd;clip-rule:evenodd;fill:#C28163;}
	.st8{fill-rule:evenodd;clip-rule:evenodd;fill:#8A4E39;}
	.st9{fill-rule:evenodd;clip-rule:evenodd;fill:#FFFFFF;}
	.st10{fill-rule:evenodd;clip-rule:evenodd;fill:#FDC140;}
	.st11{fill-rule:evenodd;clip-rule:evenodd;fill:#8E5001;}
	.st12{fill:#05B39E;}
</style>
<g>
	<path class="st0" d="M44,204.9c0,0-0.7,109.6-16.6,187.7c16.8,0.9,21.8,29.1,35.4,14.5c13.6-14.5,12.7-27.7,27.7-24.5
		c15,3.2,11.3,11.8,26.8,8.2c15.5-3.6,8.1-27.5,29.1-20.2c21,7.2,21.2-15.7,31.2-17.5C164.2,274,163,243.1,157.8,204
		C152.7,164.9,102.2,193.3,44,204.9z"/>
	<path class="st0" d="M99.8,300.5C97.6,267,75.9,220.8,75,226.1c-3.4,48.3,4,100.4,6.1,122c1.2,12.9,1.5,24-1.7,36.5l0,0
		c2.7-2.3,6-3.1,11.2-2c6.2,1.3,9.2,3.6,11.7,5.5C98.6,361.2,101.9,334,99.8,300.5z"/>
	<path class="st0" d="M154,209.7c5.2,38.5,6.6,76.2,8.2,90c1.8,15.5,5.6,38.4,7.7,60.3c2.3-3.4,4.5-6.3,7.8-6.9
		C164.2,274,163,243.1,157.8,204c-0.2-1.3-0.4-2.6-0.7-3.7C155.6,204.5,154.4,208.2,154,209.7z"/>
	<path class="st0" d="M44,204.9c0,0-0.7,109.6-16.6,187.7c16.8,0.9,21.8,29.1,35.4,14.5c7.6-8.1,7.5-33.6,7.7-43.5
		c0.8-43.7-1.2-100.2-8.8-138.7C59.2,212.4,52.4,201.5,44,204.9z"/>
	<path class="st1" d="M55.2,173.1c0,0,2.7-11.7,15.2-20l0.4-8.2l-0.9-2.7c0,0-3-1.7-3.1-5.5c-0.1-2.8-0.7-4.7-0.1-6.1
		c1.3-3,0.6-4,0.7-7.8c0.1-3,0.6-6.7,2.1-9.9c3.4-7.1,8.9-9.6,16-10c7.2-0.5,15.6,4.4,17,12.4c0.3,1.9,0.5,3.5,0.6,4.9
		c0.5,7-0.1,4,1.7,8.4c0.2,0.4,0.3,0.8,0.3,1.3c0,0.6,0.2,1.3,0.1,2c-0.2,2.6-0.5,4.6-2.4,6.1c0,0,0.9,2.7,1.8,5.3
		c4.2-8.4,15.4-10.3,16.2-8.6c3.1,6.1-9,29.8-9,29.8l-26.7,19.5l-23.6-1.7L55.2,173.1z"/>
	<path class="st2" d="M58.6,175.6c0,0-0.5-10.2,12-18.5c0.5,4,0.9,8,1.5,12.1c0.6,4.6,0.9,4.1,0.8-0.1l-0.8-24.7
		c0-0.4-1.7-3-1.8-6.3c-0.1-2.8-1.2-4-1.4-6.1c-0.3-3.6,0.5-4.8,0.6-8.6c0.3-10.9,6.5-16.5,15-16.9c10.9-0.5,16.3,4,17.3,15.6
		c0.4,4.3,1.5,5,1.5,7.7c0,2-0.4,3.3-0.5,6c0,0.9-0.6,2-0.7,2.6c0,0.2,0.1,1.9,0.6,5.4c0.2,1.1-1.3,2.3-3,4.6
		c-3.6,4.7-6,8.9-8.1,14.3c-0.7,1.9-1,3.1,0.8,0.4c0.3-0.5,0.7-1.1,1.1-1.7c3.8-5.8,7.5-10.9,10.6-13.2c-0.3,2.7-1.7,8.3-3.1,14
		c-0.1,0.3,2.7-1.3,3.8-3.7c1.3-2.9,1.1-6.8,1.3-8.9c0.4-4.1,2.7-7.8,3.3-8.3c5-4.7,10.9-7.4,11.5-6.2c3.1,6.1-9,29.8-9,29.8
		l-26.7,19.5l-23.6-1.7L58.6,175.6z"/>
	<path class="st0" d="M68.9,331c-0.3,2-0.6,11.1,0.9,17.8c1.5,6.6,5,5.6,6.3,5.5c1.3-0.1,8.3-6.7,10.2-19.9c0,0-3-7.9,0-12.8
		c3-4.9,5.7-11.9,2.4-15.1c-3.3-3.2-10.2-3.3-13.6,5.1C71.6,320.1,69.2,328.4,68.9,331z"/>
	<g>
		<path class="st2" d="M58.6,226.9c0,0-6.9-1.3-13.9,2.9c-7.1,4.2-7.9,9.5-20.9,11.1l1,19.3c0,0,9.7-2.6,20.5-2.3
			c10.8,0.3,13.3,0.1,22.5-5c9.2-5.1,10.5-4.9,10.5-4.9s-4.6-14.8-5.3-15.9C72.3,231.1,68.9,228,58.6,226.9z"/>
		<path class="st3" d="M28.6,254.3c0,0,9.3-1.3,16.2-0.5c7,0.9,12.9-0.6,15.8-3.7c2.8-3,5.2-6.3,4.5-8.4c-0.7-2.2-5.3-4.3-8.5-3.4
			c-3.2,0.9-0.3-0.6-0.1-1.8c0.2-1.2,1.1-2-0.5-4.4c-0.8-1.2,2.8-3.1,6.5-4.6c7.2,1.4,16.7-5,17.3,1.8c0.6,6.8-2.1,14.8-1.1,19.6
			c-3.2,2.7-6.6,2.3-13.1,5.2c-7.8,3.5-10.5,3.8-20.5,3.5c-10.8-0.3-20.5,2.7-20.5,2.7l-0.2-4.5C25.4,255.1,26.7,254.5,28.6,254.3z"
			/>
		<path class="st4" d="M46.1,228.5c-0.5,0.3-1.1,0.6-1.7,0.9c-7.1,4.2-7.6,10.7-20.6,12.3l0.9,17.8c0,0,9.7-2.1,20.5-1.8
			c3.2,0.1,5.7,0.5,7.9,0.5c3.9,0,6.7-0.5,10.6-2.3C68.4,244.1,58,230.8,46.1,228.5z"/>
		<path class="st0" d="M28.6,254.3c0,0,9.3-1.3,16.2-0.5c7,0.9,12.9-0.6,15.8-3.7c1.5-1.6,2.8-3.2,3.6-4.7c0.9,3.4,0.8,6.9-0.5,10.4
			c-3,1.5-5.4,2.1-8.2,2.3c-2.8,0.2-5.9-0.3-10.3-0.4c-10.8-0.3-20.1,1.7-20.1,1.7l-0.6-3.6C25.4,255.1,26.7,254.5,28.6,254.3
			L28.6,254.3z M61.1,238.5c-1.4-0.5-3-0.6-4.4-0.2c-3.2,0.9-0.3-0.6-0.1-1.8c0.1-0.8,0.6-1.4,0.4-2.5
			C58.5,235.3,59.9,236.9,61.1,238.5z"/>
		<path class="st5" d="M46.1,228.5c-0.5,0.3-1.1,0.6-1.7,0.9c-7.1,4.2-7.6,9.9-20.6,11.5l1,19.3c0,0,9.7-2.6,20.5-2.3
			c4.7,0.1,8,0.4,10.8,0.1c-7.2-0.6-8.2-1.2-12.5-1.6c-7.2-0.6-9.2-0.6-13.1-0.6c-0.9,0-0.5,2.2-3,3.2c1.6-4.1-3.6-12.9-1.3-18.4
			c1.6,0.2,1.4,2.2,2.1,2c5.1-1,8.8-3.9,10.5-6C41.2,233.5,44.3,230.6,46.1,228.5z"/>
		<path class="st3" d="M47.6,212.9c0,0-3.7,6-0.1,14c3.6,8,19.2,10.5,23.9,5.6C76.1,227.7,56,195,47.6,212.9z"/>
		<path class="st2" d="M47.5,220c-0.3,2.1-0.6,3.9,0.9,6.2c2.2,3.3,5.3,4.5,9,4.1c3.7-0.3,0-1.7-1.4-5.1c-1.4-3.3-1.9-6-3.4-6.7
			c-1.5-0.6-2.2-0.8-3-1.3C48,216.4,47.8,218,47.5,220z"/>
		<path class="st1" d="M48.5,215.6c0,0-1.1-2.3-1.4-1.6c-0.9,2.1-2.3,7,0.4,12.9c2.1,4.7,8.5,7.5,14.3,8
			C49.5,232,46.1,224.3,48.5,215.6z"/>
		<path class="st0" d="M27.3,243c0,0,1.2,1.2,1,2.4c-0.2,1.2,1,2.4,2.8,2.5c1.7,0.1,7.1,0,12.5-0.7c5.4-0.7-5.5,2-8.3,2.3
			c-2.8,0.3-3.5,1.1-3.5,2.3c0.1,1.2,0.1,2,4.6,1.8c4.5-0.2-0.5,1.2-0.5,1.2l-8.2,0.3l-2.1-5.2l-1.7-4.9L27.3,243z"/>
		<g>
			<path class="st5" d="M25.5,246.1c0,0,1.7-1,2.2-2.2c0,0-1.4-3.6,0.9-7.7c0,0-3.4-3-2.6-7.9c0,0-2.1-1.7-6-1.3
				c0,0-1.7,1.2-2.8,3.4c0,0-1.9-0.5-4.1-0.6c0,0-5.3,3-9.6,7.5c0,0-1.3,1.4-3.3,4.6c0,0,0.2,1.8,2.5,2.4c0,0-0.2,1.9-1.1,2.5
				c0,0-0.2,2.7,3,3.5c0,0,0.1,2.2-0.6,2.7c0,0,0.6,3.9,5.6,4.5c0,0,0,1.4-0.5,2.2c0,0,2.2,3.3,7.8,2.8c0,0,0.1,0,0.3,0
				c1.4-0.3,2.5-1,3.6-1.2c1.1-0.2,2.2,0.1,3.7-0.1c1.4-0.2,2.9-0.9,4-2.5C31,254.8,30,247.6,25.5,246.1z"/>
			<path class="st4" d="M25.5,246.1c0,0-3.6-0.1-5.4-4.6c5.4,2.5,5.9,0.9,5.2-0.5c-0.5-1-0.6-2.4,0.4-4.1c0,0-2.5-1.7-1.7-6.5
				c0,0,0.8-1.9-3.1-1.5c0,0-1.9,2.1-1.9,5.4c0,0-3-2-5.2-2.1c-3.4,1.9-6.6,4.3-9,7.4c-1.1,1.4-2.5,2.3-0.5,3.5c1.7,1,1.7,0.3,1,2.8
				c-0.7,2.3-1.6,1.9,1.1,3.2c1.1,0.5,1.3,0.6,0.7,2.6c-0.9,2.6-0.6,3.3,3.2,4.2c1.6,0.4,2.1,0,1.4,2.3c-0.4,1.3-0.8,2.1,0.8,2.9
				c2.3,1.1,6.4-0.6,8-1.9c0,0,1.9,1,4,0.5c3.8-0.8,5.3-4.7,5.2-6.6C29.6,250.3,28.5,247.1,25.5,246.1z"/>
			<path class="st0" d="M27.8,247.1c-0.5-1.4,0.7-2.1-0.1-3.3c-2,1.2-5.6-0.3-7.1-1.7c-1.8-1.6-1.6-3.9-1-5.3
				c0.5-1.3,0.3-2.4-0.3-3.6c-0.5-1.2-3.3-3-2.2-1.6c1.1,1.4,1.1,4.6,0.4,5.1c-0.7,0.5-1.7,1-1.8-0.1c-0.1-1-0.4-1.9-1.3-2.5
				c-0.8-0.7-0.1,2.5-0.2,3.3c-0.1,0.8-3.2,2.4-5.4,3.6c-2.2,1.2-2.5,2.3-2.5,2.3s-0.1,1,1.7-0.3c1.8-1.3,2.3-1.6,3.6-2.3
				c1.4-0.7,2.8-1.7,4-0.4c1.2,1.3,2.7,3.4,1.3,4.5c-1.4,1.2-4.3,2.3-5.9,2.9c-1.7,0.6-3.5,1-2.3,1.3c1.2,0.4,3.8,0.3,5.4-0.2
				c1.6-0.4,3.2-1.6,3.7-2.4c0.5-0.8,1-1.9,2-1.5c1.1,0.4,2.4,2.9,1.3,4c-1,1-4.1,2.2-6.2,3.4c-2.1,1.2-4.1,2.2-2.8,2.5
				c1.2,0.3,3.6-0.3,4.8-0.9c1.3-0.7,4.4-3.4,5.7-3.2c0.7,0.1,0.6,1.4,0.1,3.1c-0.5,1.7-2.5,5-1.4,4.4c1.1-0.7,2.4-1.5,3-3.4
				c1-3,5-3.9,5.5-1.6c0.1,0.2,0.7,0,0.8,0.2C31,249.1,27.8,247.1,27.8,247.1z"/>
		</g>
	</g>
	<path class="st1" d="M57.7,218.1c-16.9-1.5-22.3-14.2-16-29c3.2-7.6,7.2-12.2,11.4-15.2c9.7-6.8,19.1,1.6,21.7,6.1
		C76.2,182.5,57.7,218.1,57.7,218.1z"/>
	<path class="st2" d="M57.7,218.1c-12.9-1.6-16.9-11.2-14.6-22.6c1.7-8.6,4.8-13.4,12.1-18.3c5.4-3.6,10.2-4,13.9-2.9
		c1.9,0.6,3.4,2.2,4.7,3.3c0.8,0.7,1.4,0.9,1.9,1.6C77,181.7,57.7,218.1,57.7,218.1z"/>
	<path class="st3" d="M57.7,218.1c-8.1-1.2-12.4-4.5-14.3-10.4c12.5,15.1,4.9-6.3,12.6-15c6-6.8,8.1-11.6,6.3-12.1
		c-7.8-2.2-12-1.2-18.3,3.7c2.7-4.8,5.8-8.1,9-10.3c9.7-6.8,15.7,0,18.3,4.5C72.9,180.9,57.7,218.1,57.7,218.1z"/>
	<path class="st3" d="M70.5,173c0,0,1.4,2.6,1.7,1.5c0.3-1.1,0.8-1.9,0.9-0.3s-0.1,3,1.4,3.2c4.1,0.5,5-0.3,4.3-4.7
		c-1.1-5.3-4.5-17.3-4.5-17.3c-0.5-1.3,0.2-1.9,0.5-1.1c0.3,0.8,1.8,4.7,4.4,12.1c1,2.9,2,5.5,2.4,6.8c0.9,2.8,2.3,3.4,4.2,0.9
		c0.9-1.1,2.1-3.1,3.6-6.7c0.3-0.6,0.8-1.3,0.7-0.3c-0.1,1-0.3,2.3,0,2.8c0.2,0.3,1.9-1.1,3.7-3.1c3.2-3.7,4.7-8.6,7.2-12.8
		c1.5-2.7,2.7-3.2,1,0.9c-1.7,4.1-2.1,5.7-2.7,7.9c-0.2,1,0.1,1,0.6,0.5c0.5-0.4,3-5.8,5.5-16.3c2.4-10.5,1.5,14.4,1.5,14.4
		l-24.3,21.2l-14.3-2.2L70.5,173z"/>
	<path class="st3" d="M70.4,153.2c0,0-4.6,4.8-4.5,7.8c0.1,3,6.6,13.3,5.9,17.4c-8.4-3.2-11.9-8.2-11.9-7.7c0,0.5,0.8-14,0.8-14
		S65.9,152.4,70.4,153.2z"/>
	<path class="st2" d="M98.8,292.2c-2.5,6-11.4,11.9-15.6,17.1c-2.2,2.7-4.1,6-7,13.3c-2.6,6.5-6.8,13.1-13.3,14.8
		c-0.9,0.2-5.2,0.5-6.2,0.5c-1.2,0.9-3.9,1.5-7.8,6.1c0,0-10.8-0.2-16.2-6.9c-0.2-2.5-0.2-5.3-1.1-8.1c-1-0.9-1.5-1.1-3-4.6
		c-1.2-2.7-1.8-6.1-0.8-10.3c1.4-5.9,4.2-9,6.3-14.2c9-22.3,17.1-25,42.5-37.2c0.8-0.4,1.5-0.7,2-0.9
		C83.2,260.4,104.5,274.8,98.8,292.2z"/>
	<path class="st3" d="M61.1,327.4c0,0,4.7-3.4,4.7-12.2c0-8.8,5.3-11.7,10.3-16.6c5-4.9,8.4-7.8,9.4-15.2c1-7.4,3.9-10.8,0.7-15.5
		c3.9-0.2,9,6.5,9.6,9.2c0.6,2.6,1,7.2-0.1,4.8c-1.1-2.4-1.5-3.2-2.7-2.3c-1.1,1-2.8,7.3-6.4,12.9c-3.6,5.6-6,7.9-12.5,12.3
		c-6.5,4.4-6.4,6.9-6.5,12.2c-0.1,5.2,0.8,9-3.3,10.7C60.3,329.3,59.4,328.5,61.1,327.4z"/>
	<path class="st3" d="M59.9,335.9c0,0,6.9-0.6,9.2-8.3c2.3-7.7,1.5-11,3.3-15c1.8-4,2-7.3,10.7-10.9c8.6-3.6,13.8-10.4,12.7-16.6
		c-1-6.3-2.2-9.4-3.5-12.3c-0.9-1.9,2.8,1.9,5.5,4.7c2,4.4,2.8,9.4,1,14.8c-2.5,6-11.4,11.9-15.6,17.1c-2.2,2.7-4.1,6-7,13.3
		c-2.6,6.5-6.8,13.1-13.3,14.8c-0.4,0.1-1.5,0.2-2.6,0.3L59.9,335.9z"/>
	<path class="st0" d="M157.1,371.6c0.5-26.9-0.4-98.5-6.9-160.4l-18.5,55c-5.5,21.6-11.3-2.1-25,16.1c1,18.1-0.3,61.5,0.4,72.8
		c0.8,13.8,2.1,30.3,3.9,36.5c1.7,0,3.8-0.3,6.4-0.9c15.5-3.6,8.1-27.5,29.1-20.2C150.8,372,154.2,372.3,157.1,371.6z"/>
	<path class="st3" d="M81.2,266.6c-4.1,2.1-7.1,4.2-9.2,6.5c-2.1,2.3,1.3,0,3.3-1.2c2-1.2,7.4-5.2,10.7-2.7c3.3,2.4,2.5,4.9,2.9,5.5
		c0.4,0.6,2.8-4.7,2.8-4.7l-6.9-4.9C83.5,265.6,82.6,265.9,81.2,266.6z"/>
	<path class="st1" d="M72.1,330.3c-2.4,3.4-5.4,6.1-9.3,7.2c-0.9,0.2-5.2,0.5-6.2,0.5c-1.2,0.9-3.9,1.5-7.8,6.1
		c0,0-10.8-0.2-16.2-6.9c-0.2-2.5-0.2-5.3-1.1-8.1c-1-0.9-1.5-1.1-3-4.6c-1.2-2.7-1.8-6.1-0.8-10.3c1.4-5.9,4.2-9,6.3-14.2
		c9-22.3,17.1-25,42.5-37.2c0.8-0.4,1.5-0.7,2-0.9c1-0.4,4.9,1.4,2.8,2.7c-7.3,4.4-34.5,12.6-42.8,36.7c-0.2,0.6-9.8,12.3-5.6,23.6
		c0.4,1,2.9-7.3,2.8-4.3c-0.2,4.1-1.2,8.7-0.7,12.8c0.2,1.3,0.3,2.6,1.3,2.8c1.9,0.4,3.6,0.3,5.6,1.2c2,0.9,4.2,3.1,5.1,3
		c3.8-0.3,8.2-8,11.6-9.4c1.3-0.5-2.8,4.2,0.7,4C63.7,335,67,334.7,72.1,330.3z"/>
	<g>
		<path class="st2" d="M148.9,260.9c1,11.7,0.3,15,1,25.5c0.8,10.4,3.2,31.1,0.8,40.9c-2.4,9.8-8.6,13.6-10.2,24
			c2.6,5,5.5,8.7,6.9,12.8c1.4,4.2,4.9,13.9-9.3,42l-19.9,0.5c0,0-6.5-11.8-5.3-18.4c1.2-6.6,3.4-11.9,4.6-14.3
			c-0.8-1.3-4.4-4.3-3.9-14.4c-1.6-2.5-8-8-3.4-31.8c-1.4-4.9-8-19.6-3.8-32.7C110.5,281.9,148.9,260.9,148.9,260.9z"/>
		<path class="st3" d="M146.8,317.7c0,0-0.7-12.3-2.4-19.7c-1.8-7.4-4.9-15.8-5.4-12.4c-0.5,3.5,1,14-3.2,24.9
			c-4.2,10.9-6.8,16.6-7.6,20.6c-0.8,4.1,2.2,0.4,5.1-5.5c2.9-5.9,5-10.7,4.9-6.7c-0.2,4,0.9,12.5-1.8,16.7c-2.7,4.2-5.7,7.4-6,9.2
			c-0.3,1.8,1,6.5,1,9.7c0,3.2,1.2,4.5,1.6,6.5c0.4,2-0.1,3.7-1.9,4.8c-1.9,1.2-5.7,1.2-7.4,0.6c-1.6-0.6-1.7-2.4-3-3.4
			c-1.3-1-0.8,2.6,0.1,5.1c1,2.7,2.6,3.8,3.1,6c1.1,4.9-0.9,10.5-2.2,17c-1.7,8.4,14.3,6.8,13.6,0.5c-1.1-10.3,1-19.9,2.2-22.7
			c1.2-2.8,2.1-7.8,1.2-10.5c-0.9-2.7,0-8.9,0-8.9s4.5-10.6,6.9-16C148,328.1,147.4,324.8,146.8,317.7z"/>
		<path class="st1" d="M114,312.5c0.8-2,2.5-5.5,2.1-2.6c-0.5,3.3-1.7,9.4-2.3,12.8c-1.8,10.8-3.3,22.7,3,35
			c0.3,0.5,1.4,2.1,1.6,2.5c0.2,0.6,0,0.7-0.8,0.5c-0.5-0.1-0.9-0.2-0.8,1.2c0.4,5.1,2.2,8.2,5.1,11.1c0.9,0.9-0.3,2.7-1.8,5.6
			c-3.9,7.9-3.1,17.6,2.1,27.9l-4.3,0c0,0-6.5-11.8-5.3-18.4c1.2-6.6,3.4-11.9,4.6-14.3c-0.8-1.3-4.4-4.3-3.9-14.4
			c-1.6-2.5-8-8-3.4-31.8c0.7-3.4,1.2-6.8,2.4-10.1C113,316.1,113.6,313.6,114,312.5z"/>
		<path class="st3" d="M110.1,327.7c0,0,1.4-7.4,2.4-10.1c-0.9,1.3-1.8,2-2.3,1.4c-0.5-0.6-2.2-5.8-1.4-10.7
			c0.8-4.9,4.9-12.6,11.8-17.8c6.9-5.3,12.7-7.2,16.9-8.8c4.2-1.6,5.2-8.9,5.5-11c-3-2-21.1,8.3-21.1,8.3l-11.3,9.3
			c-2.1,2.4-3.7,4.7-4.4,6.8C102.1,308.1,108.7,322.8,110.1,327.7z"/>
		<path class="st1" d="M148.9,260.9c1,11.7,0.3,15,1,25.5c0.8,10.4,3.2,31.1,0.8,40.9c-2.4,9.8-8.6,13.6-10.2,24
			c2.6,5,5.5,8.7,6.9,12.8c1.4,4.2,4.9,13.9-9.3,42l-3.5-0.6c0,0,17.6-26.1,4.7-45.2c-0.8-1.2-1.2,2.7-2.9,5c-1.9,2.4-0.7-3.9-0.4-7
			c0.5-5.2-0.4-5.2,1.2-10.2c3.6-11.4,9.1-18.2,9.1-33.1c0-6,1-15.9-0.5-29.5c-0.5-4.5-3.3-9.8-2.6-14.9
			C144.2,261.5,148.9,260.9,148.9,260.9z"/>
		<path class="st5" d="M112.7,385.5c11.5,5.9,25,5.3,34.2,1.7c0,0-1.3,6.6-8.6,21.1c-7.3,14.6-11.4,26.5-11.4,26.5s1.8,5.1,0.9,6.2
			c-0.9,1.1-2,2.8-2,2.8s0.2,17.5-0.4,25.9c0,0-2.5,8.6-13.4,11.1c0,0-1.8-0.2-2.5-1.6c-0.7-1.4-4.8-10.4-2.7-19.1
			c0,0,3.3-4.7,5.3-12.2c2-7.6,0.8-11.7,0.7-12.8c0.2-1.4,1.2-2.7,3.1-4.1c1-4.4,2.3-17.8,0-24.6C113.4,399.6,110,394.8,112.7,385.5
			z"/>
		<path class="st4" d="M117.1,387.4c8.8,3.2,18.3,3.1,25.8,1.1c-1.7,7.6-6.9,15.4-8.9,19.5c-7.2,14.6-9.1,25.8-9.3,26.9
			c-0.2,1.1,1.1,2.9,0.7,4.5c-0.5,1.6-1.7,1.9-1.8,4.5c-0.1,2.6,0.1,9.9-0.5,18.2c-0.3,4.3,0.7,10.3-9.5,15.8
			c-0.6,0.3-1.7-0.2-2.3-1.7c-0.7-1.4-2.2-9-0.8-13.9c0.4-1.4,1.8-2.2,3.8-9.8c2-7.6,1.7-13,1.8-15.6c0-1.4,2.5-3.6,2.7-4.5
			c1-4.4,2.9-18.7,0.6-25.5C118.1,403.3,115.4,394.1,117.1,387.4z"/>
		<path class="st0" d="M121.2,388.7c-0.2,1.7-0.5,6,0,9.6c0.7,4.6,1.9,12,0.8,20.5c-1.1,8.5-0.8,13.6-2.3,16
			c-1.4,2.4-2.6,3.2-2.2,5.4c0.4,2.3-1.2,11.2-2.1,16.3c-0.9,5.2-4.9,16.3,0.1,14.4c5-2,5.5-6.4,5.7-10.6c0.3-4.1,0.6-17.6,1.3-19.3
			s1.4-4.2,1-6.7c-0.4-2.5,4.1-16.5,6.5-23.3c2.4-6.6,5.5-11.1,5.9-21.4C131.3,390.2,126.2,389.9,121.2,388.7z"/>
	</g>
	<path class="st2" d="M80.7,242.6c0.2,5.9-0.4,14-4.1,20.2c0,0,10.8,2.7,16.5,12.6c5.7,9.9,5.7,16.1,5.7,16.1s6.2,2.4,7.9,2.6
		c14.3-13.9,35.7-18.9,42.2-33.3c0,0-1.8-17.4-3.1-23.5C144.5,231.3,91.1,239.3,80.7,242.6z"/>
	<path class="st3" d="M114.2,265.9c-10.4,0.3-20.5-2.1-25.5-4.9c0,0.4-0.1,0.6-0.3,0.9c-1.3,2.1-2.5,2.6-5.3,3.9
		c1.3,1.3,2,1.3,3.7,2.8c2.1,1.8,4.3,4.1,6,7.1c5.7,9.9,5.9,16.6,5.9,16.6s4.5,2.9,7.6,2.7c11.2-10.8,27.5-14.7,36.8-24.3
		c1.1-1.1,1.9-2.5,2.8-3.8c2.5-3.7-1.6-12.7-2.3-16.2C130.6,264.4,123.8,265.1,114.2,265.9z"/>
	<path class="st1" d="M80.7,242.6c0.2,5.9-0.4,14-4.1,20.2c0,0,1.8,1.6,4.7,1.9c2.5-5.6,2.8-7.5,3.5-13.8
		C81.4,251.6,82.3,242.1,80.7,242.6z"/>
	<path class="st1" d="M143.1,270.6c2.7-2.7,4.8-5.8,5.7-9.6c0,0-0.8-8.1-1.8-15.2c0-0.2-0.1-0.5-0.1-0.7c-0.4-3.5-0.7-6.5-1-7.7
		c-0.5-2.4-2.2,0.5-3.6,3.9c-0.7,1.8-1.8,3.7-1.8,5.3c0,2.8-0.3,5.6,0.3,8c0.1,0.6,0.4,1.1,0.5,1.6
		C142.7,261.5,143.6,265.1,143.1,270.6z"/>
	<path class="st6" d="M71.9,178.9c-1.2-7.4-6.6-9.7-8.2-20.2c2.3-2.3,4-3.7,6.7-5.6c0,0,0-0.9,0.1-1.5c-2.1-0.1-6.6-0.4-13.8,3
		c-0.3,1.7-0.1,4,0.4,5.9c0,0-7.2,0.3-11.9,4.3c-0.1,2.4,0.3,5.1,1.1,7.6c-1.6,1.6-3.5,3-4.7,7.1c0.3,1.1,1,2.9,2.4,4.7
		c0,0,3.3-4.5,8.5-5.6c5.2-1.1,10.3,2.3,10.3,2.3l4.8,0.1L71.9,178.9z"/>
	<path class="st3" d="M59.4,157.4c-0.2-1.6,7.7-5.6,8.7-4.2c0.4,0.5-3.4,3-4.4,5.6c2.3-2.3,4-3.7,6.7-5.6c0,0,0-0.9,0.1-1.5
		c-2.1-0.1-6.6-0.4-13.8,3c-0.3,1.7-0.1,4,0.4,5.9c0,0-7.2,0.3-11.9,4.3c-0.1,2.4,0.3,5.1,1.1,7.6c-1.6,1.6-3.5,3-4.7,7.1
		c0.3,1.1,1,2.9,2.4,4.7c0,0,3.3-4.5,8.5-5.6c1.5-0.3,2.9-0.3,4.3-0.1c-4.2-3-10.5,2.1-11.1-0.1c-0.4-1.4,0.8-5.1,9.6-4.2
		c-3.4-2.7-5.7-1.3-6.5-3c-1.2-2.4-1.1-5.3-0.6-5.7c3.4-2.3,8.7-3.5,9.9-2.1c1.3,1.6,1.9,4.5,5.2,7.9
		C62.3,166.6,60.2,162.9,59.4,157.4z"/>
	<path class="st3" d="M63.3,181.3c0,0-1.9-3.2-6-4.3c-3.8-1.1-6.4,0.5-7.7,0.1c-1.3-0.5,0.2-1.9,2.5-2c2.3-0.1,3.5-0.1,5.1,0.1
		c1.5,0.2,4.1,1.4,5.2,2c1.1,0.6,2.1,0.7-2-2.8c-4.1-3.6-9.6-3.1-10.1-4.3c-0.5-1.2-1.4-2.9,2.2-4c3.6-1.1,5.1,0.4,6.5,1.9
		c1.4,1.5,3.3,4.3,5.3,6.5c2,2.3,1.3,0.3,0.5-2.3c-0.8-2.6-2.3-7.8-3-10.1c-0.7-2.3-1.4-4.7,0.7-6.3c2.2-1.6,4.3-1.9,2.6-0.4
		c-1.8,1.5-2.5,2.8-2.3,4.1c0.2,1.3,1,5.1,3.2,9.3c2.3,4.2,4.1,5,5.5,10C72.8,183.8,63.3,181.3,63.3,181.3z"/>
	<path class="st2" d="M158.1,76.2c0,0,0.3,7.3-3,14.6c0,0,1.8,4.1,3.1,8.5c0,0-4,4.8-2,12.7c2.8,11.7,8.3,28.8-3,39.5
		c4,9.6,12,34.9,2.1,59.3c-9.9,24.4-7.6,21.8-9.2,28.5c-0.4,1.2-6.9,20.9-30,23.6c-23.1,2.7-33.2-12.3-34.8-16.2c0,0-0.7-3.8-2-4.6
		c-1.4-0.8-4.7-1.8-6.8-7.4c-2.2-5.6-4-6-5.9-8c-5,0-8.1-4.2-10.1-8.7c-3.2-7.3-6.3-19.2,5.9-37.6c0,0,8.4-3.9,17.5-1.4
		c2.4,0.7,3.1,0.5,4.9-1.4c2.5-2.6,6.8-6.9,10.3-9.6c5.3-4.1,9.9-6.1,11.9-9.6c0,0-3.8-12.2,3.3-23.4c0,0,2.4-4.8,10.1-8.3
		c0,0-3.1-20.8,9.8-27.9c0,0-8.3-13.2-8.3-19.1C121.9,73.9,158.1,76.2,158.1,76.2z"/>
	<path class="st1" d="M86.9,253.6c-2.7-1.8-5.2-6-5.5-6.9c0,0-0.7-3.8-2-4.6c-1.4-0.8-4.7-1.8-6.8-7.4c-2.2-5.6-4-6-5.9-8
		c-5.7,0.3-7.9-3.9-9.9-8.3c-2.3-5.2-4.7-12.7-1.5-23.3c0.3-1,0.5-0.5,0.5,1c-0.1,2.9-0.4,9.5,1.9,17c1.4,4.8,3.7,8.7,6.6,10.1
		c3.5,1.7,10.4-1.3,16.4-5.1c0.1,2.4-2.8,5.5-4.6,6.5c-1.6,0.9-4,1.8-3.9,1.9c4.6,4.8,4,11.4,10.5,13.8
		C83.8,240.8,84,247.7,86.9,253.6z"/>
	<path class="st3" d="M83,193.9c0.3,5,1,10.7,3,15.1c3.8,8,8.6,6.8,13.9,5.7c6.7-1.5,14.2-7.2,18.8-13.7c5.2-7.3,5.8-17.1,3.6-25.5
		c-1.8-6.6-0.5-9.6,0.9-15.1c1.4-5.6,0.6-16.8-0.2-22c-0.8-5.1,1.3,0.2,2,3.5c0.7,3.2,1.1,8.6,3.7,3.6c2.6-5,6.8-23.8,7.7-37.5
		c0,0,0.5-3.6,1,1.7c0.6,5.3,0.5,16.8-0.1,21.5c-0.6,4.7-5.1,19.7-3.2,22.2c1.9,2.5,4.8-3.6,7.7-12.6c3-9,2.4-19.5,2.3-23.1
		c-0.1-3.6,0.2-6.6-3.5-10c-2.8-2.5-4.9-7.7-6.1-11.8c-1.1-4.3-1.2-5.8,0.3-2.6c0.7,1.5,1.5,3,2.2,4.5c1.7,3.6,5.4,7.3,7.5,5.1
		c2.2-2.2-0.3-16.1-0.3-16.1c3.8-1.9,6.1-3,8.1-3.9c-2,12.4-1.1,14.3-2.3,20.4c-0.3,1.8-1.1,3.7-1,6.1c0.1,1.4,0.3,4.5,0.6,6.2
		c1.3,7.6,2,14,1.6,19.4c-0.4,5.6-4.1,16.4-5.7,15.5c-0.1-0.1-0.7-0.8-1.9-0.5c-1.2,0.3-3,6.1-3.3,9.9c-0.3,3.8,2.3,6.5,6.3,10.4
		c3.9,3.9,7.8,8.1,4.1,7c-3.7-1.1-8.4-2.8-10.7-6.6c-2.3-3.8-4.8-2.7-5.3,0.2c-0.5,2.9-3.5,11.5,6.1,23.5c0,0,5.9,9.2,6.9,12.3
		c1.1,3.1-4-1.5-7.8-5.2c-3.9-3.7-7.2-7.3-8.8-4.1c-3.3,6.7-9.1,11.2-15.9,14.7c-4.4,2.3-10.2,3.6-16,5.1c-3.7,0.9-8.5,1.2-11.1,1.6
		c-2.7,0.5-4.7,2.9-7,4.3c-3.5,2.1-9.2,4.5-12.6,5.5c-0.6-0.4-1.4-1-2-1.8c0,0,3.2-1.4,5.9-2.8c3.5-1.8,7.9-5.5,8.8-8.3
		c1.3-4.2,0.8-6.8,0.1-11.5c-0.5-3.6-0.4-8.4-0.3-11.1C81.2,188.1,82.6,187.5,83,193.9z"/>
	<path class="st1" d="M158.1,76.2c0,0,0.3,7.3-3,14.6c0,0,1.8,4.1,3.1,8.5c0,0-4,4.8-2,12.7c2.8,11.7,8.3,28.8-3,39.5
		c4,9.6,12,34.9,2.1,59.3c-9.9,24.4-7.6,21.8-9.2,28.5c-0.2,0.7-2.6,7.9-9.4,14.3c6.9-12.3,6.6-24.3,5.5-31.6
		c-0.4-2.7,2.8,3.5,4,1.5c1.6-2.7,2.6-6.3,3.1-10.1c0.3-2.3,1.3-2.2,2.3-4c1.8-2.9,3.8-6.8,4.1-11.8c0.8-11.3-0.3-14.1-1.2-18.9
		c-0.5-2.7,1.5-2.9,0.5-8.9c-0.6-3.9-2.7-8.2-4.8-12c-2-3.6-4.3-4.3-0.5-9.9c10-14.4-0.5-30.2,3.3-44.4c0.5-1.9,1.5-3.3,1.8-4.7
		c0.5-2.3,0.1-5.2-0.5-4.6c-0.5,0.4-2.8,6.6-2.8,4.3c0-2.4,1.4-11.7,2-13.7c0.6-2.1,1.1-4.6,0.7-8.9
		C156.6,76.1,158.1,76.2,158.1,76.2z"/>
	<path class="st1" d="M110.2,139.2c-0.2-1.2-0.5-3.1,0.1-4.1c0,0,2.4-4.8,10.1-8.3c0,0-3.1-20.8,9.8-27.9c0,0-8.3-13.2-8.3-19.1
		c0-3.1,3.9,3.2,4.7,4.3c1.7,7.8,5.7,12.8,7.7,15.1c-2.8,2.2-5,4.5-6.6,7.3c-4.3,7.6-4.8,18.1-5.2,26.6c0,0.9-0.6-0.3-1-1.7
		c-0.4-1.2-0.5-2.6-0.8-2.4C117.8,130.3,114,132.6,110.2,139.2z"/>
	<path class="st7" d="M70.5,129.3c0,0,4.8-3.6,12.3-3.6c0.5,0,1.5-0.8,2.3-1.9c0.8-1.1,2.2-1,2.7-0.3c0.5,0.7,1.6,1.9,2.4,2.3
		c0.8,0.3,6-0.5,11.2,2.2c-0.3,3.1-1.2,4.4-1.4,6.6c-0.2,2,0.6,2.5,0.2,4.7c-0.6,4.2-1.7,7.2-4.2,7.8c-2.5,0.6-6-0.3-10.7,0.3
		c-4.7,0.7-8.7,2.1-10.4-1c-1.7-3.1-2.6-5.7-2.2-8.6C73.2,135.1,71.2,135.4,70.5,129.3z"/>
	<path class="st8" d="M85.5,128.2c-0.5-0.3-1.4,0-2,0.4c-0.6,0.5,0,0.9,0.7,1c0.7,0.1,1,0.4,1.7,1c0.6,0.6,1.5,0.5,2.6-0.4
		c1.1-0.9,2.3-0.8,2.6-1.7c0.2-0.9,0.1-1.5-0.2-2.5c-0.3,0-0.5,0-0.6-0.1c-0.8-0.3-1.9-1.6-2.4-2.3c-0.1-0.2-0.3-0.3-0.6-0.4
		c0,0.6,0.1,1.6,0.2,2c0,0,0.5,0.5,0.7,1c0,0,0.6-0.4,1.1,0c0.5,0.5,0.7,2.6,0,2.1s-1.4-0.5-2-0.1C86.7,128.6,86.1,128.5,85.5,128.2
		z"/>
	<g>
		<path class="st3" d="M86.7,117.9c0.5,0.3,1,0.7,1.5,0.9c2.7-0.5,4.3-2.9,6.2-3.5c2.8,0.7,3.6,3.2,3.6,6.3c0,0-3.3,2.1-6.7,1.1
			c-1.1-0.3-2-0.7-2.5-1.2C87.7,120.7,87.6,120,86.7,117.9z"/>
		<path class="st9" d="M88.7,120.7c1.3-0.7,1.9-1.1,3.7-1.1c1.5,0,3.6,0.6,4.4,1.7c0,0-0.7,0.5-2,0.8
			C93.6,122.3,90.3,122.4,88.7,120.7z"/>
	</g>
	<g>
		<path class="st3" d="M84.5,118c-0.4,0.4-0.9,0.8-1.3,1.1c-2.7-0.2-4.7-2.2-6.6-2.6c-2.7,1.1-3.1,3.6-2.7,6.7c0,0,3.6,1.6,6.8,0.2
			c1-0.5,1.8-1,2.3-1.5C83.9,120.9,83.9,120.2,84.5,118z"/>
		<path class="st9" d="M82.7,121.4c-1.3-0.6-2-1-3.7-0.9c-1.5,0.1-3.6,0.7-4.3,1.9c0,0,0.8,0.5,2.1,0.7
			C78,123.3,81.2,123.2,82.7,121.4z"/>
	</g>
	<path class="st3" d="M100.2,244c2.2,2.4,3.1,3.4,2.8,6.3c-0.3,2.9-2.6,9.3,3.8,11.5c0,0-3.6,0.2-8-1.1c-4.4-1.4-8.4-4.6-8.4-4.6
		s-1.6-2.3-1.9-5.1c-0.3-2.3,0.3-2.8,0.6-2.8c0.3,0.1,0.5,0.7,0.8,2.2c0.4,1.6,1.1,3.6,2,4.8c1.4,2,5.1,4.4,7.8,2.8
		c0,0,1-0.5,0.6-2.7c-0.6-3.6,0.5-6.3-4-7.9c-4-1.4-2.9-2.5-1.8-3.6c2.5-2.4,0.7-5.9,0.2-8.2c-0.4-1.5,0.2-1.6,0.8-0.6
		C97.3,238.2,97.8,241.3,100.2,244z"/>
	<path class="st3" d="M87.2,232.9c2.9-0.8,6.1,0.5,5.6-0.2c-0.5-0.7-3.1-1.7-5.2-1.7c-2.1-0.1-4.3,0.6-4.8,3.3
		c-0.5,2.7,0,3.4,0.3,3.6C84.4,238.3,84.4,233.7,87.2,232.9z"/>
	<path class="st3" d="M114.3,245.7c2.2-2.8,4.1-6,1.7-8c-2.4-2-8.3-6.2-11.1-6.7c-2.8-0.5-4.5-0.2-5.6,0.6c-1.1,0.7-0.6-1.4,1.3-2.6
		c1.8-1.2,5.3-1.4,9.1-0.1c3.8,1.3,9.5,3.9,15,6.7c3,1.5,5.3,2,7.2,1.8c2.7-0.4,2.9-0.8,3.4-0.7c0.9,0.1,0.6,1.6-2,5.9
		c-1.1,1.8-2.2,4-2.8,6.7c-1.1,4.4-3.6,9.3-3.2,6.5c0.7-5.1,2.5-10.8-2.2-14c-1.4-1-2.1,0.1-3.6,1.6c-1.4,1.4-1.1,3.5-0.7,4.6
		c0.2,0.6,1,1.4,0.8,3.4c-0.2,2-0.2,5.5-4.3,10.9c-4.1,5.4-10-0.2-10-0.2c2.4-0.9,4.6-2.3,6.1-6.6c1.5-4.3,1-5-1-6.1
		C109.3,247.9,113.1,247.3,114.3,245.7z"/>
	<path class="st3" d="M74.3,145.3c0,0-0.7-0.8-1-1.1c-0.3-0.3-0.5-0.6,0.4,2.1c0.9,2.6,2.6,3.1,4.8,3.7c3.4,0.9,5.7-0.4,8.9-0.6
		c1.9-0.1,4.3-0.3,6.9,0.4c1.4,0.4,3.5-0.2,5.1-2.6c1.6-2.4,1.7-5.6,1.8-7c0.1-1.4-0.1-0.7-0.4-0.1c-0.3,0.6-1.2,2.7-1.2,2.7
		c-1.6,3.3-3.2,3.8-4.5,3.7c-1.6-0.1-4.4-1.7-7.9-1.4c-3.5,0.3-6.6,1.9-9,2.4C76.6,147.7,75.2,146.3,74.3,145.3z"/>
	<path class="st3" d="M80.5,135.9c0.9-0.6,2.2-1.7,3.5-2.2c1-0.4,2.1-0.5,3.5-0.5c1,0,2.1-0.1,2.8,0.2c1.6,0.6,1.8,0.5,3.3,1.4
		c-0.4-0.8-1.6-1.9-3.3-2.7c-1.7-0.8-1.7-0.1-2.6,0.1c-1,0.2-1.7-0.4-2.5-0.3C84.4,132.1,81.8,133.7,80.5,135.9z"/>
	<path class="st8" d="M82.7,136.7c0,0,1.5-1.3,3.4-1c2,0.3,3.6-0.7,4.3-0.5c0.8,0.3,1.7,0.9,2.1,1.7c0.3,0.8,0.6,1.5-1.2,0.9
		c-1.8-0.7-4.1-0.7-6.1,0c-2,0.7-3.4,1.2-3.6,0.7C81.5,138.1,82.1,137.3,82.7,136.7z"/>
	<path class="st3" d="M86,128.8c0,0-0.9-0.8-1.7-0.3c-0.5,0.4-0.3,0.6,0.1,0.6C84.7,129.2,85.2,129,86,128.8z"/>
	<path class="st3" d="M87.2,128.8c0,0,0.9-0.9,1.7-0.3c0.5,0.4,0.3,0.6,0,0.6C88.5,129.1,88,128.9,87.2,128.8z"/>
	<path class="st1" d="M77.6,108.7c-2.9,2.5-0.4,4.6,3.5,5.3c4.7,0.8,3.7,0.9,8.2-0.2c3.9-1,6.6-2.8,4.8-4.8c-1.8-2-5.6-2.9-9.2-2.7
		C82.1,106.4,79.2,107.3,77.6,108.7z"/>
	<path class="st8" d="M74.5,132.2c0.6,0.6,1.1,0.7,1.6,1.8c0.5,1.1,0.9,3.5,0.9,4.6c0,1-0.6-0.4-1-2c-0.4-1.6-1.1-2.7-1.5-3.3
		C74,132.7,73.6,131.3,74.5,132.2z"/>
	<path class="st8" d="M98.8,131.6c0,0-1.1,1.6-1.3,2.8c-0.1,1.1,0.2,3.2,0.3,3.6c0.2,0.4,0.3-1.1,0.3-2.6s0.5-2.4,0.8-3
		C99.3,131.7,99.3,131.1,98.8,131.6z"/>
	<path class="st3" d="M101.4,163.7c2-3.6,5-10.9,5.6-20.3c0.6-7.9,1.4-21.1,13.1-22.3c0,1.8,0.2,4,0.3,5.7c-3.3,3.3-5.8,5-8.4,11.8
		c-2.6,6.9-2.8,13.3-1.6,20.6c0.7,4.4,2.6,10.4,1,9c-1.6-1.3-3.2-5.4-4.2-8.4c-0.4-1-2.6,0.8-2.9,1.1
		C103.5,161.7,102.9,162.4,101.4,163.7z"/>
	<path class="st6" d="M101.4,163.7c2-3.6,3.6-10.7,4.3-20.1c0.6-7.9,1.9-25.2,14.4-22.5c0,1.8,0.2,4,0.3,5.7
		c-4.6,2.3-7.8,5.5-11.2,17.9c-1.1,4.1-1.3,9.8-2.2,13.9C106.3,160,104.4,161.9,101.4,163.7z"/>
	<path class="st3" d="M101.4,163.7c2.8-3.8,5.5-10.4,6.2-19.8c0.6-7.9,5-17.9,9.3-19.3c1.2-0.4,3.1,0.8,1.4,1.8
		c-4.5,2.5-6.4,5.4-9.7,17.8c-1.5,5.4-0.9,10.6-2.9,16.1C104.7,161.4,103.3,162.6,101.4,163.7z"/>
	<path class="st3" d="M108.3,134.3c-1.6,7-1.7,13.5-3.9,20.2c0.6-3.1,1.1-6.8,1.4-10.9c0.6-7.9,1.9-25.2,14.4-22.5
		c0,1.8,0.2,4,0.3,5.7c-0.4-0.8-1-1.7-1.3-3.1c-0.1-0.6-0.3-1.3-2.1-0.8C112.3,124.3,109.4,129,108.3,134.3z"/>
	<path class="st3" d="M103.3,260.2c1.9,0.3,3.6,1.2,4.8,2.4c9.1,0.7,18.5-1.7,25.1-6.8c7.5-5.8,11.5-13.2,12.9-16.4
		c0.3,1.8,0.6,4,0.9,6.3c-3.6,12.7-16.3,19.4-16.3,19.4c-8.5,4.1-16.1,5.5-22.7,5.2c-1.6,1.4-4.1,2.1-6.8,1.7
		c-3.3-0.6-5.9-2.7-6.5-5.2c-1.3-0.7-2.4-1.4-3.5-2.3c-6.4-4.9-9.9-10.3-11.2-12.5c0.3-2.2,0.5-4.4,0.5-6.4c1.2,2.5,5.2,9.5,15,13.9
		c0.9,0.4,1.9,0.8,2.9,1.1C100,260.1,101.6,259.9,103.3,260.2z"/>
	<path class="st3" d="M83.7,165.6c0,0,4.6-11.1,4.9-8.8c0.1,0.6,0,1.5-0.5,3c-0.9,3-2.3,7.4-4.4,7.9
		C82.9,167.9,83.2,166.9,83.7,165.6z"/>
	<g>
		<path class="st4" d="M100.6,18.6c0,0-5.3,2.3-5.8,5.9c0.9,4.7,9.2,7.3,9.2,7.3s1.5,7.2,5.2,8.7c3.7,1.5,6.4,0.1,7.7,1.7
			c0,0,2.8,7.5,4.1,16.4c1.2,8.4-2.3,15.2,0.8,25.2c3.6,5.1,29.6,10.2,36.7-8.2c0,0-0.8-6.5-7.4-16.5c-6.7-10.1-8.2-13.7-8.1-20
			c0,0-2.6-2.1-2.8-3.7c-0.2-1.6-1.9-14.7-3.6-19.8c0,0-1.1-1.6-3.9-0.7c0,0-1.3-2.6-1.2-5c0,0-2.1-2.5-5.8-0.5c0,0-1.5-1.6-2.1-4
			c-0.8-0.2-2.6-0.6-5.3,1.3c0,0-1-2.2-3.9-2.7c-3.6,3.3-10.7,5.4-14.4,8.3C99.4,13,98.7,15,100.6,18.6z"/>
		<path class="st5" d="M100.6,18.6c0,0-5.3,2.3-5.8,5.9c0.9,4.7,9.2,7.3,9.2,7.3s1.5,7.2,5.2,8.7c3.7,1.5,6.4,0.1,7.7,1.7
			c0,0,2.8,7.5,4.1,16.4c1.2,8.4-2.3,15.2,0.8,25.2c0.8,1.1,2.7,2.2,5.2,3.1c-2.9-12.1-1.1-16.8-2.6-27.2
			c-1.2-8.6-3.5-16.5-4.6-19.3c-0.8-2.2-10.5,0.6-13.3-9c-0.1-0.4,4.1-1.2,3.5-5.1c-0.1-0.7-3.5,3.7-6.7,2.6
			c-2.4-0.8-5.1-2.4-5.8-4.2c-0.7-1.9,2.1-3.4,4.6-4.3c0.6-0.2,2.8,2.8,2.5,1.7c-0.5-1.9-3.3-6.4-1.7-8c2.2-2.1,8.4-5.1,12.4-6
			c1.8-0.4-0.8,3.7,0.8,2.6c1.4-1,4.6-2.3,5.8-2.3c1.9,0,1.7,3.8,2.7,3.5c0.6-0.2,5.1-1.8,5.4-0.1c0.4,3.1,0.6,5.4,1.4,5.4
			c0.9,0,2.2-0.3,3-0.1c2.7,0.7,2.7,15.7,3.5,19.1c0.4,1.7,2.9,3.4,3,5c0.1,2.3,0,5.4,0.6,7.1c4.5,13.4,10.5,16.1,14.5,32
			c1-1.4,1.9-2.9,2.6-4.7c0,0-0.8-6.5-7.4-16.5c-6.7-10.1-8.2-13.7-8.1-20c0,0-2.6-2.1-2.8-3.7c-0.2-1.6-1.9-14.7-3.6-19.8
			c0,0-1.1-1.6-3.9-0.7c0,0-1.3-2.6-1.2-5c0,0-2.1-2.5-5.8-0.5c0,0-1.5-1.6-2.1-4c-0.8-0.2-2.6-0.6-5.3,1.3c0,0-1-2.2-3.9-2.7
			c-3.6,3.3-10.7,5.4-14.4,8.3C99.4,13,98.7,15,100.6,18.6z"/>
		<path class="st0" d="M106.6,32.4c0,0,0.9-1,4.1-0.5c3.2,0.5,7.1,3.8,7.7,5.1c0.6,1.3,1.9-0.5,3.7-0.8c1.7-0.3,6.3,0.1,7.1,0.8
			c0.8,0.7,0.5,5-1.9,5c-2.3,0-4.5-0.8-5.9-1.9c-1.4-1.1-0.6,0.5,0.8,1.7c1.4,1.2,4.1,2.6,6.5,2.3c2.4-0.3,4.9-2.2,7.4,2.1
			c2.5,4.3,3.6,7.8,5,18.2c1.3,9.4,1.5,16.9,2.7,23.4c3.5-0.8,6.8-2.2,9.5-4.6c-0.4-3.1-1.4-8.1-3.4-13.3c-3.3-8.6-5.6-10.4-7-13.9
			c-1.4-3.6-2.7-8-2.9-10.8c-0.2-2.8-3-3.4-3-4.3c0-1,0.5-4.2-0.5-5.8c-1-1.6-3.3-3.4-3.3-4.2c0-0.8,2.2-2.1,2.6-3.8
			c0.4-1.7,0.1-3.1-0.2-3.8c-0.3-0.7,0,0.2-0.4,1.9c-0.4,1.7-3.7,2.4-4.2,3.8c-0.4,1.4-0.5,6.2-2.5,6.5c-2,0.3-4.7-0.5-5.1-1.8
			c-0.4-1.3-0.7-5.6,1.4-7.7c2-2.1,4.5-5.1,4.9-5.9c0.5-0.8,0-2.6-0.4-2.7c-0.4,0-0.1,1.3-1.7,3.6c-1.6,2.3-2.9,3.4-4.2,5.7
			c-1.3,2.3-1.3,4.2-1.4,5.6c-0.1,1.4-1.2,2.1-2.8,1.3c-1.6-0.8-3.1-2.1-3.4-4.9c-0.3-2.8,0.6-5.2,1.3-6.1c0.7-0.8,2.9-3.4,4.4-5.2
			c1.5-1.8,1.5-3.6,1-4.1c-0.5-0.5-1.6,0.7-2.4,2.5c-0.8,1.8-3.6,5.9-4,6.5c-0.4,0.6-1.6,1.9-1.4,5.2c0.1,3.4,0.2,4-1.1,3.1
			c-1.3-0.8-2.3-1.5-2.6-2.8c-0.4-1.3-0.4-2-1.1-2.8s-1-4.9,0-6.4c1-1.5,4.1-4.6,5.3-5.7c1.2-1.1,0.6-2.2-0.7-1.2
			c-1.3,1-3,3.1-4.3,4.9c-1.3,1.7-2.6,1.5-1.9,5.9c0,0,0.1,0.6-1.5,0.3c-1.6-0.4-1.5,0.5-0.6,0.8c0.9,0.3,3.7,2.1,3,4
			c-0.7,1.9-3.6,3.3-3.6,3.3L106.6,32.4z"/>
	</g>
	<path class="st6" d="M80.3,243.8l-0.6,6.4c0,0,3.4,7.1,11.7,13.4c8.3,6.3,22.2,8.9,39.4,0.6c0,0,13.4-7.1,16.5-20.4l-0.5-5.8
		c-0.2-0.2-0.2-0.6-0.4-0.2c-1.1,2.6-5,10.9-13.2,17.1c-9.8,7.5-25.3,9.1-37.5,3.7C83.6,253.2,80.3,243.8,80.3,243.8z"/>
	<path class="st10" d="M80.3,243.8l-0.6,6.4c0,0,1.4,3,4.7,6.8v-6.7C81.4,246.7,80.3,243.8,80.3,243.8z"/>
	<path class="st10" d="M139.8,257.2c3.2-3.3,6.3-7.8,7.6-13.4l-0.5-5.9c-0.2-0.2-0.2-0.6-0.4-0.2c-0.7,1.7-2.8,6.2-6.8,11
		C140.6,249.6,140.7,254,139.8,257.2z"/>
	<path class="st11" d="M80.3,243.8c-0.1,1.2,0.2,2.1,0.8,3.3c1,2,3.2,5,7.8,8.5c8.3,6.3,22.5,11.9,39.8,3.6c0,0,15-7.2,18.2-20.6
		c0.1-0.5,0-1.3-0.3-1.6c0,0-0.1,0.5-0.2,1c-0.1,0.3-0.3,0.7-0.5,1.1c-1.6,3.4-5.5,10.4-12.6,15.8c-9.8,7.5-25.3,9.1-37.5,3.7
		c-7.8-3.5-12-8.6-14-11.9c-0.6-0.9-0.9-1.8-1.1-2.4c-0.1-0.3-0.2-0.6-0.3-0.8C80.3,243.7,80.3,243.7,80.3,243.8z"/>
	<path class="st11" d="M104.1,258.5c4.1,0.7,7.1,3.9,6.5,7.1c-0.5,3.3-4.3,5.3-8.5,4.6c-4.1-0.7-7.1-3.9-6.5-7.1
		C96.1,259.9,99.9,257.8,104.1,258.5z"/>
	<path class="st6" d="M103.3,259.3c4.1,0.7,7.1,3.9,6.5,7.1c-0.5,3.3-4.3,5.3-8.5,4.6c-4.1-0.7-7.1-3.9-6.5-7.1
		C95.4,260.7,99.2,258.6,103.3,259.3z"/>
	<path class="st10" d="M103.3,259.3L103.3,259.3l-8.3,6.9c-0.2-0.7-0.3-1.5-0.2-2.2C95.4,260.7,99.2,258.6,103.3,259.3L103.3,259.3z
		 M106.2,260.3l-9.6,8.4c0.8,0.8,1.9,1.5,3.2,2l9-8.3C108.1,261.6,107.2,260.8,106.2,260.3L106.2,260.3z M109.5,263.7l-8.1,7.5l0,0
		c1.1,0.2,2.2,0.2,3.2,0l5.4-5.2C110,265.2,109.8,264.4,109.5,263.7z"/>
	<path class="st3" d="M121.6,260.2c0,0,1.5,1,1.5,1.5c-0.1,0.5-0.2,7.5-0.2,7.5s4.8-1.1,7.9-3.2c0,0,0.1-7.3-0.2-7.7
		c-0.3-0.4-1.5-1-1.5-1S126.2,259,121.6,260.2z"/>
	<path class="st1" d="M141.4,256.2c0.1-2.4,0.1-7.5,0-7.8c-0.2-0.4-1.5-0.3-1.5-0.3s2-2.3,3.3-4.5c0,0,1,0.2,1.1,0.5
		c0.1,0.4-0.1,9.7-0.1,9.7C144.1,254,142.4,255.9,141.4,256.2z"/>
	<path class="st2" d="M87.7,262c0,0,0.3,0,0.4-0.1c0.1,0,0-0.5,0-0.6c0-2,0.1-5.7,0.2-6.1c0.1-0.6,1.4-0.4,1.4-0.4s-4-3.3-4.9-4.5
		c0,0-1.1,0.3-1.2,0.6c0,0.3,0.2,6.9,0.2,6.9S85.1,259.8,87.7,262z"/>
	<path class="st3" d="M36.1,317.5c0,0,0.7-4.1,1.3-5.6c0.6-1.5,1.6-4.6,1.6-7.5c0-3,0.5-1.8,1,1.6c0.6,3.4,0.9,3.6-0.6,6.1
		c-1.5,2.5-1.6,2.6-2.3,4.5C36.3,318.5,35.8,318.6,36.1,317.5z"/>
	<path class="st2" d="M97.9,273.6c0,0,1,5.7,2.8,10c1.8,4.2,5.6,3.7,9.7,1.8c4.1-1.9,14-6,17.8-7.7c3.8-1.7,0.2-9.8-1.3-9.2
		c-8,3.7-9.3,3.2-18.5,3.5C106.9,273.1,102.8,274.9,97.9,273.6z"/>
	<path class="st4" d="M69.6,335.8c0,0,0.6,10.4,1.6,13.1c1,2.6,2.6,6,5.5,3.3c2.8-2.7,1.1-4.7-1-4c-2.2,0.7-2.7,0.3-3.3-3.4
		c-0.6-3.7-1.3-10.7-2-10.7C69.7,334,69.6,335,69.6,335.8z"/>
	<path class="st1" d="M48.4,187.2c2.3,0.7,3.4,4.9,2.6,9.2c-0.9,4.4-3.4,7.4-5.7,6.7c-2.3-0.7-3.4-4.9-2.6-9.2
		C43.6,189.5,46.1,186.5,48.4,187.2z"/>
	<path class="st1" d="M67.3,278c-4.6,2.5-10.3,6.4-13.9,10.7c-3.1,3.7-6.1,9.2-8.6,14.5c-4.1,8.8,2.1,1.8,5.8-3.1
		c5.1-6.7,9.8-13.3,16.2-18.6C71.5,277.6,69.4,276.9,67.3,278z"/>
	<path class="st3" d="M90.9,125.9c-0.1-0.4-0.3-0.8-0.6-1.3c-0.9-1.8-1.9-3.2-2.3-4.4c-0.4-1.2-1.4-2.3-1.4-2.3
		c0.2,1.2,0.5,3.4,0.6,5.2c0.2,0.1,0.4,0.2,0.6,0.4c0.5,0.7,1.6,1.9,2.4,2.3C90.4,125.9,90.6,125.9,90.9,125.9z"/>
	<path class="st8" d="M90.4,128.9c0,0,1-0.1,2.4,1.6c1.3,1.7,1.5,2.2,1.8,2.6c0.2,0.4,0.1-0.3-0.5-1.6c-0.6-1.3-2.6-3.5-3.1-4.7
		C90.5,125.7,90.4,128.9,90.4,128.9z"/>
</g>
<g>
	<path class="st6" d="M55.2,173.2c0,0,2.7-11.6,15.2-19.9l0.4-8.2l-0.9-2.7c0,0-3-1.7-3.1-5.5c-0.1-2.8-0.7-4.7-0.1-6.1
		c1.3-3,0.6-4,0.7-7.8c0.1-3,0.6-6.7,2.1-9.8c3.4-7,8.9-9.5,16-10c7.2-0.5,15.6,4.4,17,12.4c0.3,1.9,0.5,3.5,0.6,4.9
		c0.5,7-0.1,4,1.7,8.4c0.2,0.4,0.3,0.8,0.3,1.3c0,0.6,0.2,1.3,0.1,2c-0.2,2.6-0.5,4.6-2.4,6.1c0,0,0.1,0.6,1,3.2
		c5.7-6.4,16.1-8.1,17-6.4c3.1,6.1-9,29.8-9,29.8l-26.7,19.4l-23.6-1.7L55.2,173.2z"/>
	<path class="st0" d="M58.6,175.7c0,0-0.5-10.2,12-18.5c0.5,4,0.9,8,1.5,12c0.6,4.6,0.9,4.1,0.8-0.1l-0.8-24.7c0-0.4-1.7-3-1.8-6.2
		c-0.1-2.8-1.2-4-1.4-6.1c-0.3-3.6,0.5-4.8,0.6-8.6c0.3-10.9,6.5-16.5,14.9-16.8c10.9-0.5,16.3,4,17.3,15.6c0.4,4.3,1.5,5,1.5,7.7
		c0,2-0.4,3.3-0.5,5.9c0,0.9-0.6,2-0.7,2.6c0,0.2,0.1,1.9,0.6,5.4c0.2,1.1-1.2,2.3-3,4.6c-3.6,4.7-6,8.9-8.1,14.3
		c-0.7,1.9-1,3.1,0.8,0.4c0.3-0.5,0.7-1.1,1.1-1.7c3.8-5.8,7.5-10.8,10.6-13.2c-0.3,2.7-1.7,8.2-3.1,14c-0.1,0.3,2.7-1.3,3.8-3.7
		c1.3-2.9,1.1-6.7,1.3-8.9c0.4-4.1,2.7-7.7,3.3-8.3c5-4.7,10.9-7.4,11.5-6.2c3.1,6.1-9,29.8-9,29.8l-26.7,19.4l-23.6-1.7L58.6,175.7
		z"/>
	<path class="st0" d="M68.8,330.9c-0.3,2-0.6,11.1,0.9,17.7c1.5,6.6,5,5.6,6.3,5.5c1.3-0.1,8.3-6.7,10.2-19.8c0,0-3-7.9,0-12.8
		c3-4.9,5.7-11.9,2.4-15.1c-3.3-3.2-10.2-3.3-13.6,5.1C71.6,320,69.2,328.3,68.8,330.9z"/>
	<path class="st0" d="M62.6,227.5c7.2,1.4,16.7-5,17.3,1.8s-2.1,14.8-1.1,19.6c-2.8,2.4-5.9,2.4-11.1,4.4c-1.6,0.6-2.9,1.3-4.4,2
		c-6,2.9-9.1,2.5-17.9,2.2c-10.8-0.3-20.4,1.9-20.4,1.9l-1.1-17.6c13-1.6,13.7-7.8,20.7-12c7.1-4.2,13.9-2.9,13.9-2.9
		C60.1,227,61.4,227.2,62.6,227.5z"/>
	<path class="st0" d="M46.1,228.5c-0.5,0.3-1.1,0.6-1.6,0.9c-7.1,4.2-7.6,10.7-20.6,12.3l0.9,17.7c0,0,9.7-2.1,20.5-1.8
		c3.2,0.1,5.7,0.5,7.9,0.5c3.9,0,6.7-0.5,10.6-2.3C68.3,244.1,58,230.8,46.1,228.5z"/>
	<path class="st6" d="M46.1,228.5c-0.5,0.3-1.1,0.6-1.6,0.9c-7.1,4.2-7.6,9.9-20.6,11.5l1,19.3c0,0,9.7-2.6,20.5-2.3
		c4.7,0.1,7.9,0.4,10.8,0.1c-7.2-0.6-8.2-1.2-12.5-1.6c-7.2-0.6-9.2-0.6-13.1-0.6c-0.9,0-0.5,2.2-3,3.2c1.6-4.1-3.6-12.9-1.3-18.4
		c1.6,0.2,1.4,2.2,2.1,2c5.1-1,8.8-3.9,10.5-6C41.2,233.5,44.4,230.6,46.1,228.5z"/>
	<path class="st0" d="M47.6,213c0,0-3.7,6-0.1,14c3.6,8,19.2,10.5,23.9,5.6C76,227.7,56,195.1,47.6,213z"/>
	<path class="st6" d="M48.5,215.7c0,0-1.1-2.3-1.4-1.6c-0.9,2.1-2.3,6.9,0.4,12.9c2.1,4.7,8.5,7.5,14.3,8
		C49.5,232,46.1,224.3,48.5,215.7z"/>
	<path class="st6" d="M25.5,246.1c0,0,1.7-1,2.2-2.2c0,0-1.4-3.6,0.9-7.7c0,0-3.4-3-2.6-7.9c0,0-2.1-1.7-6-1.3c0,0-1.7,1.2-2.8,3.4
		c0,0-1.9-0.5-4.1-0.6c0,0-5.3,3-9.5,7.5c0,0-1.3,1.4-3.3,4.6c0,0,0.2,1.8,2.5,2.4c0,0-0.2,1.9-1.1,2.5c0,0-0.2,2.7,3,3.5
		c0,0,0.1,2.2-0.6,2.7c0,0,0.6,3.9,5.6,4.5c0,0,0,1.4-0.5,2.2c0,0,2.2,3.3,7.8,2.8c0,0,0.1,0,0.3,0c1.4-0.3,2.5-1,3.6-1.2
		c1.1-0.2,2.2,0.1,3.7-0.1c1.4-0.2,2.9-0.9,4-2.5C31,254.8,30,247.6,25.5,246.1z"/>
	<path class="st0" d="M28,243.6c0,0-4.5,1.9-7.9-2.1c5.4,2.5,5.9,0.9,5.2-0.5c-0.5-1-0.6-2.4,0.4-4.1c0,0-2.5-1.7-1.7-6.5
		c0,0,0.8-1.9-3.1-1.5c0,0-1.9,2.1-1.8,5.4c0,0-3-2-5.2-2.1c-3.4,1.9-6.6,4.3-9,7.3c-1.1,1.4-2.5,2.3-0.5,3.5c1.7,1,1.7,0.3,1,2.8
		c-0.7,2.3-1.6,1.9,1.1,3.2c1.1,0.5,1.3,0.6,0.7,2.6c-0.9,2.6-0.6,3.3,3.2,4.2c1.6,0.4,2.1,0,1.4,2.3c-0.4,1.3-0.8,2.1,0.8,2.9
		c2.3,1.1,6.4-0.6,8-1.9c0,0,1.9,1,4,0.5c3.8-0.8,5.3-4.7,5.2-6.6C29.7,250.3,31,244.6,28,243.6z"/>
	<path class="st6" d="M57.7,218.1c-16.9-1.5-22.3-14.2-16-29c3.2-7.5,7.2-12.2,11.4-15.1c9.7-6.7,19,1.6,21.6,6.1
		C76.2,182.6,57.7,218.1,57.7,218.1z"/>
	<path class="st0" d="M57.7,218.1c-12.9-1.6-16.9-11.1-14.6-22.6c1.9-9.4,13-26.4,25.2-22.6c1.9,0.6,4.2,3.6,5.4,4.7
		c0.8,0.7,1.4,0.9,1.9,1.6C77,181.8,57.7,218.1,57.7,218.1z"/>
	<path class="st0" d="M98.7,292.2c-2.5,5.9-11.4,11.9-15.6,17.1c-2.2,2.7-4.1,6-7,13.3c-2.6,6.5-6.8,13-13.3,14.7
		c-0.9,0.2-5.2,0.5-6.2,0.5c-1.2,0.9-3.9,1.5-7.8,6.1c0,0-10.8-0.2-16.2-6.9c-0.2-2.5-0.2-5.3-1.1-8.1c-1-0.9-1.5-1.1-3-4.6
		c-1.2-2.7-1.8-6.1-0.8-10.3c1.4-5.9,4.2-9,6.3-14.2c9-22.3,17.1-25,42.5-37.1c0.8-0.4,1.5-0.7,2-0.9
		C83.1,260.3,104.5,274.7,98.7,292.2z"/>
	<path class="st6" d="M98.7,292.2c-2.5,5.9-11.4,11.9-15.6,17.1c-1.5,1.8-2.8,3.9-4.4,7.2c2.2-13.1,20.4-19.9,17.6-33.6
		C98,285.6,100,288.4,98.7,292.2z"/>
	<path class="st6" d="M72.1,330.2c-2.4,3.4-5.4,6.1-9.3,7.1c-0.9,0.2-5.2,0.5-6.2,0.5c-1.2,0.9-3.9,1.5-7.8,6.1
		c0,0-10.8-0.2-16.2-6.9c-0.2-2.5-0.2-5.3-1.1-8.1c-1-0.9-1.5-1.1-3-4.6c-1.2-2.7-1.8-6.1-0.8-10.3c1.4-5.9,4.2-9,6.3-14.2
		c9-22.3,17.1-25,42.5-37.1c0.8-0.4,1.5-0.7,2-0.9c1-0.4,4.9,1.4,2.8,2.7c-7.3,4.4-34.5,12.6-42.8,36.7c-0.2,0.6-9.8,12.3-5.6,23.6
		c0.4,1,2.9-7.3,2.8-4.2c-0.2,4.1-1.2,8.7-0.7,12.8c0.2,1.3,0.3,2.6,1.3,2.8c1.9,0.4,3.6,0.3,5.6,1.2c2,0.9,4.2,3.1,5.1,3
		c3.8-0.3,8.2-8,11.6-9.3c1.3-0.5-2.8,4.2,0.7,4C63.7,334.9,67,334.6,72.1,330.2z"/>
	<path class="st0" d="M148.7,260.9c1,11.7,0.3,15,1,25.4c0.7,10.4,3.1,31.1,0.8,40.8c-2.4,9.7-8.6,13.6-10.2,24
		c2.6,5,5.5,8.7,6.9,12.8c1.4,4.2,4.9,13.9-9.3,41.9l-19.9,0.5c0,0-6.5-11.8-5.3-18.4c1.2-6.6,3.4-11.9,4.6-14.3
		c-0.8-1.3-4.4-4.3-3.9-14.4c-1.6-2.5-8-8-3.4-31.8c-1.4-4.9-8-19.6-3.8-32.7C110.5,281.8,148.7,260.9,148.7,260.9z"/>
	<path class="st6" d="M113.9,312.5c0.8-2,2.5-5.5,2.1-2.6c-0.4,3.3-1.7,9.4-2.3,12.7c-1.8,10.8-3.3,22.6,3,34.9
		c0.3,0.5,1.4,2.1,1.6,2.5c0.2,0.6,0,0.7-0.8,0.5c-0.5-0.1-0.9-0.2-0.7,1.2c0.4,5.1,2.2,8.2,5.1,11.1c0.9,0.9-0.3,2.7-1.8,5.6
		c-3.9,7.9-3.1,17.6,2.1,27.9l-4.3,0c0,0-6.5-11.8-5.3-18.4c1.2-6.6,3.4-11.9,4.6-14.3c-0.8-1.3-4.4-4.3-3.9-14.4
		c-1.6-2.5-8-8-3.4-31.8c0.7-3.4,1.2-6.8,2.3-10.1C113,316,113.5,313.5,113.9,312.5z"/>
	<path class="st6" d="M110.1,327.6c0,0,1.4-7.4,2.3-10.1c-0.9,1.3-1.8,2-2.3,1.4c-0.5-0.6-2.4-5.9-2.8-10.8
		c-0.6-6.4-1.1-12.3,3.3-20c-2.1,2.4-3.7,4.7-4.4,6.8C102.1,308.1,108.6,322.7,110.1,327.6z"/>
	<path class="st6" d="M148.7,260.9c1,11.7,0.3,15,1,25.4c0.7,10.4,3.1,31.1,0.8,40.8c-2.4,9.7-8.6,13.6-10.2,24
		c2.6,5,5.5,8.7,6.9,12.8c1.4,4.2,4.9,13.9-9.3,41.9l-3.5-0.6c0,0,17.5-26,4.7-45.1c-0.8-1.2-1.2,2.7-2.9,4.9
		c-1.9,2.4-0.7-3.9-0.4-7c0.5-5.2-0.4-5.2,1.2-10.2c3.6-11.4,9.1-18.1,9.1-33.1c0-6,1-15.8-0.5-29.5c-0.5-4.5-3.3-9.8-2.6-14.9
		C144.1,261.4,148.7,260.9,148.7,260.9z"/>
	<path class="st6" d="M112.6,385.4c11.5,5.9,25,5.3,34.2,1.7c0,0-1.3,6.6-8.6,21.1c-7.3,14.5-11.4,26.5-11.4,26.5s1.8,5.1,0.9,6.2
		c-0.9,1.1-2,2.8-2,2.8s0.2,17.5-0.4,25.9c0,0-2.5,8.6-13.4,11.1c0,0-1.8-0.2-2.5-1.6c-0.7-1.4-4.8-10.4-2.7-19.1
		c0,0,3.3-4.7,5.3-12.2c2-7.5,0.8-11.7,0.7-12.8c0.2-1.4,1.2-2.6,3.1-4.1c1-4.4,2.3-17.8,0-24.6
		C113.3,399.4,109.9,394.7,112.6,385.4z"/>
	<path class="st0" d="M117,387.3c8.8,3.2,18.2,3.1,25.8,1.1c-1.7,7.6-6.9,15.4-8.9,19.5c-7.1,14.6-9.1,25.8-9.3,26.9
		c-0.2,1.1,1.1,2.9,0.7,4.5c-0.5,1.6-1.7,1.9-1.8,4.5c-0.1,2.6,0.1,9.8-0.5,18.2c-0.3,4.3,0.7,10.3-9.4,15.8
		c-0.6,0.3-1.7-0.2-2.3-1.7c-0.7-1.4-2.2-9-0.8-13.9c0.4-1.4,1.8-2.2,3.8-9.8c2-7.5,1.7-13,1.8-15.6c0-1.4,2.5-3.6,2.7-4.5
		c1-4.4,2.9-18.7,0.6-25.4C118,403.1,115.3,394,117,387.3z"/>
	<path class="st0" d="M80.6,242.6c0.2,5.9-0.4,14-4.1,20.2c0,0,10.8,2.7,16.5,12.6c5.7,9.9,5.7,16.1,5.7,16.1s6.2,2.4,7.9,2.6
		c14.2-13.8,35.7-18.9,42.2-33.2c0,0-1.8-17.4-3.1-23.5C144.4,231.3,91.1,239.3,80.6,242.6z"/>
	<path class="st0" d="M114.1,265.9c-10.4,0.3-20.5-2.1-25.4-4.9c0,0.4-0.1,0.6-0.3,0.9c-1.3,2.1-2.5,2.6-5.3,3.9
		c1.3,1.3,2,1.3,3.7,2.8c2.1,1.8,4.3,4.1,6,7.1c5.7,9.9,5.9,16.5,5.9,16.5s4.5,2.9,7.6,2.7c11.1-10.8,27.5-14.7,36.7-24.3
		c1.1-1.1,1.9-2.5,2.8-3.8c2.4-3.7-1.6-12.7-2.3-16.1C130.5,264.3,123.8,265.1,114.1,265.9z"/>
	<path class="st6" d="M96.3,282.8c1.7,6,2.4,9.3,2.4,9.3s4.5,2.9,7.6,2.7c1.1-0.6,1.4-1,2.1-1.9c-2.7,0.5-4.3,0.3-6.6-1.5
		C99.1,289.3,98.1,284.7,96.3,282.8z"/>
	<path class="st6" d="M80.6,242.6c0.2,5.9-0.4,14-4.1,20.2c0,0,1.8,1.6,4.7,1.9c2.5-5.6,2.8-7.5,3.5-13.8
		C81.4,251.6,82.2,242.1,80.6,242.6z"/>
	<path class="st6" d="M143,270.6c2.7-2.7,4.8-5.8,5.7-9.6c0,0-0.8-8.1-1.8-15.2c0-0.2-0.1-0.5-0.1-0.7c-0.4-3.5-0.7-6.5-1-7.7
		c-0.5-2.4-2.2,0.5-3.6,3.9c-0.7,1.8-1.8,3.7-1.8,5.3c0,2.8-0.2,5.6,0.3,8c0.1,0.6,0.4,1.1,0.5,1.6
		C142.6,261.4,143.5,265.1,143,270.6z"/>
	<path class="st0" d="M157.9,76.4c0,0,0.3,7.3-3,14.5c0,0,1.8,4.1,3.1,8.5c0,0-4,4.8-2,12.7c2.8,11.6,8.3,28.8-3,39.4
		c4,9.5,12,34.8,2.1,59.2c-9.9,24.4-7.6,21.7-9.2,28.4c-0.4,1.2-6.9,20.8-30,23.6c-23,2.7-33.1-12.3-34.7-16.1c0,0-0.7-3.7-2-4.5
		c-1.4-0.8-4.7-1.8-6.8-7.4c-2.2-5.6-4-6-5.9-8c-5,0-8.1-4.1-10.1-8.7c-3.2-7.3-6.3-19.2,5.9-37.5c0,0,8.4-3.9,17.5-1.4
		c2.4,0.7,3.1,0.5,4.9-1.4c2.5-2.6,6.8-6.9,10.3-9.6c5.3-4.1,1.9-0.7,3.9-4.1c0,0-1-4.9,1.5-11.1c1.5-3.7,6.1-7.6,8-11.6
		c1-2.2,0.6-4.3,1.8-6.2c0,0,2.4-4.8,10.1-8.3c0,0-3.1-20.8,9.8-27.8c0,0-8.3-13.2-8.3-19.1C121.8,74.1,157.9,76.4,157.9,76.4z"/>
	<path class="st6" d="M86.8,253.6c-2.7-1.8-5.2-6-5.5-6.9c0,0-0.7-3.7-2-4.5c-1.4-0.8-4.7-1.8-6.8-7.4c-2.2-5.6-4-6-5.9-8
		c-5.7,0.3-7.9-3.9-9.9-8.3c-2.3-5.2-4.7-12.7-1.5-23.3c0.3-1,0.5-0.5,0.5,1c-0.1,2.9-0.4,9.5,1.9,17c1.4,4.8,3.7,8.7,6.6,10.1
		c3.5,1.7,10.4-1.3,16.3-5.1c0.1,2.4-2.8,5.4-4.6,6.5c-1.6,0.9-4,1.8-3.9,1.9c4.6,4.8,3.9,11.4,10.5,13.8
		C83.8,240.8,83.9,247.7,86.8,253.6z"/>
	<path class="st6" d="M157.9,76.4c0,0,0.3,7.3-3,14.5c0,0,1.8,4.1,3.1,8.5c0,0-4,4.8-2,12.7c2.8,11.6,8.3,28.8-3,39.4
		c4,9.5,12,34.8,2.1,59.2c-9.9,24.4-7.6,21.7-9.2,28.4c-0.2,0.7-2.6,7.9-9.4,14.2c6.9-12.3,6.6-24.3,5.5-31.6
		c-0.4-2.7,2.8,3.5,4,1.5c1.6-2.7,2.6-6.3,3.1-10c0.3-2.3,1.3-2.2,2.3-3.9c1.8-2.9,3.8-6.8,4.1-11.8c0.8-11.3-0.3-14.1-1.2-18.8
		c-0.5-2.7,1.5-2.9,0.5-8.9c-0.6-3.9-2.7-8.2-4.8-11.9c-2-3.6-4.3-4.3-0.5-9.9c10-14.4-0.5-30.1,3.3-44.4c0.5-1.9,1.5-3.3,1.8-4.7
		c0.5-2.3,0.1-5.2-0.5-4.6c-0.5,0.4-2.8,6.6-2.8,4.3c0-2.4,1.4-11.6,2-13.7c0.6-2.1,1.1-4.6,0.7-8.9
		C156.4,76.3,157.9,76.4,157.9,76.4z"/>
	<path class="st6" d="M107,158.7c-3.8-10.9,2.2-22.1,2.8-23.1c0,0,2.8-5.1,10.6-8.6c0,0-3.1-20.8,9.8-27.8c0,0-8.3-13.2-8.3-19.1
		c0-3.1,3.9,3.2,4.7,4.2c1.7,7.8,5.6,12.7,7.7,15.1c-2.8,2.2-5,4.5-6.6,7.3c-4.3,7.5-4.7,18.1-5.2,26.6c0,0.9-0.6-0.3-1-1.7
		c-0.4-1.2-0.5-2.6-0.8-2.4C117.7,130.4,106.1,139,107,158.7z"/>
	<path class="st0" d="M85.5,128.3c-0.5-0.3-1.4,0-2,0.4c-0.6,0.5,0,0.9,0.7,1c0.7,0.1,1,0.4,1.7,1c0.6,0.6,1.5,0.5,2.6-0.4
		c1.1-0.9,2.3-0.8,2.6-1.7c0.2-0.9,0.1-1.5-0.2-2.5c-0.3,0-0.5,0-0.6-0.1c-0.8-0.3-1.9-1.6-2.4-2.3c-0.1-0.2-0.3-0.3-0.6-0.4
		c0,0.6,0.1,1.6,0.2,2c0,0,0.5,0.5,0.7,1c0,0,0.6-0.4,1.1,0c0.5,0.5,0.7,2.6,0,2.1c-0.7-0.4-1.4-0.5-2-0.1
		C86.6,128.7,86.1,128.6,85.5,128.3z"/>
	<path class="st0" d="M74.3,145.4c0,0-0.7-0.8-1-1.1c-0.3-0.3-0.5-0.6,0.4,2.1c0.9,2.6,2.6,3.1,4.8,3.7c3.4,0.9,5.6-0.4,8.9-0.6
		c1.9-0.1,4.3-0.3,6.9,0.4c1.4,0.4,3.5-0.2,5.1-2.6c1.6-2.4,1.7-5.6,1.8-7c0.1-1.4-0.1-0.7-0.4-0.1c-0.3,0.6-1.2,2.7-1.2,2.7
		c-1.6,3.3-3.1,3.8-4.5,3.7c-1.6-0.1-4.4-1.7-7.9-1.4c-3.5,0.3-6.6,1.9-8.9,2.4C76.6,147.8,75.1,146.4,74.3,145.4z"/>
	<path class="st0" d="M80.5,136.1c0.9-0.6,2.2-1.7,3.5-2.2c1-0.4,2.1-0.5,3.5-0.5c1,0,2.1-0.1,2.8,0.2c1.6,0.6,1.8,0.5,3.3,1.4
		c-0.4-0.8-1.6-1.9-3.3-2.7c-1.7-0.8-1.7-0.1-2.6,0.1c-1,0.2-1.7-0.4-2.5-0.3C84.4,132.2,81.8,133.9,80.5,136.1z"/>
	<path class="st0" d="M82.7,136.9c0,0,1.5-1.3,3.4-1c2,0.3,3.5-0.7,4.3-0.5c0.8,0.3,1.7,0.9,2.1,1.7c0.3,0.8,0.6,1.5-1.2,0.9
		c-1.8-0.7-4.1-0.7-6.1,0c-2,0.7-3.3,1.2-3.6,0.7C81.5,138.2,82,137.4,82.7,136.9z"/>
	<path class="st0" d="M74.5,132.4c0.6,0.6,1.1,0.7,1.6,1.8c0.5,1.1,0.9,3.5,0.9,4.6c0,1-0.6-0.4-1-2c-0.4-1.6-1.1-2.7-1.5-3.3
		C74,132.8,73.6,131.5,74.5,132.4z"/>
	<path class="st0" d="M98.8,131.8c0,0-1.1,1.6-1.2,2.8c-0.1,1.1,0.2,3.2,0.3,3.6c0.2,0.4,0.3-1.1,0.3-2.6c0-1.5,0.5-2.4,0.8-3
		C99.2,131.8,99.2,131.2,98.8,131.8z"/>
	<path class="st0" d="M103.3,260.2c1.9,0.3,3.6,1.2,4.8,2.4c9.1,0.7,18.4-1.6,25.1-6.8c7.5-5.8,11.5-13.2,12.9-16.4
		c0.3,1.8,0.6,4,0.9,6.3c-3.6,12.7-16.2,19.4-16.2,19.4c-8.4,4.1-16.1,5.5-22.6,5.2c-1.6,1.4-4.1,2.1-6.8,1.7
		c-3.3-0.6-5.8-2.7-6.4-5.2c-1.3-0.7-2.4-1.4-3.5-2.3c-6.4-4.9-9.9-10.3-11.2-12.4c0.3-2.2,0.5-4.4,0.5-6.4c1.2,2.5,5.2,9.5,15,13.9
		c0.9,0.4,1.9,0.8,2.9,1.1C99.9,260.1,101.6,259.9,103.3,260.2z"/>
	<path class="st0" d="M100.5,18.9c0,0-5.3,2.3-5.8,5.9c0.9,4.7,9.2,7.3,9.2,7.3s1.5,7.2,5.2,8.7c3.7,1.5,6.4,0.1,7.7,1.7
		c0,0,2.8,7.5,4.1,16.3c1.2,8.4-2.3,15.2,0.8,25.1c3.6,5.1,29.6,10.1,36.6-8.2c0,0-0.8-6.4-7.4-16.5c-6.6-10.1-8.2-13.7-8-20
		c0,0-2.6-2.1-2.8-3.7c-0.2-1.6-1.9-14.7-3.6-19.8c0,0-1.1-1.6-3.9-0.7c0,0-1.3-2.6-1.2-5c0,0-2.1-2.5-5.7-0.5c0,0-1.5-1.6-2.1-4
		c-0.8-0.2-2.6-0.6-5.3,1.3c0,0-1-2.2-3.9-2.7c-3.6,3.3-10.7,5.4-14.4,8.3C99.3,13.3,98.7,15.3,100.5,18.9z"/>
	<path class="st6" d="M100.5,18.9c0,0-5.3,2.3-5.8,5.9c0.9,4.7,9.2,7.3,9.2,7.3s1.5,7.2,5.2,8.7c3.7,1.5,6.4,0.1,7.7,1.7
		c0,0,2.8,7.5,4.1,16.3c1.2,8.4-2.3,15.2,0.8,25.1c0.8,1.1,2.6,2.2,5.1,3.1c-2.9-12.1-1.1-16.8-2.6-27.2c-1.2-8.6-3.5-16.5-4.6-19.3
		c-0.8-2.2-10.5,0.6-13.3-9c-0.1-0.4,4.1-1.2,3.5-5c-0.1-0.7-3.5,3.7-6.7,2.6c-2.4-0.8-5.1-2.4-5.8-4.2c-0.7-1.9,2.1-3.4,4.6-4.3
		c0.6-0.2,2.8,2.8,2.5,1.7c-0.5-1.9-3.3-6.4-1.7-7.9c2.2-2.1,8.4-5.1,12.4-6c1.8-0.4-0.8,3.7,0.8,2.5c1.4-1,4.6-2.3,5.8-2.3
		c1.9,0,1.7,3.8,2.7,3.5c0.6-0.2,5.1-1.8,5.4-0.1c0.4,3.1,0.6,5.4,1.4,5.4c0.9,0,2.2-0.3,3-0.1c2.7,0.7,2.7,15.7,3.5,19.1
		c0.4,1.7,2.9,3.4,3,5c0.1,2.3,0,5.4,0.6,7.1c4.5,13.4,10.5,16.1,14.5,32c1-1.4,1.9-2.9,2.6-4.7c0,0-0.8-6.4-7.4-16.5
		c-6.6-10.1-8.2-13.7-8-20c0,0-2.6-2.1-2.8-3.7c-0.2-1.6-1.9-14.7-3.6-19.8c0,0-1.1-1.6-3.9-0.7c0,0-1.3-2.6-1.2-5
		c0,0-2.1-2.5-5.7-0.5c0,0-1.5-1.6-2.1-4c-0.8-0.2-2.6-0.6-5.3,1.3c0,0-1-2.2-3.9-2.7c-3.6,3.3-10.7,5.4-14.4,8.3
		C99.3,13.3,98.7,15.3,100.5,18.9z"/>
	<path class="st6" d="M80.3,243.8l-0.6,6.4c0,0,3.4,7.1,11.7,13.4c8.3,6.3,22.1,8.9,39.4,0.6c0,0,13.3-7,16.5-20.4l-0.5-5.8
		c-0.2-0.2-0.2-0.6-0.4-0.2c-1.1,2.6-5,10.8-13.2,17.1c-9.8,7.5-25.3,9.1-37.5,3.7C83.6,253.2,80.3,243.8,80.3,243.8z"/>
	<path class="st0" d="M80.3,243.8c-0.1,1.2,0.2,2.1,0.8,3.3c1,2,3.2,5,7.8,8.5c8.3,6.3,22.5,11.9,39.8,3.6c0,0,15-7.2,18.2-20.6
		c0.1-0.5,0-1.3-0.3-1.6c0,0-0.1,0.5-0.2,1c-0.1,0.3-0.3,0.7-0.5,1.1c-1.6,3.4-5.5,10.4-12.6,15.8c-9.8,7.5-25.3,9.1-37.5,3.7
		c-7.8-3.5-12-8.6-13.9-11.8c-0.6-0.9-0.9-1.8-1.1-2.4c-0.1-0.3-0.2-0.6-0.3-0.8C80.3,243.7,80.3,243.7,80.3,243.8z"/>
	<path class="st0" d="M121.5,260.2c0,0,1.5,1,1.5,1.5c-0.1,0.5-0.2,7.5-0.2,7.5s4.8-1.1,7.9-3.2c0,0,0.1-7.3-0.2-7.7
		c-0.3-0.4-1.5-1-1.5-1S126.1,259,121.5,260.2z"/>
	<path class="st6" d="M141.3,256.2c0.1-2.4,0.1-7.5,0-7.8c-0.2-0.4-1.5-0.3-1.5-0.3s2-2.3,3.3-4.5c0,0,1,0.2,1.1,0.5
		c0.1,0.4-0.1,9.7-0.1,9.7C143.9,254,142.2,255.9,141.3,256.2z"/>
	<path class="st0" d="M87.6,262c0,0,0.3,0,0.4-0.1c0.1,0,0-0.5,0-0.6c0-2,0.1-5.7,0.2-6.1c0.1-0.6,1.4-0.4,1.4-0.4s-4-3.3-4.9-4.5
		c0,0-1.1,0.3-1.2,0.6c0,0.3,0.2,6.9,0.2,6.9S85.1,259.8,87.6,262z"/>
	<path class="st0" d="M90.4,129.1c0,0,1-0.1,2.4,1.6c1.3,1.7,1.5,2.2,1.8,2.6c0.2,0.4,0.1-0.3-0.5-1.6c-0.6-1.2-2.6-3.5-3.1-4.7
		C90.4,125.8,90.4,129.1,90.4,129.1z"/>
	<polygon class="st0" points="89,251.8 86,253.9 86,263.2 93.7,272.9 132.5,271.8 140.8,257.1 140.2,249.6 138,251.4 125.7,250.9 	
		"/>
	<path d="M101.7,128.5l-0.2-0.5l1.4-5.1l-0.4-5l-0.1-0.4c-1-5.1-1.5-8.1-1.5-9.3c0-1.9,0-4.3-2.5-6.1c-0.2-0.2-0.8-0.4-2.4-0.4
		c-4,0-7,0-8,0.3l-0.2,0l-0.2,0c-0.5,0-4.6,0.4-5.7,0.6c-3,0.4-7.3,3.6-8.2,4.6c-0.9,0.9-1.7,1.6-2.4,2.2c-1.3,1.1-2.2,1.9-3.3,3.8
		c-0.6,1.1-0.8,2.9-0.7,5c1.2,2.2,2,4.7,2.3,7.3c1.5,0.8,2.9,1.8,4.1,3c1.7,1.6,3.1,3.4,4.5,5.3c0,0,0,0,0,0
		c1.7,0.6,3.3,1.2,4.9,1.9c-0.4-0.2-0.8-0.3-1.1-0.5c1.2,0.5,2.4,1,3.6,1.5c-0.8-0.3-1.6-0.7-2.4-1c1.4,0.6,2.7,1.3,3.9,2
		c4.3-1.8,8.7-2.5,13.6-2.8c0.8-0.1,1.6,0,2.3,0C103.1,131.5,102,129.1,101.7,128.5z"/>
</g>
<g>
	<g>
		<g>
			<polygon class="st12" points="67.1,181.1 67.1,187.1 80.1,192.4 67.1,202.7 67.1,208.7 91.3,190.3 			"/>
		</g>
		<g>
			<polygon class="st12" points="116.9,167.9 116.3,175.6 102.4,188.1 114.6,195.7 113.9,203.4 91.3,190.3 			"/>
		</g>
		<g>
			<path class="st12" d="M88.3,174l9.9-2.7l-0.2,2.8l-6.2,1.6l-0.2,3.3l5.7-1.4l-0.2,2.8l-5.7,1.3l-0.3,5.5l-3.5-1.3L88.3,174z"/>
		</g>
		<g>
			<path class="st12" d="M85.2,198.1c1.3-0.4,3-0.8,4.7-1c2.9-0.5,4.8-0.3,6.2,0.6c1.5,0.9,2.4,2.6,2.3,5.3c-0.2,2.9-1.3,5-2.9,6.4
				c-1.7,1.4-4.1,2.3-7,2.5c-1.8,0.1-3,0.1-3.8,0.1L85.2,198.1z M88.2,209.3c0.3,0,0.8,0,1.2-0.1c3.1-0.3,5.2-2.2,5.4-5.7
				c0.2-3.1-1.6-4.5-4.6-4c-0.8,0.1-1.3,0.3-1.6,0.4L88.2,209.3z"/>
		</g>
	</g>
</g>
</svg>
